<?xml version="1.0" encoding="utf-8"?>
<!-- Generator: Adobe Illustrator 21.1.0, SVG Export Plug-In . SVG Version: 6.00 Build 0)  -->
<svg version="1.1" id="Layer_1" xmlns="http://www.w3.org/2000/svg" xmlns:xlink="http://www.w3.org/1999/xlink" x="0px" y="0px"
	 viewBox="0 0 44.4 44.4" style="enable-background:new 0 0 44.4 44.4;" xml:space="preserve">
<style type="text/css">
	.st0{fill:#FFFFFF;}
</style>
<path class="st0" d="M25.3,16.4c1.6,0,3.2,0,4.7,0c0,1.6,0,3.4,0,5c-1.6,0-3.1,0-4.7,0c0,5.2,0,10.3,0,15.5c-2.2,0-4.4,0-6.7,0
	c0-5.2,0-10.3,0-15.5c-1.4,0-2.8,0-4.3,0c0-1.7,0-3.4,0-5.1c1.4,0,2.8,0,4.2,0c0-1.3,0-2.5,0.1-3.6c0.1-1.1,0.4-2,0.9-2.7
	c1-1.4,2.6-2.6,4.7-2.7c1.8-0.1,3.8,0,5.7,0c0,1.7,0,3.4,0,5.1c-0.9,0-1.9-0.1-2.7,0c-0.8,0.1-1.5,0.6-1.7,1.2
	C25.1,14.4,25.3,15.3,25.3,16.4z M22.2,0C9.9,0,0,9.9,0,22.2s9.9,22.2,22.2,22.2c12.2,0,22.2-9.9,22.2-22.2S34.4,0,22.2,0z"/>
</svg>
