<?xml version="1.0" encoding="utf-8"?>
<!-- Generator: Adobe Illustrator 21.1.0, SVG Export Plug-In . SVG Version: 6.00 Build 0)  -->
<svg version="1.1" id="Layer_1" xmlns="http://www.w3.org/2000/svg" xmlns:xlink="http://www.w3.org/1999/xlink" x="0px" y="0px"
	 viewBox="0 0 44.4 44.4" style="enable-background:new 0 0 44.4 44.4;" xml:space="preserve">
<style type="text/css">
	.st0{fill:#FFFFFF;}
</style>
<path class="st0" d="M22.2,25.9c1.8,0,3.5-1.5,3.5-3.4c0.1-2.5-2-4-4.1-3.8c-1.6,0.2-2.7,1.3-3,2.8C18.1,24,20.2,25.9,22.2,25.9z"/>
<path class="st0" d="M31.6,11.8h-2.8c-0.4,0-0.7,0.3-0.7,0.7v2.8c0,0.4,0.3,0.7,0.7,0.7h2.8c0.4,0,0.7-0.3,0.7-0.7v-2.8
	C32.4,12.1,32,11.8,31.6,11.8z"/>
<path class="st0" d="M34.6,17.9c-2,0-3.8,0-5.9,0c-0.6,0-1.4,0.1-2,0c-0.4-0.1-0.5-0.4-0.8-0.7c-1-0.7-2.5-1.3-4.3-1.2
	c-1.4,0.1-2.3,0.6-3.2,1.3c-0.2,0.2-0.6,0.5-0.8,0.6c-0.5,0.1-1.3,0-2,0c-1.9,0-3.8,0-5.8,0c0.1-1.5-0.2-2.9,0-4.1
	c0.3-1.5,1.2-2.5,2-3.1c0,1.7,0,5.2,0,5.2h1c0,0-0.1-4,0-5.8c0.1-0.1,0.4-0.1,0.6-0.2c0.1,1.9,0.1,6,0.1,6h1c0,0,0-4,0-6
	c0-0.1,0-0.2,0-0.2c0.2,0,0.4,0,0.6,0c0,2,0,6.2,0,6.2h1c0,0,0-4.1,0-6.2c4.2,0.2,9.5-0.3,13.6,0c1.6,0.1,2.9,0.9,3.7,1.9
	C34.7,13,34.7,15.1,34.6,17.9z M17.3,22.4c0-1.6,0.7-2.9,1.5-3.6s1.7-1.2,3.1-1.3c2.7-0.2,4.9,1.7,5.2,4.2c0.3,2.8-1.6,5.2-4.1,5.5
	c-0.4,0-1.1,0-1.5,0C19.3,26.9,17.3,24.9,17.3,22.4z M34.6,28.9c0,1.7-0.3,3-1.2,4c-0.8,0.9-1.9,1.6-3.4,1.8c-2.5,0.2-5.1,0-7.8,0
	c-2.5,0-5.2,0.2-7.8,0c-2.5-0.2-4.5-2-4.7-4.7c-0.3-3.5,0.2-7.5,0-11.3c0-0.1,0-0.2,0.1-0.2c2.4,0,4.7,0,7,0
	c0.2,0.1-0.2,0.4-0.3,0.7c-0.5,0.9-0.8,2.2-0.7,3.7c0.2,2.9,2.7,5.5,5.8,5.7c2.3,0.2,4.2-0.9,5.3-2.4c1.1-1.3,2-3.5,1.2-5.9
	c-0.1-0.3-0.3-0.6-0.4-0.9c-0.1-0.3-0.4-0.5-0.4-0.8c2.4,0,4.7,0,7.1,0C34.7,22.2,34.6,25.5,34.6,28.9z M22.2,0C9.9,0,0,9.9,0,22.2
	s9.9,22.2,22.2,22.2c12.2,0,22.2-9.9,22.2-22.2S34.4,0,22.2,0z"/>
</svg>
