<?xml version="1.0" encoding="utf-8"?>
<!-- Generator: Adobe Illustrator 19.0.0, SVG Export Plug-In . SVG Version: 6.00 Build 0)  -->
<svg version="1.1" xmlns="http://www.w3.org/2000/svg" xmlns:xlink="http://www.w3.org/1999/xlink" x="0px" y="0px"
	 viewBox="0 0 800 800" style="enable-background:new 0 0 800 800;" xml:space="preserve">
<style type="text/css">
	.st0{fill:#393E46;}
	.st1{fill:none;stroke:#F4B22A;stroke-width:5;stroke-miterlimit:10;}
	.st2{fill:#28ADB3;}
	.st3{fill:#F4B22A;}
</style>
<g id="Layer_1">
	<rect id="XMLID_92_" x="0" y="0" class="st0" width="800" height="800"/>
	<rect id="XMLID_93_" x="29.8" y="29.8" class="st1" width="740.4" height="740.4"/>
	<g id="XMLID_96_">
		<path id="XMLID_97_" class="st2" d="M228,125.6h-12.8v9.6h15v4.3h-20.5v-31.3H230v4.4h-14.9v8.6H228V125.6z"/>
		<path id="XMLID_99_" class="st2" d="M245.6,132.7l7.9-24.5h6l-11.3,31.3H243l-11.2-31.3h6L245.6,132.7z"/>
		<path id="XMLID_101_" class="st2" d="M281.3,125.6h-12.8v9.6h15v4.3h-20.5v-31.3h20.3v4.4h-14.9v8.6h12.8V125.6z"/>
		<path id="XMLID_103_" class="st2" d="M299.4,127.5h-6.1v12h-5.4v-31.3h11c3.6,0,6.4,0.8,8.4,2.4c2,1.6,2.9,4,2.9,7
			c0,2.1-0.5,3.8-1.5,5.3c-1,1.4-2.4,2.5-4.2,3.3l7,13v0.3h-5.8L299.4,127.5z M293.4,123.1h5.6c1.8,0,3.3-0.5,4.3-1.4
			s1.5-2.2,1.5-3.8c0-1.7-0.5-3-1.4-3.9c-1-0.9-2.4-1.4-4.3-1.4h-5.7V123.1z"/>
		<path id="XMLID_106_" class="st2" d="M324.6,123.1l7.2-14.8h6L327.3,128v11.5h-5.5V128l-10.5-19.8h6L324.6,123.1z"/>
		<path id="XMLID_108_" class="st2" d="M365.4,139.5h-5.2v-25.1l-7.7,2.6v-4.4l12.2-4.5h0.7V139.5z"/>
		<path id="XMLID_110_" class="st2" d="M396.7,126.3c0,4.5-0.8,7.9-2.5,10.2c-1.7,2.3-4.2,3.4-7.7,3.4c-3.4,0-5.9-1.1-7.6-3.3
			c-1.7-2.2-2.6-5.5-2.6-9.9v-5.4c0-4.5,0.8-7.9,2.5-10.1c1.7-2.2,4.2-3.4,7.7-3.4c3.4,0,6,1.1,7.7,3.3c1.7,2.2,2.5,5.5,2.6,9.8
			V126.3z M391.5,120.5c0-2.9-0.4-5.1-1.2-6.5c-0.8-1.4-2.1-2.1-3.8-2.1c-1.7,0-3,0.6-3.8,1.9c-0.8,1.3-1.2,3.3-1.3,6.1v7.1
			c0,2.9,0.4,5.1,1.2,6.5c0.8,1.4,2.1,2.1,3.8,2.1c1.7,0,2.9-0.7,3.7-2c0.8-1.3,1.2-3.4,1.3-6.2V120.5z"/>
		<path id="XMLID_113_" class="st2" d="M420.1,108.2l9,24l9-24h7v31.3h-5.4v-10.3l0.5-13.8l-9.2,24.1h-3.9l-9.2-24.1l0.5,13.8v10.3
			h-5.4v-31.3H420.1z"/>
		<path id="XMLID_115_" class="st2" d="M457.4,139.5h-5.4v-31.3h5.4V139.5z"/>
		<path id="XMLID_117_" class="st2" d="M488.9,139.5h-5.4l-13.9-22.2v22.2H464v-31.3h5.4l14,22.3v-22.3h5.4V139.5z"/>
		<path id="XMLID_119_" class="st2" d="M518.2,108.2v20.9c0,3.3-1.1,6-3.2,7.9c-2.1,1.9-5,2.9-8.5,2.9c-3.6,0-6.4-1-8.5-2.9
			s-3.2-4.6-3.2-8v-20.9h5.4v20.9c0,2.1,0.5,3.7,1.6,4.8c1.1,1.1,2.6,1.7,4.7,1.7c4.2,0,6.3-2.2,6.3-6.6v-20.8H518.2z"/>
		<path id="XMLID_121_" class="st2" d="M546.6,112.6h-9.8v26.9h-5.4v-26.9h-9.7v-4.4h24.8V112.6z"/>
		<path id="XMLID_123_" class="st2" d="M568.9,125.6h-12.8v9.6h15v4.3h-20.5v-31.3H571v4.4h-14.9v8.6h12.8V125.6z"/>
		<path id="XMLID_125_" class="st2" d="M591.9,131.5c0-1.4-0.5-2.4-1.5-3.2c-1-0.7-2.7-1.5-5.2-2.3c-2.5-0.8-4.5-1.6-6-2.5
			c-2.9-1.8-4.3-4.1-4.3-7c0-2.5,1-4.6,3.1-6.2c2.1-1.6,4.7-2.4,8-2.4c2.2,0,4.1,0.4,5.8,1.2c1.7,0.8,3,1.9,4,3.4
			c1,1.5,1.5,3.1,1.5,4.9h-5.4c0-1.6-0.5-2.9-1.5-3.8c-1-0.9-2.5-1.4-4.4-1.4c-1.8,0-3.2,0.4-4.1,1.1c-1,0.8-1.5,1.8-1.5,3.2
			c0,1.1,0.5,2.1,1.6,2.9c1.1,0.8,2.8,1.5,5.2,2.2c2.4,0.7,4.4,1.5,5.9,2.5c1.5,0.9,2.6,2,3.2,3.2c0.7,1.2,1,2.6,1,4.2
			c0,2.6-1,4.7-3,6.2c-2,1.5-4.7,2.3-8.1,2.3c-2.3,0-4.3-0.4-6.2-1.3c-1.9-0.8-3.4-2-4.4-3.5c-1.1-1.5-1.6-3.2-1.6-5.2h5.4
			c0,1.8,0.6,3.2,1.8,4.1c1.2,1,2.9,1.5,5,1.5c1.9,0,3.3-0.4,4.3-1.1C591.4,133.7,591.9,132.7,591.9,131.5z"/>
		<path id="XMLID_127_" class="st2" d="M602.3,146.6l-2.8-1.7c0.8-1.3,1.4-2.4,1.7-3.4c0.3-1,0.5-2,0.5-3v-4.1h4.7l0,3.8
			c0,1.5-0.4,3-1.1,4.6S603.5,145.6,602.3,146.6z"/>
		<path id="XMLID_129_" class="st2" d="M143.7,184.3c0-1.4-0.5-2.4-1.5-3.2c-1-0.7-2.7-1.5-5.2-2.3c-2.5-0.8-4.5-1.6-6-2.5
			c-2.9-1.8-4.3-4.1-4.3-7c0-2.5,1-4.6,3.1-6.2c2.1-1.6,4.7-2.4,8-2.4c2.2,0,4.1,0.4,5.8,1.2c1.7,0.8,3,1.9,4,3.4
			c1,1.5,1.5,3.1,1.5,4.9h-5.4c0-1.6-0.5-2.9-1.5-3.8c-1-0.9-2.5-1.4-4.4-1.4c-1.8,0-3.2,0.4-4.1,1.1c-1,0.8-1.5,1.8-1.5,3.2
			c0,1.1,0.5,2.1,1.6,2.9c1.1,0.8,2.8,1.5,5.2,2.2c2.4,0.7,4.4,1.5,5.9,2.5c1.5,0.9,2.6,2,3.2,3.2c0.7,1.2,1,2.6,1,4.2
			c0,2.6-1,4.7-3,6.2c-2,1.5-4.7,2.3-8.1,2.3c-2.3,0-4.3-0.4-6.2-1.3c-1.9-0.8-3.4-2-4.4-3.5c-1.1-1.5-1.6-3.2-1.6-5.2h5.4
			c0,1.8,0.6,3.2,1.8,4.1c1.2,1,2.9,1.5,5,1.5c1.9,0,3.3-0.4,4.3-1.1C143.2,186.5,143.7,185.5,143.7,184.3z"/>
		<path id="XMLID_131_" class="st2" d="M178.9,177.5c0,3.1-0.5,5.8-1.6,8.1c-1.1,2.3-2.6,4.1-4.5,5.3c-2,1.2-4.2,1.9-6.8,1.9
			c-2.5,0-4.8-0.6-6.8-1.9c-2-1.2-3.5-3-4.6-5.3c-1.1-2.3-1.6-4.9-1.6-7.9v-1.8c0-3.1,0.5-5.7,1.6-8.1c1.1-2.3,2.6-4.1,4.6-5.4
			c2-1.2,4.2-1.9,6.8-1.9c2.5,0,4.8,0.6,6.8,1.8c2,1.2,3.5,3,4.6,5.3s1.6,5,1.6,8V177.5z M173.4,175.9c0-3.5-0.7-6.1-2-8
			s-3.2-2.8-5.6-2.8c-2.3,0-4.2,0.9-5.5,2.8c-1.3,1.8-2,4.4-2,7.8v1.8c0,3.4,0.7,6.1,2,8c1.3,1.9,3.2,2.8,5.6,2.8
			c2.4,0,4.3-0.9,5.6-2.8c1.3-1.8,1.9-4.5,1.9-8V175.9z"/>
		<path id="XMLID_134_" class="st2" d="M191.3,161l9,24l9-24h7v31.3H211V182l0.5-13.8l-9.2,24.1h-3.9l-9.2-24.1l0.5,13.8v10.3h-5.4
			V161H191.3z"/>
		<path id="XMLID_136_" class="st2" d="M241.1,178.4h-12.8v9.6h15v4.3h-20.5V161h20.3v4.4h-14.9v8.6h12.8V178.4z"/>
		<path id="XMLID_138_" class="st2" d="M272.6,177.5c0,3.1-0.5,5.8-1.6,8.1c-1.1,2.3-2.6,4.1-4.5,5.3c-2,1.2-4.2,1.9-6.8,1.9
			c-2.5,0-4.8-0.6-6.8-1.9c-2-1.2-3.5-3-4.6-5.3c-1.1-2.3-1.6-4.9-1.6-7.9v-1.8c0-3.1,0.5-5.7,1.6-8.1c1.1-2.3,2.6-4.1,4.6-5.4
			c2-1.2,4.2-1.9,6.8-1.9c2.5,0,4.8,0.6,6.8,1.8c2,1.2,3.5,3,4.6,5.3s1.6,5,1.6,8V177.5z M267.2,175.9c0-3.5-0.7-6.1-2-8
			s-3.2-2.8-5.6-2.8c-2.3,0-4.2,0.9-5.5,2.8c-1.3,1.8-2,4.4-2,7.8v1.8c0,3.4,0.7,6.1,2,8c1.3,1.9,3.2,2.8,5.6,2.8
			c2.4,0,4.3-0.9,5.6-2.8c1.3-1.8,1.9-4.5,1.9-8V175.9z"/>
		<path id="XMLID_141_" class="st2" d="M302.9,192.3h-5.4l-13.9-22.2v22.2h-5.4V161h5.4l14,22.3V161h5.4V192.3z"/>
		<path id="XMLID_143_" class="st2" d="M327.6,178.4h-12.8v9.6h15v4.3h-20.5V161h20.3v4.4h-14.9v8.6h12.8V178.4z"/>
		<path id="XMLID_145_" class="st2" d="M350.9,192.3h-5.4V161h5.4V192.3z"/>
		<path id="XMLID_147_" class="st2" d="M373.9,184.3c0-1.4-0.5-2.4-1.5-3.2c-1-0.7-2.7-1.5-5.2-2.3c-2.5-0.8-4.5-1.6-6-2.5
			c-2.9-1.8-4.3-4.1-4.3-7c0-2.5,1-4.6,3.1-6.2c2.1-1.6,4.7-2.4,8-2.4c2.2,0,4.1,0.4,5.8,1.2c1.7,0.8,3,1.9,4,3.4
			c1,1.5,1.5,3.1,1.5,4.9h-5.4c0-1.6-0.5-2.9-1.5-3.8c-1-0.9-2.5-1.4-4.4-1.4c-1.8,0-3.2,0.4-4.1,1.1c-1,0.8-1.5,1.8-1.5,3.2
			c0,1.1,0.5,2.1,1.6,2.9c1.1,0.8,2.8,1.5,5.2,2.2c2.4,0.7,4.4,1.5,5.9,2.5c1.5,0.9,2.6,2,3.2,3.2c0.7,1.2,1,2.6,1,4.2
			c0,2.6-1,4.7-3,6.2c-2,1.5-4.7,2.3-8.1,2.3c-2.3,0-4.3-0.4-6.2-1.3c-1.9-0.8-3.4-2-4.4-3.5c-1.1-1.5-1.6-3.2-1.6-5.2h5.4
			c0,1.8,0.6,3.2,1.8,4.1c1.2,1,2.9,1.5,5,1.5c1.9,0,3.3-0.4,4.3-1.1C373.4,186.5,373.9,185.5,373.9,184.3z"/>
		<path id="XMLID_149_" class="st2" d="M412.6,185h-12.1l-2.5,7.3h-5.7l11.8-31.3h4.9l11.8,31.3h-5.7L412.6,185z M402,180.7h9.1
			l-4.5-13L402,180.7z"/>
		<path id="XMLID_152_" class="st2" d="M424.3,192.3V161h9.2c2.8,0,5.2,0.6,7.4,1.8c2.1,1.2,3.8,3,5,5.2c1.2,2.3,1.8,4.9,1.8,7.8
			v1.6c0,3-0.6,5.6-1.8,7.8c-1.2,2.2-2.9,4-5,5.2c-2.2,1.2-4.7,1.8-7.5,1.8H424.3z M429.8,165.4V188h3.5c2.8,0,5-0.9,6.6-2.7
			s2.3-4.3,2.3-7.7v-1.7c0-3.4-0.7-6-2.2-7.8c-1.5-1.8-3.6-2.7-6.4-2.7H429.8z"/>
		<path id="XMLID_155_" class="st2" d="M453.1,192.3V161h9.2c2.8,0,5.2,0.6,7.4,1.8c2.1,1.2,3.8,3,5,5.2c1.2,2.3,1.8,4.9,1.8,7.8
			v1.6c0,3-0.6,5.6-1.8,7.8c-1.2,2.2-2.9,4-5,5.2c-2.2,1.2-4.7,1.8-7.5,1.8H453.1z M458.5,165.4V188h3.5c2.8,0,5-0.9,6.6-2.7
			s2.3-4.3,2.3-7.7v-1.7c0-3.4-0.7-6-2.2-7.8c-1.5-1.8-3.6-2.7-6.4-2.7H458.5z"/>
		<path id="XMLID_158_" class="st2" d="M500.1,178.4h-12.8v9.6h15v4.3h-20.5V161h20.3v4.4h-14.9v8.6h12.8V178.4z"/>
		<path id="XMLID_160_" class="st2" d="M506.7,192.3V161h9.2c2.8,0,5.2,0.6,7.4,1.8c2.1,1.2,3.8,3,5,5.2c1.2,2.3,1.8,4.9,1.8,7.8
			v1.6c0,3-0.6,5.6-1.8,7.8c-1.2,2.2-2.9,4-5,5.2c-2.2,1.2-4.7,1.8-7.5,1.8H506.7z M512.2,165.4V188h3.5c2.8,0,5-0.9,6.6-2.7
			s2.3-4.3,2.3-7.7v-1.7c0-3.4-0.7-6-2.2-7.8c-1.5-1.8-3.6-2.7-6.4-2.7H512.2z"/>
		<path id="XMLID_163_" class="st2" d="M567.7,165.4H558v26.9h-5.4v-26.9h-9.7V161h24.8V165.4z"/>
		<path id="XMLID_165_" class="st2" d="M596.2,177.5c0,3.1-0.5,5.8-1.6,8.1c-1.1,2.3-2.6,4.1-4.5,5.3c-2,1.2-4.2,1.9-6.8,1.9
			c-2.5,0-4.8-0.6-6.8-1.9c-2-1.2-3.5-3-4.6-5.3c-1.1-2.3-1.6-4.9-1.6-7.9v-1.8c0-3.1,0.5-5.7,1.6-8.1c1.1-2.3,2.6-4.1,4.6-5.4
			c2-1.2,4.2-1.9,6.8-1.9c2.5,0,4.8,0.6,6.8,1.8c2,1.2,3.5,3,4.6,5.3s1.6,5,1.6,8V177.5z M590.8,175.9c0-3.5-0.7-6.1-2-8
			s-3.2-2.8-5.6-2.8c-2.3,0-4.2,0.9-5.5,2.8c-1.3,1.8-2,4.4-2,7.8v1.8c0,3.4,0.7,6.1,2,8c1.3,1.9,3.2,2.8,5.6,2.8
			c2.4,0,4.3-0.9,5.6-2.8c1.3-1.8,1.9-4.5,1.9-8V175.9z"/>
		<path id="XMLID_168_" class="st2" d="M633.9,165.4h-9.8v26.9h-5.4v-26.9h-9.7V161h24.8V165.4z"/>
		<path id="XMLID_170_" class="st2" d="M662.8,192.3h-5.4v-13.9h-14v13.9H638V161h5.4v13h14v-13h5.4V192.3z"/>
		<path id="XMLID_172_" class="st2" d="M687.5,178.4h-12.8v9.6h15v4.3h-20.5V161h20.3v4.4h-14.9v8.6h12.8V178.4z"/>
		<path id="XMLID_174_" class="st2" d="M212.9,230.3c0,3.1-0.5,5.8-1.6,8.1c-1.1,2.3-2.6,4.1-4.5,5.3c-2,1.2-4.2,1.9-6.8,1.9
			c-2.5,0-4.8-0.6-6.8-1.9c-2-1.2-3.5-3-4.6-5.3c-1.1-2.3-1.6-4.9-1.6-7.9v-1.8c0-3.1,0.5-5.7,1.6-8.1c1.1-2.3,2.6-4.1,4.6-5.4
			c2-1.2,4.2-1.9,6.8-1.9c2.5,0,4.8,0.6,6.8,1.8c2,1.2,3.5,3,4.6,5.3s1.6,5,1.6,8V230.3z M207.5,228.7c0-3.5-0.7-6.1-2-8
			s-3.2-2.8-5.6-2.8c-2.3,0-4.2,0.9-5.5,2.8c-1.3,1.8-2,4.4-2,7.8v1.8c0,3.4,0.7,6.1,2,8c1.3,1.9,3.2,2.8,5.6,2.8
			c2.4,0,4.3-0.9,5.6-2.8c1.3-1.8,1.9-4.5,1.9-8V228.7z"/>
		<path id="XMLID_177_" class="st2" d="M229.8,233.1h-6.1v12h-5.4v-31.3h11c3.6,0,6.4,0.8,8.4,2.4c2,1.6,2.9,4,2.9,7
			c0,2.1-0.5,3.8-1.5,5.3c-1,1.4-2.4,2.5-4.2,3.3l7,13v0.3h-5.8L229.8,233.1z M223.7,228.7h5.6c1.8,0,3.3-0.5,4.3-1.4
			s1.5-2.2,1.5-3.8c0-1.7-0.5-3-1.4-3.9c-1-0.9-2.4-1.4-4.3-1.4h-5.7V228.7z"/>
		<path id="XMLID_180_" class="st2" d="M269.7,241.1c-1.1,1.5-2.7,2.6-4.7,3.4c-2,0.8-4.3,1.1-6.8,1.1c-2.6,0-4.9-0.6-7-1.8
			c-2-1.2-3.6-2.9-4.7-5.1s-1.7-4.8-1.7-7.7v-2.4c0-4.7,1.1-8.4,3.4-11.1c2.3-2.7,5.4-4,9.5-4c3.5,0,6.2,0.9,8.3,2.6
			c2,1.7,3.3,4.2,3.7,7.4h-5.3c-0.6-3.8-2.8-5.7-6.6-5.7c-2.4,0-4.3,0.9-5.6,2.6s-1.9,4.3-2,7.7v2.4c0,3.4,0.7,6,2.1,7.9
			c1.4,1.9,3.4,2.8,5.9,2.8c2.8,0,4.8-0.6,5.9-1.9v-6.1h-6.4v-4.1h11.9V241.1z"/>
		<path id="XMLID_182_" class="st2" d="M293.2,237.8h-12.1l-2.5,7.3h-5.7l11.8-31.3h4.9l11.8,31.3h-5.7L293.2,237.8z M282.6,233.5
			h9.1l-4.5-13L282.6,233.5z"/>
		<path id="XMLID_185_" class="st2" d="M329.8,245.1h-5.4l-13.9-22.2v22.2H305v-31.3h5.4l14,22.3v-22.3h5.4V245.1z"/>
		<path id="XMLID_187_" class="st2" d="M371.7,237.4l4.8-23.5h5.4l-7.2,31.3h-5.2l-6-22.8l-6.1,22.8h-5.2l-7.2-31.3h5.4l4.9,23.5
			l6-23.5h4.6L371.7,237.4z"/>
		<path id="XMLID_189_" class="st2" d="M402.5,237.8h-12.1l-2.5,7.3h-5.7l11.8-31.3h4.9l11.8,31.3H405L402.5,237.8z M391.9,233.5
			h9.1l-4.5-13L391.9,233.5z"/>
		<path id="XMLID_192_" class="st2" d="M420,245.1h-5.4v-31.3h5.4V245.1z"/>
		<path id="XMLID_194_" class="st2" d="M448.7,218.2h-9.8v26.9h-5.4v-26.9h-9.7v-4.4h24.8V218.2z"/>
		<path id="XMLID_196_" class="st2" d="M458.5,245.1h-5.4v-31.3h5.4V245.1z"/>
		<path id="XMLID_198_" class="st2" d="M490,245.1h-5.4l-13.9-22.2v22.2h-5.4v-31.3h5.4l14,22.3v-22.3h5.4V245.1z"/>
		<path id="XMLID_200_" class="st2" d="M520.4,241.1c-1.1,1.5-2.7,2.6-4.7,3.4c-2,0.8-4.3,1.1-6.8,1.1c-2.6,0-4.9-0.6-7-1.8
			c-2-1.2-3.6-2.9-4.7-5.1s-1.7-4.8-1.7-7.7v-2.4c0-4.7,1.1-8.4,3.4-11.1c2.3-2.7,5.4-4,9.5-4c3.5,0,6.2,0.9,8.3,2.6
			c2,1.7,3.3,4.2,3.7,7.4H515c-0.6-3.8-2.8-5.7-6.6-5.7c-2.4,0-4.3,0.9-5.6,2.6s-1.9,4.3-2,7.7v2.4c0,3.4,0.7,6,2.1,7.9
			c1.4,1.9,3.4,2.8,5.9,2.8c2.8,0,4.8-0.6,5.9-1.9v-6.1h-6.4v-4.1h11.9V241.1z"/>
		<path id="XMLID_202_" class="st2" d="M542.8,240.8H557v4.3h-19.6v-31.3h5.4V240.8z"/>
		<path id="XMLID_204_" class="st2" d="M566.9,245.1h-5.4v-31.3h5.4V245.1z"/>
		<path id="XMLID_206_" class="st2" d="M589.9,237.1c0-1.4-0.5-2.4-1.5-3.2c-1-0.7-2.7-1.5-5.2-2.3c-2.5-0.8-4.5-1.6-6-2.5
			c-2.9-1.8-4.3-4.1-4.3-7c0-2.5,1-4.6,3.1-6.2c2.1-1.6,4.7-2.4,8-2.4c2.2,0,4.1,0.4,5.8,1.2c1.7,0.8,3,1.9,4,3.4
			c1,1.5,1.5,3.1,1.5,4.9h-5.4c0-1.6-0.5-2.9-1.5-3.8c-1-0.9-2.5-1.4-4.4-1.4c-1.8,0-3.2,0.4-4.1,1.1c-1,0.8-1.5,1.8-1.5,3.2
			c0,1.1,0.5,2.1,1.6,2.9c1.1,0.8,2.8,1.5,5.2,2.2c2.4,0.7,4.4,1.5,5.9,2.5c1.5,0.9,2.6,2,3.2,3.2c0.7,1.2,1,2.6,1,4.2
			c0,2.6-1,4.7-3,6.2c-2,1.5-4.7,2.3-8.1,2.3c-2.3,0-4.3-0.4-6.2-1.3c-1.9-0.8-3.4-2-4.4-3.5c-1.1-1.5-1.6-3.2-1.6-5.2h5.4
			c0,1.8,0.6,3.2,1.8,4.1c1.2,1,2.9,1.5,5,1.5c1.9,0,3.3-0.4,4.3-1.1C589.4,239.3,589.9,238.3,589.9,237.1z"/>
		<path id="XMLID_208_" class="st2" d="M622.7,218.2h-9.8v26.9h-5.4v-26.9h-9.7v-4.4h24.8V218.2z"/>
		<path id="XMLID_210_" class="st2" d="M624,239.6c1,0,1.7,0.3,2.3,0.8c0.5,0.6,0.8,1.2,0.8,2.1c0,0.8-0.3,1.5-0.8,2
			c-0.5,0.5-1.3,0.8-2.3,0.8c-0.9,0-1.7-0.3-2.2-0.8c-0.5-0.5-0.8-1.2-0.8-2c0-0.8,0.3-1.5,0.8-2.1
			C622.3,239.9,623.1,239.6,624,239.6z"/>
		<path id="XMLID_212_" class="st3" d="M233.4,391.5h-6.1v12h-5.4v-31.3h11c3.6,0,6.4,0.8,8.4,2.4c2,1.6,2.9,4,2.9,7
			c0,2.1-0.5,3.8-1.5,5.3c-1,1.4-2.4,2.5-4.2,3.3l7,13v0.3h-5.8L233.4,391.5z M227.3,387.1h5.6c1.8,0,3.3-0.5,4.3-1.4
			s1.5-2.2,1.5-3.8c0-1.7-0.5-3-1.4-3.9c-1-0.9-2.4-1.4-4.3-1.4h-5.7V387.1z"/>
		<path id="XMLID_215_" class="st3" d="M267.6,389.6h-12.8v9.6h15v4.3h-20.5v-31.3h20.3v4.4h-14.9v8.6h12.8V389.6z"/>
		<path id="XMLID_217_" class="st3" d="M298.2,399.5c-1.1,1.5-2.7,2.6-4.7,3.4c-2,0.8-4.3,1.1-6.8,1.1c-2.6,0-4.9-0.6-7-1.8
			c-2-1.2-3.6-2.9-4.7-5.1s-1.7-4.8-1.7-7.7v-2.4c0-4.7,1.1-8.4,3.4-11.1c2.3-2.7,5.4-4,9.5-4c3.5,0,6.2,0.9,8.3,2.6
			c2,1.7,3.3,4.2,3.7,7.4h-5.3c-0.6-3.8-2.8-5.7-6.6-5.7c-2.4,0-4.3,0.9-5.6,2.6s-1.9,4.3-2,7.7v2.4c0,3.4,0.7,6,2.1,7.9
			c1.4,1.9,3.4,2.8,5.9,2.8c2.8,0,4.8-0.6,5.9-1.9v-6.1h-6.4v-4.1h11.9V399.5z"/>
		<path id="XMLID_219_" class="st3" d="M309.9,403.5h-5.4v-31.3h5.4V403.5z"/>
		<path id="XMLID_221_" class="st3" d="M332.9,395.5c0-1.4-0.5-2.4-1.5-3.2c-1-0.7-2.7-1.5-5.2-2.3c-2.5-0.8-4.5-1.6-6-2.5
			c-2.9-1.8-4.3-4.1-4.3-7c0-2.5,1-4.6,3.1-6.2c2.1-1.6,4.7-2.4,8-2.4c2.2,0,4.1,0.4,5.8,1.2c1.7,0.8,3,1.9,4,3.4
			c1,1.5,1.5,3.1,1.5,4.9h-5.4c0-1.6-0.5-2.9-1.5-3.8c-1-0.9-2.5-1.4-4.4-1.4c-1.8,0-3.2,0.4-4.1,1.1c-1,0.8-1.5,1.8-1.5,3.2
			c0,1.1,0.5,2.1,1.6,2.9c1.1,0.8,2.8,1.5,5.2,2.2c2.4,0.7,4.4,1.5,5.9,2.5c1.5,0.9,2.6,2,3.2,3.2c0.7,1.2,1,2.6,1,4.2
			c0,2.6-1,4.7-3,6.2c-2,1.5-4.7,2.3-8.1,2.3c-2.3,0-4.3-0.4-6.2-1.3c-1.9-0.8-3.4-2-4.4-3.5c-1.1-1.5-1.6-3.2-1.6-5.2h5.4
			c0,1.8,0.6,3.2,1.8,4.1c1.2,1,2.9,1.5,5,1.5c1.9,0,3.3-0.4,4.3-1.1C332.4,397.7,332.9,396.7,332.9,395.5z"/>
		<path id="XMLID_223_" class="st3" d="M365.7,376.6H356v26.9h-5.4v-26.9h-9.7v-4.4h24.8V376.6z"/>
		<path id="XMLID_225_" class="st3" d="M388.1,389.6h-12.8v9.6h15v4.3h-20.5v-31.3h20.3v4.4h-14.9v8.6h12.8V389.6z"/>
		<path id="XMLID_227_" class="st3" d="M406.2,391.5h-6.1v12h-5.4v-31.3h11c3.6,0,6.4,0.8,8.4,2.4c2,1.6,2.9,4,2.9,7
			c0,2.1-0.5,3.8-1.5,5.3c-1,1.4-2.4,2.5-4.2,3.3l7,13v0.3h-5.8L406.2,391.5z M400.1,387.1h5.6c1.8,0,3.3-0.5,4.3-1.4
			s1.5-2.2,1.5-3.8c0-1.7-0.5-3-1.4-3.9c-1-0.9-2.4-1.4-4.3-1.4h-5.7V387.1z"/>
		<path id="XMLID_230_" class="st3" d="M457.9,403.5h-5.4l-13.9-22.2v22.2h-5.4v-31.3h5.4l14,22.3v-22.3h5.4V403.5z"/>
		<path id="XMLID_232_" class="st3" d="M489.3,388.7c0,3.1-0.5,5.8-1.6,8.1c-1.1,2.3-2.6,4.1-4.5,5.3c-2,1.2-4.2,1.9-6.8,1.9
			c-2.5,0-4.8-0.6-6.8-1.9c-2-1.2-3.5-3-4.6-5.3c-1.1-2.3-1.6-4.9-1.6-7.9v-1.8c0-3.1,0.5-5.7,1.6-8.1c1.1-2.3,2.6-4.1,4.6-5.4
			c2-1.2,4.2-1.9,6.8-1.9c2.5,0,4.8,0.6,6.8,1.8c2,1.2,3.5,3,4.6,5.3s1.6,5,1.6,8V388.7z M483.9,387.1c0-3.5-0.7-6.1-2-8
			s-3.2-2.8-5.6-2.8c-2.3,0-4.2,0.9-5.5,2.8c-1.3,1.8-2,4.4-2,7.8v1.8c0,3.4,0.7,6.1,2,8c1.3,1.9,3.2,2.8,5.6,2.8
			c2.4,0,4.3-0.9,5.6-2.8c1.3-1.8,1.9-4.5,1.9-8V387.1z"/>
		<path id="XMLID_235_" class="st3" d="M519.3,395.8l4.8-23.5h5.4l-7.2,31.3h-5.2l-6-22.8l-6.1,22.8h-5.2l-7.2-31.3h5.4l4.9,23.5
			l6-23.5h4.6L519.3,395.8z"/>
		<path id="XMLID_237_" class="st3" d="M565.7,376.6H556v26.9h-5.4v-26.9h-9.7v-4.4h24.8V376.6z"/>
		<path id="XMLID_239_" class="st3" d="M594.2,388.7c0,3.1-0.5,5.8-1.6,8.1c-1.1,2.3-2.6,4.1-4.5,5.3c-2,1.2-4.2,1.9-6.8,1.9
			c-2.5,0-4.8-0.6-6.8-1.9c-2-1.2-3.5-3-4.6-5.3c-1.1-2.3-1.6-4.9-1.6-7.9v-1.8c0-3.1,0.5-5.7,1.6-8.1c1.1-2.3,2.6-4.1,4.6-5.4
			c2-1.2,4.2-1.9,6.8-1.9c2.5,0,4.8,0.6,6.8,1.8c2,1.2,3.5,3,4.6,5.3s1.6,5,1.6,8V388.7z M588.8,387.1c0-3.5-0.7-6.1-2-8
			s-3.2-2.8-5.6-2.8c-2.3,0-4.2,0.9-5.5,2.8c-1.3,1.8-2,4.4-2,7.8v1.8c0,3.4,0.7,6.1,2,8c1.3,1.9,3.2,2.8,5.6,2.8
			c2.4,0,4.3-0.9,5.6-2.8c1.3-1.8,1.9-4.5,1.9-8V387.1z"/>
		<path id="XMLID_242_" class="st3" d="M172.8,452.3c-1.1,1.5-2.7,2.6-4.7,3.4c-2,0.8-4.3,1.1-6.8,1.1c-2.6,0-4.9-0.6-7-1.8
			c-2-1.2-3.6-2.9-4.7-5.1s-1.7-4.8-1.7-7.7v-2.4c0-4.7,1.1-8.4,3.4-11.1c2.3-2.7,5.4-4,9.5-4c3.5,0,6.2,0.9,8.3,2.6
			c2,1.7,3.3,4.2,3.7,7.4h-5.3c-0.6-3.8-2.8-5.7-6.6-5.7c-2.4,0-4.3,0.9-5.6,2.6s-1.9,4.3-2,7.7v2.4c0,3.4,0.7,6,2.1,7.9
			c1.4,1.9,3.4,2.8,5.9,2.8c2.8,0,4.8-0.6,5.9-1.9v-6.1h-6.4v-4.1h11.9V452.3z"/>
		<path id="XMLID_244_" class="st3" d="M184.5,456.3h-5.4V425h5.4V456.3z"/>
		<path id="XMLID_246_" class="st3" d="M202.2,449.5l7.9-24.5h6l-11.3,31.3h-5.3L188.4,425h6L202.2,449.5z"/>
		<path id="XMLID_248_" class="st3" d="M237.9,442.4h-12.8v9.6h15v4.3h-20.5V425H240v4.4h-14.9v8.6h12.8V442.4z"/>
		<path id="XMLID_250_" class="st3" d="M271.8,448.3c0-1.4-0.5-2.4-1.5-3.2c-1-0.7-2.7-1.5-5.2-2.3c-2.5-0.8-4.5-1.6-6-2.5
			c-2.9-1.8-4.3-4.1-4.3-7c0-2.5,1-4.6,3.1-6.2c2.1-1.6,4.7-2.4,8-2.4c2.2,0,4.1,0.4,5.8,1.2c1.7,0.8,3,1.9,4,3.4
			c1,1.5,1.5,3.1,1.5,4.9h-5.4c0-1.6-0.5-2.9-1.5-3.8c-1-0.9-2.5-1.4-4.4-1.4c-1.8,0-3.2,0.4-4.1,1.1c-1,0.8-1.5,1.8-1.5,3.2
			c0,1.1,0.5,2.1,1.6,2.9c1.1,0.8,2.8,1.5,5.2,2.2c2.4,0.7,4.4,1.5,5.9,2.5c1.5,0.9,2.6,2,3.2,3.2c0.7,1.2,1,2.6,1,4.2
			c0,2.6-1,4.7-3,6.2c-2,1.5-4.7,2.3-8.1,2.3c-2.3,0-4.3-0.4-6.2-1.3c-1.9-0.8-3.4-2-4.4-3.5c-1.1-1.5-1.6-3.2-1.6-5.2h5.4
			c0,1.8,0.6,3.2,1.8,4.1c1.2,1,2.9,1.5,5,1.5c1.9,0,3.3-0.4,4.3-1.1C271.4,450.5,271.8,449.5,271.8,448.3z"/>
		<path id="XMLID_252_" class="st3" d="M307,441.5c0,3.1-0.5,5.8-1.6,8.1c-1.1,2.3-2.6,4.1-4.5,5.3c-2,1.2-4.2,1.9-6.8,1.9
			c-2.5,0-4.8-0.6-6.8-1.9c-2-1.2-3.5-3-4.6-5.3c-1.1-2.3-1.6-4.9-1.6-7.9v-1.8c0-3.1,0.5-5.7,1.6-8.1c1.1-2.3,2.6-4.1,4.6-5.4
			c2-1.2,4.2-1.9,6.8-1.9c2.5,0,4.8,0.6,6.8,1.8c2,1.2,3.5,3,4.6,5.3s1.6,5,1.6,8V441.5z M301.6,439.9c0-3.5-0.7-6.1-2-8
			s-3.2-2.8-5.6-2.8c-2.3,0-4.2,0.9-5.5,2.8c-1.3,1.8-2,4.4-2,7.8v1.8c0,3.4,0.7,6.1,2,8c1.3,1.9,3.2,2.8,5.6,2.8
			c2.4,0,4.3-0.9,5.6-2.8c1.3-1.8,1.9-4.5,1.9-8V439.9z"/>
		<path id="XMLID_255_" class="st3" d="M319.5,425l9,24l9-24h7v31.3h-5.4V446l0.5-13.8l-9.2,24.1h-3.9l-9.2-24.1l0.5,13.8v10.3h-5.4
			V425H319.5z"/>
		<path id="XMLID_257_" class="st3" d="M369.2,442.4h-12.8v9.6h15v4.3h-20.5V425h20.3v4.4h-14.9v8.6h12.8V442.4z"/>
		<path id="XMLID_259_" class="st3" d="M400.8,441.5c0,3.1-0.5,5.8-1.6,8.1c-1.1,2.3-2.6,4.1-4.5,5.3c-2,1.2-4.2,1.9-6.8,1.9
			c-2.5,0-4.8-0.6-6.8-1.9c-2-1.2-3.5-3-4.6-5.3c-1.1-2.3-1.6-4.9-1.6-7.9v-1.8c0-3.1,0.5-5.7,1.6-8.1c1.1-2.3,2.6-4.1,4.6-5.4
			c2-1.2,4.2-1.9,6.8-1.9c2.5,0,4.8,0.6,6.8,1.8c2,1.2,3.5,3,4.6,5.3s1.6,5,1.6,8V441.5z M395.4,439.9c0-3.5-0.7-6.1-2-8
			s-3.2-2.8-5.6-2.8c-2.3,0-4.2,0.9-5.5,2.8c-1.3,1.8-2,4.4-2,7.8v1.8c0,3.4,0.7,6.1,2,8c1.3,1.9,3.2,2.8,5.6,2.8
			c2.4,0,4.3-0.9,5.6-2.8c1.3-1.8,1.9-4.5,1.9-8V439.9z"/>
		<path id="XMLID_262_" class="st3" d="M431,456.3h-5.4l-13.9-22.2v22.2h-5.4V425h5.4l14,22.3V425h5.4V456.3z"/>
		<path id="XMLID_264_" class="st3" d="M455.7,442.4h-12.8v9.6h15v4.3h-20.5V425h20.3v4.4h-14.9v8.6h12.8V442.4z"/>
		<path id="XMLID_266_" class="st3" d="M490.8,449h-12.1l-2.5,7.3h-5.7l11.8-31.3h4.9l11.8,31.3h-5.7L490.8,449z M480.2,444.7h9.1
			l-4.5-13L480.2,444.7z"/>
		<path id="XMLID_269_" class="st3" d="M527.4,456.3h-5.4L508,434.1v22.2h-5.4V425h5.4l14,22.3V425h5.4V456.3z"/>
		<path id="XMLID_271_" class="st3" d="M558.8,441.5c0,3.1-0.5,5.8-1.6,8.1c-1.1,2.3-2.6,4.1-4.5,5.3c-2,1.2-4.2,1.9-6.8,1.9
			c-2.5,0-4.8-0.6-6.8-1.9c-2-1.2-3.5-3-4.6-5.3c-1.1-2.3-1.6-4.9-1.6-7.9v-1.8c0-3.1,0.5-5.7,1.6-8.1c1.1-2.3,2.6-4.1,4.6-5.4
			c2-1.2,4.2-1.9,6.8-1.9c2.5,0,4.8,0.6,6.8,1.8c2,1.2,3.5,3,4.6,5.3s1.6,5,1.6,8V441.5z M553.3,439.9c0-3.5-0.7-6.1-2-8
			s-3.2-2.8-5.6-2.8c-2.3,0-4.2,0.9-5.5,2.8c-1.3,1.8-2,4.4-2,7.8v1.8c0,3.4,0.7,6.1,2,8c1.3,1.9,3.2,2.8,5.6,2.8
			c2.4,0,4.3-0.9,5.6-2.8c1.3-1.8,1.9-4.5,1.9-8V439.9z"/>
		<path id="XMLID_274_" class="st3" d="M585,429.4h-9.8v26.9h-5.4v-26.9h-9.7V425H585V429.4z"/>
		<path id="XMLID_276_" class="st3" d="M613.9,456.3h-5.4v-13.9h-14v13.9h-5.4V425h5.4v13h14v-13h5.4V456.3z"/>
		<path id="XMLID_278_" class="st3" d="M638.6,442.4h-12.8v9.6h15v4.3h-20.5V425h20.3v4.4h-14.9v8.6h12.8V442.4z"/>
		<path id="XMLID_280_" class="st3" d="M656.7,444.3h-6.1v12h-5.4V425h11c3.6,0,6.4,0.8,8.4,2.4c2,1.6,2.9,4,2.9,7
			c0,2.1-0.5,3.8-1.5,5.3s-2.4,2.5-4.2,3.3l7,13v0.3H663L656.7,444.3z M650.6,439.9h5.6c1.8,0,3.3-0.5,4.3-1.4s1.5-2.2,1.5-3.8
			c0-1.7-0.5-3-1.4-3.9c-1-0.9-2.4-1.4-4.3-1.4h-5.7V439.9z"/>
		<path id="XMLID_283_" class="st3" d="M341.2,498.9c-0.3,3.3-1.5,5.9-3.7,7.8s-5,2.8-8.6,2.8c-2.5,0-4.7-0.6-6.6-1.8
			c-1.9-1.2-3.4-2.9-4.4-5c-1-2.2-1.6-4.7-1.6-7.6v-2.9c0-3,0.5-5.5,1.6-7.8c1-2.2,2.5-4,4.5-5.2c2-1.2,4.2-1.8,6.8-1.8
			c3.5,0,6.2,0.9,8.3,2.8s3.3,4.5,3.7,7.9h-5.4c-0.3-2.2-0.9-3.9-2-4.9c-1.1-1-2.6-1.5-4.6-1.5c-2.4,0-4.2,0.9-5.4,2.6
			s-1.9,4.3-1.9,7.6v2.8c0,3.4,0.6,6,1.8,7.7c1.2,1.8,3,2.7,5.3,2.7c2.1,0,3.7-0.5,4.8-1.4c1.1-1,1.8-2.6,2-4.8H341.2z"/>
		<path id="XMLID_285_" class="st3" d="M370.9,509.1h-5.4v-13.9h-14v13.9h-5.4v-31.3h5.4v13h14v-13h5.4V509.1z"/>
		<path id="XMLID_287_" class="st3" d="M395.2,501.8h-12.1l-2.5,7.3h-5.7l11.8-31.3h4.9l11.8,31.3h-5.7L395.2,501.8z M384.6,497.5
			h9.1l-4.5-13L384.6,497.5z"/>
		<path id="XMLID_290_" class="st3" d="M431.8,509.1h-5.4l-13.9-22.2v22.2H407v-31.3h5.4l14,22.3v-22.3h5.4V509.1z"/>
		<path id="XMLID_292_" class="st3" d="M462.1,498.9c-0.3,3.3-1.5,5.9-3.7,7.8s-5,2.8-8.6,2.8c-2.5,0-4.7-0.6-6.6-1.8
			c-1.9-1.2-3.4-2.9-4.4-5c-1-2.2-1.6-4.7-1.6-7.6v-2.9c0-3,0.5-5.5,1.6-7.8c1-2.2,2.5-4,4.5-5.2c2-1.2,4.2-1.8,6.8-1.8
			c3.5,0,6.2,0.9,8.3,2.8s3.3,4.5,3.7,7.9h-5.4c-0.3-2.2-0.9-3.9-2-4.9c-1.1-1-2.6-1.5-4.6-1.5c-2.4,0-4.2,0.9-5.4,2.6
			s-1.9,4.3-1.9,7.6v2.8c0,3.4,0.6,6,1.8,7.7c1.2,1.8,3,2.7,5.3,2.7c2.1,0,3.7-0.5,4.8-1.4c1.1-1,1.8-2.6,2-4.8H462.1z"/>
		<path id="XMLID_294_" class="st3" d="M485.2,495.2h-12.8v9.6h15v4.3H467v-31.3h20.3v4.4h-14.9v8.6h12.8V495.2z"/>
		<path id="XMLID_296_" class="st3" d="M494.6,503.6c1,0,1.7,0.3,2.3,0.8c0.5,0.6,0.8,1.2,0.8,2.1c0,0.8-0.3,1.5-0.8,2
			c-0.5,0.5-1.3,0.8-2.3,0.8c-0.9,0-1.7-0.3-2.2-0.8c-0.5-0.5-0.8-1.2-0.8-2c0-0.8,0.3-1.5,0.8-2.1
			C492.9,503.9,493.6,503.6,494.6,503.6z"/>
		<path id="XMLID_298_" class="st2" d="M151.6,663.5c-1.1,1.5-2.7,2.6-4.7,3.4c-2,0.8-4.3,1.1-6.8,1.1c-2.6,0-4.9-0.6-7-1.8
			c-2-1.2-3.6-2.9-4.7-5.1s-1.7-4.8-1.7-7.7v-2.4c0-4.7,1.1-8.4,3.4-11.1c2.3-2.7,5.4-4,9.5-4c3.5,0,6.2,0.9,8.3,2.6
			c2,1.7,3.3,4.2,3.7,7.4h-5.3c-0.6-3.8-2.8-5.7-6.6-5.7c-2.4,0-4.3,0.9-5.6,2.6s-1.9,4.3-2,7.7v2.4c0,3.4,0.7,6,2.1,7.9
			c1.4,1.9,3.4,2.8,5.9,2.8c2.8,0,4.8-0.6,5.9-1.9v-6.1h-6.4v-4.1h11.9V663.5z"/>
		<path id="XMLID_300_" class="st2" d="M163.3,667.5h-5.4v-31.3h5.4V667.5z"/>
		<path id="XMLID_302_" class="st2" d="M181,660.7l7.9-24.5h6l-11.3,31.3h-5.3l-11.2-31.3h6L181,660.7z"/>
		<path id="XMLID_304_" class="st2" d="M216.7,653.6h-12.8v9.6h15v4.3h-20.5v-31.3h20.3v4.4h-14.9v8.6h12.8V653.6z"/>
		<path id="XMLID_306_" class="st2" d="M251.8,660.2h-12.1l-2.5,7.3h-5.7l11.8-31.3h4.9l11.8,31.3h-5.7L251.8,660.2z M241.2,655.9
			h9.1l-4.5-13L241.2,655.9z"/>
		<path id="XMLID_309_" class="st2" d="M279.9,655.9v11.6h-5.4v-31.3h12c3.5,0,6.3,0.9,8.3,2.7c2.1,1.8,3.1,4.2,3.1,7.2
			c0,3.1-1,5.5-3,7.2c-2,1.7-4.8,2.6-8.5,2.6H279.9z M279.9,651.5h6.5c1.9,0,3.4-0.5,4.4-1.4c1-0.9,1.5-2.2,1.5-3.9
			c0-1.7-0.5-3-1.5-4s-2.4-1.5-4.3-1.6h-6.7V651.5z"/>
		<path id="XMLID_312_" class="st2" d="M308.4,667.5h-5.4v-31.3h5.4V667.5z"/>
		<path id="XMLID_314_" class="st2" d="M333.3,653.6h-12.8v9.6h15v4.3H315v-31.3h20.3v4.4h-14.9v8.6h12.8V653.6z"/>
		<path id="XMLID_316_" class="st2" d="M363.8,657.3c-0.3,3.3-1.5,5.9-3.7,7.8s-5,2.8-8.6,2.8c-2.5,0-4.7-0.6-6.6-1.8
			c-1.9-1.2-3.4-2.9-4.4-5c-1-2.2-1.6-4.7-1.6-7.6v-2.9c0-3,0.5-5.5,1.6-7.8c1-2.2,2.5-4,4.5-5.2c2-1.2,4.2-1.8,6.8-1.8
			c3.5,0,6.2,0.9,8.3,2.8s3.3,4.5,3.7,7.9h-5.4c-0.3-2.2-0.9-3.9-2-4.9c-1.1-1-2.6-1.5-4.6-1.5c-2.4,0-4.2,0.9-5.4,2.6
			s-1.9,4.3-1.9,7.6v2.8c0,3.4,0.6,6,1.8,7.7c1.2,1.8,3,2.7,5.3,2.7c2.1,0,3.7-0.5,4.8-1.4c1.1-1,1.8-2.6,2-4.8H363.8z"/>
		<path id="XMLID_318_" class="st2" d="M386.9,653.6h-12.8v9.6h15v4.3h-20.5v-31.3h20.3v4.4h-14.9v8.6h12.8V653.6z"/>
		<path id="XMLID_320_" class="st2" d="M429.4,652.7c0,3.1-0.5,5.8-1.6,8.1c-1.1,2.3-2.6,4.1-4.5,5.3c-2,1.2-4.2,1.9-6.8,1.9
			c-2.5,0-4.8-0.6-6.8-1.9c-2-1.2-3.5-3-4.6-5.3c-1.1-2.3-1.6-4.9-1.6-7.9v-1.8c0-3.1,0.5-5.7,1.6-8.1c1.1-2.3,2.6-4.1,4.6-5.4
			c2-1.2,4.2-1.9,6.8-1.9c2.5,0,4.8,0.6,6.8,1.8c2,1.2,3.5,3,4.6,5.3s1.6,5,1.6,8V652.7z M424,651.1c0-3.5-0.7-6.1-2-8
			s-3.2-2.8-5.6-2.8c-2.3,0-4.2,0.9-5.5,2.8c-1.3,1.8-2,4.4-2,7.8v1.8c0,3.4,0.7,6.1,2,8c1.3,1.9,3.2,2.8,5.6,2.8
			c2.4,0,4.3-0.9,5.6-2.8c1.3-1.8,1.9-4.5,1.9-8V651.1z"/>
		<path id="XMLID_323_" class="st2" d="M452.9,654.3h-12.6v13.3h-5.4v-31.3h19.9v4.4h-14.4v9.3h12.6V654.3z"/>
		<path id="XMLID_325_" class="st2" d="M480.2,651.1l7.2-14.8h6L482.9,656v11.5h-5.5V656L467,636.2h6L480.2,651.1z"/>
		<path id="XMLID_327_" class="st2" d="M521.1,652.7c0,3.1-0.5,5.8-1.6,8.1c-1.1,2.3-2.6,4.1-4.5,5.3c-2,1.2-4.2,1.9-6.8,1.9
			c-2.5,0-4.8-0.6-6.8-1.9c-2-1.2-3.5-3-4.6-5.3c-1.1-2.3-1.6-4.9-1.6-7.9v-1.8c0-3.1,0.5-5.7,1.6-8.1c1.1-2.3,2.6-4.1,4.6-5.4
			c2-1.2,4.2-1.9,6.8-1.9c2.5,0,4.8,0.6,6.8,1.8c2,1.2,3.5,3,4.6,5.3s1.6,5,1.6,8V652.7z M515.7,651.1c0-3.5-0.7-6.1-2-8
			s-3.2-2.8-5.6-2.8c-2.3,0-4.2,0.9-5.5,2.8c-1.3,1.8-2,4.4-2,7.8v1.8c0,3.4,0.7,6.1,2,8c1.3,1.9,3.2,2.8,5.6,2.8
			c2.4,0,4.3-0.9,5.6-2.8c1.3-1.8,1.9-4.5,1.9-8V651.1z"/>
		<path id="XMLID_330_" class="st2" d="M549.4,636.2v20.9c0,3.3-1.1,6-3.2,7.9c-2.1,1.9-5,2.9-8.5,2.9c-3.6,0-6.4-1-8.5-2.9
			s-3.2-4.6-3.2-8v-20.9h5.4v20.9c0,2.1,0.5,3.7,1.6,4.8c1.1,1.1,2.6,1.7,4.7,1.7c4.2,0,6.3-2.2,6.3-6.6v-20.8H549.4z"/>
		<path id="XMLID_332_" class="st2" d="M566.7,655.5h-6.1v12h-5.4v-31.3h11c3.6,0,6.4,0.8,8.4,2.4c2,1.6,2.9,4,2.9,7
			c0,2.1-0.5,3.8-1.5,5.3s-2.4,2.5-4.2,3.3l7,13v0.3H573L566.7,655.5z M560.7,651.1h5.6c1.8,0,3.3-0.5,4.3-1.4s1.5-2.2,1.5-3.8
			c0-1.7-0.5-3-1.4-3.9c-1-0.9-2.4-1.4-4.3-1.4h-5.7V651.1z"/>
		<path id="XMLID_335_" class="st2" d="M599,659.5c0-1.4-0.5-2.4-1.5-3.2c-1-0.7-2.7-1.5-5.2-2.3c-2.5-0.8-4.5-1.6-6-2.5
			c-2.9-1.8-4.3-4.1-4.3-7c0-2.5,1-4.6,3.1-6.2c2.1-1.6,4.7-2.4,8-2.4c2.2,0,4.1,0.4,5.8,1.2c1.7,0.8,3,1.9,4,3.4
			c1,1.5,1.5,3.1,1.5,4.9H599c0-1.6-0.5-2.9-1.5-3.8c-1-0.9-2.5-1.4-4.4-1.4c-1.8,0-3.2,0.4-4.1,1.1c-1,0.8-1.5,1.8-1.5,3.2
			c0,1.1,0.5,2.1,1.6,2.9c1.1,0.8,2.8,1.5,5.2,2.2c2.4,0.7,4.4,1.5,5.9,2.5c1.5,0.9,2.6,2,3.2,3.2c0.7,1.2,1,2.6,1,4.2
			c0,2.6-1,4.7-3,6.2c-2,1.5-4.7,2.3-8.1,2.3c-2.3,0-4.3-0.4-6.2-1.3c-1.9-0.8-3.4-2-4.4-3.5c-1.1-1.5-1.6-3.2-1.6-5.2h5.4
			c0,1.8,0.6,3.2,1.8,4.1c1.2,1,2.9,1.5,5,1.5c1.9,0,3.3-0.4,4.3-1.1C598.6,661.7,599,660.7,599,659.5z"/>
		<path id="XMLID_337_" class="st2" d="M627.5,653.6h-12.8v9.6h15v4.3h-20.5v-31.3h20.3v4.4h-14.9v8.6h12.8V653.6z"/>
		<path id="XMLID_339_" class="st2" d="M639.6,663.2h14.2v4.3h-19.6v-31.3h5.4V663.2z"/>
		<path id="XMLID_341_" class="st2" d="M676,654.3h-12.6v13.3h-5.4v-31.3h19.9v4.4h-14.4v9.3H676V654.3z"/>
		<path id="XMLID_343_" class="st2" d="M682,665.1c0-0.8,0.3-1.5,0.8-2c0.5-0.5,1.3-0.8,2.2-0.8c0.9,0,1.6,0.3,2.2,0.8
			c0.5,0.5,0.8,1.2,0.8,2c0,0.8-0.3,1.4-0.8,2s-1.2,0.8-2.2,0.8s-1.7-0.3-2.2-0.8S682,665.8,682,665.1z M687.1,658.3h-4.5l-0.5-22.1
			h5.5L687.1,658.3z"/>
	</g>
</g>
<g id="Layer_2">
</g>
<g id="Layer_3">
</g>
</svg>
