<?xml version="1.0" encoding="utf-8"?>
<!-- Generator: Adobe Illustrator 22.0.1, SVG Export Plug-In . SVG Version: 6.00 Build 0)  -->
<svg version="1.1" id="Layer_1" xmlns="http://www.w3.org/2000/svg" xmlns:xlink="http://www.w3.org/1999/xlink" x="0px" y="0px"
	 viewBox="0 0 44.4 44.4" style="enable-background:new 0 0 44.4 44.4;" xml:space="preserve">
<style type="text/css">
	.st0{fill:#FFFFFF;}
</style>
<path class="st0" d="M31.6,11.8h-2.8c-0.4,0-0.7,0.3-0.7,0.7v2.8c0,0.4,0.3,0.7,0.7,0.7h2.8c0.4,0,0.7-0.3,0.7-0.7v-2.8
	C32.4,12.1,32,11.8,31.6,11.8z"/>
<path class="st0" d="M33.4,33.5c-1.6,0-3.1,0-4.7,0c0-1.7,0-3.5,0-5.4c0-2.3,0.3-4.9-1.2-5.7c-0.8-0.4-1.8-0.3-2.4,0
	c-1.7,0.8-1.6,3.1-1.6,5.8c0,1.8,0,3.7,0,5.3c-1.6,0-3.1,0-4.7,0c0-5,0-10,0-15c1.5,0,3,0,4.5,0c0,0.7,0,1.4,0,2
	c0.2-0.1,0.2-0.3,0.4-0.5c0.8-1.1,2.2-2,4-2c2.3,0,3.9,0.8,4.8,2.3c0.9,1.6,0.9,3.7,0.9,6.2C33.4,28.8,33.4,31.3,33.4,33.5z
	 M12.1,16.1c-0.7-0.5-1.3-1.5-1.2-2.7c0.1-0.9,0.8-1.6,1.4-2c0.2-0.1,0.5-0.2,0.9-0.2c1.8-0.2,3.1,1,3.1,2.7
	C16.3,15.9,14,17.3,12.1,16.1z M16,33.5c-1.6,0-3.1,0-4.7,0c0-5,0-9.9,0-14.9v-0.1c1.6,0,3.1,0,4.7,0C16,23.5,16,28.5,16,33.5z
	 M22.2,0.1C9.9,0.1,0,10.1,0,22.3s9.9,22.2,22.2,22.2c12.2,0,22.2-9.9,22.2-22.2S34.4,0.1,22.2,0.1z"/>
</svg>
