<?xml version="1.0" encoding="utf-8"?>
<!-- Generator: Adobe Illustrator 21.1.0, SVG Export Plug-In . SVG Version: 6.00 Build 0)  -->
<svg version="1.1" id="Layer_1" xmlns="http://www.w3.org/2000/svg" xmlns:xlink="http://www.w3.org/1999/xlink" x="0px" y="0px"
	 viewBox="0 0 150 115.4" style="enable-background:new 0 0 150 115.4;" xml:space="preserve">
<style type="text/css">
	.st0{fill:#1BADB4;}
	.st1{fill:#FFFFFF;}
	.st2{fill:#393E46;stroke:#FFFFFF;stroke-width:2.7467;stroke-miterlimit:10;}
	.st3{fill:#EF4047;stroke:#FFFFFF;stroke-width:2.7467;stroke-miterlimit:10;}
</style>
<g>
	<path class="st0" d="M77.9,65.4c-1.3,4.7-4.1,8.4-7.9,11.3c-2.2,1.6-4.4,3.1-7,3.9c-2.2,0.7-4.4,1-6.5-0.5
		c-1.2-0.9-1.6-1.7-1.1-3.2c0.4-1.3,1.2-2.4,1.5-3.7c1-3.3-1.4-6.8-4.8-7c-1.7-0.1-3.3,0.5-4.5,1.7l-9.9,9.9L0.1,40.4L37.6,3
		l10.3,10.3c0,0,0,0,0,0c1,1.2,1.4,2.6,1.3,4.1c-0.2,3.4-3.7,5.8-7,4.8c-1.3-0.4-2.5-1.1-3.7-1.5c-1.4-0.5-2.3-0.1-3.2,1.1
		c-1.5,2.1-1.2,4.3-0.5,6.5c0.8,2.6,2.3,4.9,3.9,7c2.9,3.9,6.6,6.6,11.3,7.9c1.8,0.5,3.6,0.7,5.3-0.4c1.8-1.2,2.2-2.1,1.3-4.1
		c-0.4-1-1-2-1.3-3.1c-1.2-3.9,2.1-7.7,6.2-6.9c1.3,0.2,2.3,0.8,3.3,1.5L75,40.4l-10,10c-0.9,1-1.5,2.2-1.7,3.6
		c-0.8,4,2.9,7.4,6.9,6.2c1.1-0.3,2.1-0.9,3.1-1.3c2-0.9,2.9-0.5,4.1,1.3C78.5,61.8,78.4,63.6,77.9,65.4z"/>
	<path class="st1" d="M59.7,82.6c-1.4,0-2.8-0.3-4.2-1.3c-1.7-1.2-2.3-2.8-1.6-4.7c0.2-0.7,0.5-1.3,0.8-1.9c0.3-0.6,0.6-1.2,0.8-1.8
		c0.4-1.2,0.1-2.5-0.6-3.6c-0.7-1-1.8-1.6-3-1.7c-1.4-0.1-2.6,0.4-3.5,1.3L37.5,79.9L-1.9,40.4L37.6,1l11.4,11.4
		c1.2,1.4,1.7,3.1,1.6,5c-0.1,2-1.1,3.9-2.8,5.1c-1.8,1.2-3.9,1.6-6,1c-0.8-0.2-1.5-0.6-2.3-0.9c-0.5-0.2-1-0.5-1.6-0.7
		c-0.7-0.3-1-0.2-1.6,0.6c-1.1,1.5-0.9,3.2-0.3,5.3c0.7,2.3,2,4.3,3.7,6.6c2.9,3.9,6.4,6.3,10.6,7.4c1.9,0.5,3.1,0.4,4.2-0.3
		c1.3-0.8,1.4-1,0.8-2.4c-0.1-0.3-0.3-0.6-0.4-1c-0.3-0.7-0.7-1.5-0.9-2.3c-0.7-2.3-0.2-4.8,1.4-6.6c1.6-1.8,4-2.5,6.3-2.1
		c1.4,0.3,2.7,0.9,3.9,1.8l0.1,0.1L77,40.4L66.1,51.3c-0.7,0.9-1.2,1.9-1.4,2.9c-0.3,1.4,0.2,2.8,1.2,3.7c1.1,1,2.5,1.3,3.9,0.8
		c0.7-0.2,1.3-0.5,2-0.8c0.3-0.2,0.7-0.3,1-0.5c2.6-1.1,4.2-0.6,5.8,1.8c1.5,2.3,1.1,4.7,0.6,6.4l0,0c-1.3,4.8-4.1,8.8-8.4,12.1
		c-2.2,1.6-4.6,3.3-7.5,4.1C62.2,82.4,61,82.6,59.7,82.6z M51.7,64.9c0.1,0,0.3,0,0.4,0c2,0.1,3.9,1.1,5.1,2.8c1.2,1.7,1.6,3.9,1,6
		c-0.2,0.8-0.6,1.5-0.9,2.2c-0.3,0.5-0.5,1.1-0.7,1.6c-0.3,0.7-0.2,1,0.6,1.6c1.5,1.1,3.2,1,5.3,0.3c2.5-0.7,4.6-2.2,6.6-3.7
		c3.9-2.9,6.3-6.4,7.4-10.6v0c0.5-1.9,0.4-3.1-0.3-4.3c-0.8-1.3-1-1.3-2.4-0.8c-0.3,0.1-0.6,0.3-0.9,0.4c-0.7,0.3-1.5,0.7-2.3,0.9
		c-2.3,0.7-4.8,0.2-6.6-1.4c-1.8-1.6-2.5-4-2.1-6.3c0.3-1.5,1-2.9,2-4.2l0.1-0.1l9-9l-9.2-9.2c-0.9-0.6-1.7-1-2.7-1.2
		c-1.4-0.3-2.8,0.2-3.8,1.2c-0.9,1.1-1.3,2.5-0.8,3.9c0.2,0.6,0.5,1.3,0.8,1.9c0.2,0.3,0.3,0.7,0.5,1c1.1,2.6,0.6,4.2-1.8,5.8
		c-2.3,1.5-4.7,1.1-6.4,0.6c-4.8-1.3-8.8-4.1-12.1-8.4c-1.7-2.2-3.3-4.6-4.2-7.5c-0.7-2.4-1.2-5.1,0.7-7.7c1.3-1.7,2.8-2.2,4.7-1.6
		c0.6,0.2,1.2,0.5,1.8,0.8c0.6,0.3,1.3,0.6,1.9,0.8c1.2,0.4,2.5,0.1,3.6-0.6c1-0.7,1.6-1.8,1.7-3c0.1-1.2-0.3-2.2-1-3.1l-9.3-9.3
		L2,40.4L37.6,76l9-9C47.9,65.6,49.7,64.9,51.7,64.9z"/>
</g>
<path class="st2" d="M114.3,60c-0.9,1.2-1.7,1.6-3.2,1.1c-1.3-0.4-2.4-1.2-3.7-1.5c-3.3-1-6.8,1.4-7,4.8c0,0.6,0,1.1,0.1,1.6l12,12
	L75,115.4L37.6,77.9l9.9-9.9c1.2-1.2,2.8-1.8,4.5-1.7c3.4,0.2,5.8,3.7,4.8,7c-0.4,1.3-1.1,2.5-1.5,3.7c-0.5,1.4-0.1,2.3,1.1,3.2
	c2.1,1.5,4.3,1.2,6.5,0.5c2.6-0.8,4.9-2.3,7-3.9c3.9-2.9,6.7-6.6,7.9-11.3c0.5-1.8,0.7-3.6-0.4-5.3c-1.2-1.8-2.1-2.2-4.1-1.3
	c-1,0.4-2,1-3.1,1.3c-3.9,1.2-7.7-2.1-6.9-6.2c0.3-1.4,0.9-2.5,1.7-3.6l10-10l12.4,12.4c0.2,0.1,0.5,0.1,0.7,0.2
	c4,0.8,7.4-2.9,6.2-6.9C93.9,45,93.4,44,92.9,43c-0.9-2-0.5-2.9,1.3-4.1c1.7-1.1,3.5-0.9,5.3-0.4c4.7,1.3,8.4,4.1,11.3,7.9
	c1.6,2.2,3.1,4.4,3.9,7C115.5,55.7,115.8,57.9,114.3,60z"/>
<path class="st3" d="M150,40.4l-37.5,37.5l-12-12c-0.1-0.5-0.2-1.1-0.1-1.6c0.2-3.4,3.7-5.8,7-4.8c1.3,0.4,2.5,1.1,3.7,1.5
	c1.4,0.5,2.3,0.1,3.2-1.1c1.5-2.1,1.2-4.3,0.5-6.5c-0.8-2.6-2.3-4.9-3.9-7c-2.9-3.9-6.6-6.7-11.3-7.9c-1.8-0.5-3.6-0.7-5.3,0.4
	c-1.8,1.2-2.2,2.1-1.3,4.1c0.4,1,1,2,1.3,3.1c1.2,3.9-2.1,7.7-6.2,6.9c-0.2,0-0.5-0.1-0.7-0.2L75,40.4l12.1-12.1c0,0,0,0,0,0
	c0.1-0.3,0.2-0.7,0.3-1c0.8-4-3-7.4-6.9-6.2c-1.1,0.3-2.1,0.9-3.1,1.3c-2,0.9-2.9,0.5-4.1-1.3c-1.1-1.7-0.9-3.5-0.4-5.3
	c1.3-4.7,4.1-8.4,7.9-11.3c2.2-1.6,4.4-3.1,7-3.9c2.2-0.7,4.4-1,6.5,0.5C95.6,2,96,2.8,95.5,4.2C95,5.5,94.3,6.7,93.9,8
	c-1,3.3,1.4,6.8,4.8,7c0.7,0,1.3,0,1.9-0.2L112.5,3L150,40.4z"/>
</svg>
