<?xml version="1.0" encoding="utf-8"?>
<!-- Generator: Adobe Illustrator 19.0.0, SVG Export Plug-In . SVG Version: 6.00 Build 0)  -->
<svg version="1.1" id="Layer_1" xmlns="http://www.w3.org/2000/svg" xmlns:xlink="http://www.w3.org/1999/xlink" x="0px" y="0px"
	 viewBox="-62 335.5 486.8 122.5" style="enable-background:new -62 335.5 486.8 122.5;" xml:space="preserve">
<style type="text/css">
	.st0{fill:#1BADB4;}
	.st1{fill:#FFFFFF;}
	.st2{fill:#393E46;stroke:#FFFFFF;stroke-width:3;stroke-miterlimit:10;}
	.st3{fill:#EF4047;stroke:#FFFFFF;stroke-width:3;stroke-miterlimit:10;}
	.st4{fill:#393E46;}
</style>
<g>
	<g>
		<path class="st0" d="M20.8,405.1c-1.4,5.2-4.4,9.2-8.7,12.4c-2.4,1.8-4.8,3.4-7.7,4.3c-2.4,0.7-4.9,1.1-7.1-0.6
			c-1.3-0.9-1.7-1.9-1.2-3.5c0.5-1.4,1.3-2.7,1.7-4.1c1.1-3.6-1.5-7.5-5.3-7.6c-1.9-0.1-3.6,0.5-4.9,1.9l-10.9,10.9l-40.9-41
			l40.9-40.9l11.2,11.2l0,0c1,1.3,1.5,2.8,1.4,4.5c-0.2,3.8-4,6.3-7.6,5.3c-1.4-0.4-2.7-1.2-4.1-1.7c-1.6-0.5-2.5-0.1-3.5,1.2
			c-1.7,2.3-1.3,4.7-0.6,7.1c0.9,2.9,2.5,5.3,4.3,7.7c3.2,4.2,7.2,7.3,12.4,8.7c2,0.5,4,0.7,5.8-0.5c2-1.3,2.4-2.3,1.4-4.5
			c-0.5-1.1-1.1-2.2-1.5-3.4c-1.3-4.3,2.3-8.4,6.7-7.5c1.4,0.3,2.6,0.9,3.6,1.7l11.2,11.2L6.8,388.7c-0.9,1.1-1.6,2.4-1.9,3.9
			c-0.9,4.4,3.2,8,7.5,6.7c1.2-0.4,2.3-1,3.4-1.5c2.2-1,3.2-0.6,4.5,1.4C21.5,401.2,21.3,403.2,20.8,405.1z"/>
		<path class="st1" d="M1,423.9c-1.5,0-3-0.4-4.5-1.5c-1.9-1.4-2.5-3.1-1.7-5.2c0.2-0.7,0.6-1.4,0.8-2c0.3-0.7,0.6-1.3,0.8-2
			c0.4-1.3,0.1-2.7-0.7-3.9c-0.8-1.1-2-1.7-3.2-1.8c-1.5-0.1-2.8,0.4-3.8,1.4l-12,12l-43-43.1l43-43l12.4,12.4
			c1.3,1.5,1.9,3.4,1.8,5.5c-0.1,2.2-1.2,4.2-3.1,5.5c-1.9,1.4-4.3,1.8-6.5,1.1c-0.9-0.3-1.7-0.6-2.5-1c-0.6-0.3-1.1-0.5-1.7-0.7
			c-0.8-0.3-1.1-0.2-1.8,0.7c-1.2,1.7-1,3.5-0.3,5.8c0.8,2.5,2.2,4.7,4,7.2c3.2,4.2,7,6.9,11.6,8.1c2,0.6,3.4,0.5,4.6-0.3
			c1.4-0.9,1.5-1.1,0.8-2.6c-0.2-0.4-0.3-0.7-0.5-1.1c-0.4-0.8-0.8-1.6-1-2.5c-0.8-2.5-0.2-5.2,1.6-7.2c1.7-1.9,4.3-2.8,6.9-2.3
			c1.5,0.3,2.9,0.9,4.2,1.9l0.2,0.1l12.4,12.4L7.9,389.7c-0.8,1-1.3,2-1.5,3.2c-0.3,1.5,0.2,3.1,1.3,4.1c1.2,1,2.8,1.4,4.3,0.9
			c0.7-0.2,1.4-0.5,2.1-0.9c0.4-0.2,0.7-0.3,1.1-0.5c2.9-1.2,4.6-0.7,6.3,2c1.6,2.5,1.2,5.1,0.7,7c-1.4,5.2-4.5,9.7-9.2,13.2
			c-2.4,1.8-5,3.6-8.2,4.5C3.6,423.6,2.3,423.9,1,423.9z M-7.8,404.6c0.1,0,0.3,0,0.4,0c2.2,0.1,4.2,1.2,5.5,3.1
			c1.4,1.9,1.8,4.3,1.1,6.5c-0.3,0.9-0.6,1.7-1,2.4c-0.3,0.6-0.5,1.2-0.7,1.7c-0.3,0.8-0.2,1.1,0.6,1.8c1.7,1.2,3.5,1,5.8,0.3
			c2.7-0.8,5.1-2.4,7.2-4c4.2-3.2,6.9-7,8.1-11.6l0,0c0.6-2.1,0.5-3.4-0.3-4.6c-0.9-1.4-1.1-1.5-2.6-0.8c-0.4,0.2-0.7,0.3-1,0.5
			c-0.8,0.4-1.6,0.8-2.5,1c-2.5,0.8-5.2,0.2-7.2-1.6c-1.9-1.7-2.8-4.3-2.3-6.9c0.3-1.7,1-3.2,2.2-4.6l0.1-0.1l9.8-9.8l-10-10
			c-0.9-0.7-1.9-1.1-2.9-1.3c-1.5-0.3-3.1,0.2-4.1,1.3c-1,1.2-1.4,2.7-0.9,4.3c0.2,0.7,0.5,1.4,0.9,2.1c0.2,0.4,0.4,0.8,0.5,1.1
			c1.2,2.9,0.7,4.6-2,6.3c-2.6,1.6-5.2,1.2-7,0.7c-5.2-1.4-9.6-4.5-13.2-9.2c-1.8-2.4-3.6-5-4.5-8.2c-0.8-2.6-1.3-5.6,0.8-8.4
			c1.4-1.9,3.1-2.4,5.2-1.7c0.7,0.2,1.4,0.5,2,0.8c0.7,0.3,1.4,0.6,2,0.8c1.3,0.4,2.8,0.1,3.9-0.7c1.1-0.8,1.8-2,1.8-3.2
			c0.1-1.3-0.3-2.4-1-3.4L-23.3,339l-38.8,38.8l38.8,38.9l9.8-9.8C-12,405.4-10,404.6-7.8,404.6z"/>
	</g>
	<path class="st2" d="M60.6,399.2c-0.9,1.3-1.9,1.7-3.5,1.2c-1.4-0.5-2.7-1.3-4.1-1.7c-3.6-1.1-7.5,1.5-7.6,5.3c0,0.6,0,1.2,0.1,1.8
		l13.1,13.1l-40.9,40.8l-41-40.9l10.9-10.8c1.4-1.4,3.1-2,4.9-1.9c3.8,0.2,6.4,4,5.3,7.6c-0.4,1.4-1.2,2.7-1.7,4.1
		c-0.5,1.5-0.1,2.5,1.2,3.5c2.3,1.7,4.7,1.3,7.1,0.6c2.9-0.9,5.3-2.5,7.7-4.3c4.2-3.2,7.3-7.2,8.7-12.4c0.5-2,0.7-4-0.5-5.8
		c-1.3-2-2.2-2.4-4.5-1.4c-1.1,0.5-2.2,1.1-3.4,1.5c-4.3,1.3-8.4-2.3-7.5-6.7c0.3-1.5,1-2.8,1.9-3.9L17.7,378l13.5,13.5
		c0.2,0.1,0.5,0.2,0.8,0.2c4.4,0.9,8-3.2,6.7-7.5c-0.4-1.2-1-2.3-1.5-3.4c-0.9-2.2-0.6-3.2,1.4-4.5c1.9-1.2,3.9-1,5.8-0.5
		c5.2,1.4,9.2,4.4,12.4,8.7c1.8,2.4,3.4,4.8,4.3,7.7C61.9,394.5,62.2,396.9,60.6,399.2z"/>
	<path class="st3" d="M99.5,377.8l-40.9,40.9l-13.1-13c-0.1-0.6-0.2-1.2-0.1-1.8c0.2-3.8,4-6.4,7.6-5.3c1.4,0.4,2.7,1.2,4.1,1.7
		c1.6,0.5,2.5,0.1,3.5-1.2c1.7-2.3,1.3-4.7,0.6-7.1c-0.8-2.9-2.5-5.3-4.3-7.7c-3.2-4.2-7.2-7.3-12.4-8.7c-2-0.5-4-0.7-5.8,0.5
		c-2,1.3-2.4,2.2-1.4,4.5c0.5,1.1,1.1,2.2,1.5,3.4c1.3,4.3-2.3,8.4-6.7,7.5c-0.3,0-0.5-0.1-0.8-0.2l-13.6-13.5l13.2-13.2l0,0
		c0.1-0.4,0.2-0.8,0.3-1.1c0.8-4.4-3.2-8.1-7.5-6.7c-1.2,0.4-2.3,1-3.4,1.5c-2.2,1-3.2,0.6-4.5-1.4c-1.2-1.9-1-3.9-0.5-5.8
		c1.4-5.1,4.4-9.2,8.7-12.4c2.4-1.8,4.8-3.4,7.7-4.3c2.4-0.7,4.8-1.1,7.1,0.6c1.3,1,1.7,1.9,1.2,3.5c-0.5,1.4-1.3,2.7-1.7,4.1
		c-1.1,3.6,1.5,7.5,5.3,7.6c0.7,0,1.4,0,2.1-0.2l12.9-12.9L99.5,377.8z"/>
	<g>
		<path class="st4" d="M118.5,394.2c-1.5-1.8-2.3-4.6-2.3-8.2v-12.4c0-3.6,0.8-6.3,2.3-8.1c1.5-1.8,4.1-2.7,7.7-2.7
			c3.6,0,6.2,0.9,7.7,2.7c1.5,1.8,2.3,4.5,2.3,8.1v12.3c0,3.6-0.8,6.3-2.3,8.2c-1.5,1.8-4.1,2.8-7.7,2.8
			C122.5,396.9,120,396,118.5,394.2z M128.2,390.7c0.3-0.7,0.5-1.6,0.5-2.8v-16c0-1.2-0.2-2.2-0.5-2.9c-0.3-0.7-1-1-2-1
			s-1.6,0.3-2,1c-0.3,0.7-0.5,1.6-0.5,2.8v16c0,1.2,0.1,2.2,0.5,2.8c0.3,0.7,1,1,2,1C127.2,391.7,127.8,391.4,128.2,390.7z"/>
		<path class="st4" d="M140.6,363.2h5.2l6.8,16v-16h6.1v33.2h-5l-6.8-17.2v17.2h-6.3V363.2z"/>
		<path class="st4" d="M166.6,368.7h-5v-5.5h17.3v5.5h-5v27.8h-7.4L166.6,368.7L166.6,368.7z"/>
		<path class="st4" d="M185.1,363.2h8.4l6.2,33.2h-6.8l-1.1-7h-4.9l-1.1,7h-7L185.1,363.2z M191.1,385l-1.8-13l-1.8,13H191.1z"/>
		<path class="st4" d="M203,363.2h9.1c3.6,0,6.4,0.6,8.2,1.9c1.9,1.3,2.8,3.6,2.8,6.8c0,2.2-0.3,4-0.9,5.3s-1.6,2.3-3.2,3.1
			l4.6,16.1H216l-3.6-14.9h-2.1v14.9H203V363.2z M212.4,377.3c1.5,0,2.5-0.4,3.1-1.2c0.6-0.8,0.9-1.9,0.9-3.5c0-1.5-0.3-2.6-0.8-3.4
			s-1.5-1.1-2.8-1.1h-2.4v9.2H212.4z"/>
		<path class="st4" d="M227.6,363.2h7.3v33.2h-7.3V363.2z"/>
		<path class="st4" d="M241.8,394.2c-1.5-1.8-2.3-4.6-2.3-8.2v-12.4c0-3.6,0.8-6.3,2.3-8.1c1.5-1.8,4.1-2.7,7.7-2.7s6.2,0.9,7.7,2.7
			c1.5,1.8,2.3,4.5,2.3,8.1v12.3c0,3.6-0.8,6.3-2.3,8.2c-1.5,1.8-4.1,2.8-7.7,2.8S243.3,396,241.8,394.2z M251.5,390.7
			c0.3-0.7,0.5-1.6,0.5-2.8v-16c0-1.2-0.2-2.2-0.5-2.9c-0.3-0.7-1-1-2-1s-1.6,0.3-2,1c-0.3,0.7-0.5,1.6-0.5,2.8v16
			c0,1.2,0.2,2.2,0.5,2.8c0.3,0.7,1,1,2,1C250.5,391.7,251.2,391.4,251.5,390.7z"/>
		<path class="st4" d="M276.3,394.1c-1.5-1.9-2.3-4.6-2.3-8.2v-12c0-3.7,0.8-6.4,2.3-8.3s4.1-2.8,7.7-2.8c3.5,0,5.9,0.8,7.4,2.5
			c1.4,1.7,2.2,4,2.2,7.1v2.9h-7.2V372c0-1.3-0.1-2.3-0.4-3s-0.9-1-2-1c-1,0-1.7,0.4-2.1,1.1c-0.3,0.7-0.5,1.7-0.5,3v15.6
			c0,1.3,0.2,2.3,0.5,3s1,1,2,1s1.7-0.3,1.9-1c0.3-0.7,0.4-1.7,0.4-3v-3.5h7.2v2.9c0,3.1-0.7,5.5-2.2,7.3c-1.4,1.7-3.9,2.6-7.4,2.6
			C280.4,396.9,277.8,396,276.3,394.1z"/>
		<path class="st4" d="M299.4,394.2c-1.5-1.8-2.3-4.6-2.3-8.2v-12.4c0-3.6,0.8-6.3,2.3-8.1c1.5-1.8,4.1-2.7,7.7-2.7
			c3.6,0,6.2,0.9,7.7,2.7c1.5,1.8,2.3,4.5,2.3,8.1v12.3c0,3.6-0.8,6.3-2.3,8.2c-1.5,1.8-4.1,2.8-7.7,2.8
			C303.5,396.9,300.9,396,299.4,394.2z M309.1,390.7c0.3-0.7,0.5-1.6,0.5-2.8v-16c0-1.2-0.2-2.2-0.5-2.9c-0.3-0.7-1-1-2-1
			s-1.6,0.3-2,1c-0.3,0.7-0.5,1.6-0.5,2.8v16c0,1.2,0.2,2.2,0.5,2.8c0.3,0.7,1,1,2,1C308.1,391.7,308.8,391.4,309.1,390.7z"/>
		<path class="st4" d="M321.6,363.2h5.2l6.8,16v-16h6.1v33.2h-5l-6.9-17.2v17.2h-6.3L321.6,363.2L321.6,363.2z"/>
		<path class="st4" d="M344.6,363.2h5.2l6.8,16v-16h6.1v33.2h-5l-6.9-17.2v17.2h-6.3L344.6,363.2L344.6,363.2z"/>
		<path class="st4" d="M367.6,363.2h14.9v5h-7.6v8.2h5.8v5.1h-5.8v9.9h7.7v5h-15V363.2z"/>
		<path class="st4" d="M387.7,394.1c-1.5-1.9-2.3-4.6-2.3-8.2v-12c0-3.7,0.8-6.4,2.3-8.3s4.1-2.8,7.7-2.8c3.5,0,5.9,0.8,7.4,2.5
			c1.4,1.7,2.2,4,2.2,7.1v2.9h-7.2V372c0-1.3-0.1-2.3-0.4-3s-0.9-1-2-1c-1,0-1.7,0.4-2,1.1s-0.5,1.7-0.5,3v15.6c0,1.3,0.2,2.3,0.5,3
			s1,1,2,1s1.7-0.3,1.9-1c0.3-0.7,0.4-1.7,0.4-3v-3.5h7.2v2.9c0,3.1-0.7,5.5-2.2,7.3c-1.4,1.7-3.9,2.6-7.4,2.6
			C391.8,396.9,389.2,396,387.7,394.1z"/>
		<path class="st4" d="M412,368.7h-5v-5.5h17.3v5.5h-5v27.8h-7.4L412,368.7L412,368.7z"/>
	</g>
	<g>
		<path class="st0" d="M163.3,426.5c-0.4,0.7-1.1,1.1-2,1.4c-0.9,0.3-1.8,0.4-2.9,0.4s-2.1-0.2-2.9-0.8c-0.8-0.5-1.5-1.2-2-2.1
			s-0.7-2-0.7-3.2v-1c0-2,0.4-3.5,1.4-4.6c1-1.1,2.3-1.6,4-1.6c1.4,0,2.6,0.3,3.4,1.1c0.9,0.8,1.3,1.8,1.5,3.1h-2.2
			c-0.2-1.5-1.2-2.3-2.7-2.3c-1,0-1.8,0.3-2.3,1.1c-0.5,0.8-0.8,1.8-0.8,3.2v1c0,1.4,0.3,2.5,0.9,3.3s1.4,1.2,2.4,1.2
			c1.2,0,2-0.2,2.4-0.8v-2.7h-2.6v-1.8h4.9L163.3,426.5L163.3,426.5z"/>
		<path class="st0" d="M168.3,428.1h-2.2v-13h2.2V428.1z"/>
		<path class="st0" d="M175.6,425.3l3.3-10.2h2.5l-4.7,13h-2.2l-4.6-13h2.5L175.6,425.3z"/>
		<path class="st0" d="M190.5,422.3h-5.4v4h6.3v1.8h-8.5v-13h8.5v1.9h-6.2v3.6h5.4v1.8H190.5z"/>
		<path class="st0" d="M205.1,425.2H200l-1.1,3.1h-2.3l4.9-13h2l4.9,13h-2.3L205.1,425.2z M200.7,423.3h3.7l-1.9-5.4L200.7,423.3z"
			/>
		<path class="st0" d="M216.7,423.3v4.8h-2.3v-13h4.9c1.4,0,2.6,0.3,3.5,1.1s1.3,1.8,1.3,3c0,1.3-0.4,2.3-1.2,3
			c-0.9,0.7-2,1.1-3.5,1.1L216.7,423.3L216.7,423.3z M216.7,421.5h2.7c0.8,0,1.4-0.2,1.9-0.5c0.4-0.3,0.7-0.9,0.7-1.6
			c0-0.7-0.2-1.3-0.7-1.6c-0.4-0.3-1-0.7-1.8-0.7h-2.7v4.5H216.7z"/>
		<path class="st0" d="M228.6,428.1h-2.2v-13h2.2V428.1z"/>
		<path class="st0" d="M238.9,422.3h-5.4v4h6.3v1.8h-8.5v-13h8.5v1.9h-6.2v3.6h5.4v1.8H238.9z"/>
		<path class="st0" d="M251.7,423.9c-0.1,1.4-0.7,2.4-1.5,3.3s-2.1,1.2-3.5,1.2c-1,0-2-0.2-2.7-0.8c-0.8-0.4-1.4-1.2-1.9-2.1
			c-0.4-0.9-0.7-2-0.7-3.2v-1.2c0-1.2,0.2-2.3,0.7-3.3c0.4-1,1.1-1.6,1.9-2.2c0.8-0.5,1.8-0.8,2.9-0.8c1.4,0,2.6,0.4,3.5,1.2
			c0.9,0.8,1.4,1.9,1.5,3.3h-2.2c-0.1-1-0.3-1.6-0.8-2c-0.4-0.4-1.1-0.7-2-0.7c-1,0-1.8,0.3-2.3,1.1c-0.5,0.8-0.8,1.8-0.8,3.2v1.1
			c0,1.4,0.2,2.5,0.8,3.2s1.2,1.1,2.2,1.1c0.9,0,1.5-0.2,2-0.5c0.4-0.4,0.8-1.1,0.9-2H251.7z"/>
		<path class="st0" d="M261.3,422.3h-5.4v4h6.3v1.8h-8.5v-13h8.5v1.9H256v3.6h5.4v1.8H261.3z"/>
		<path class="st0" d="M279,422c0,1.3-0.2,2.4-0.7,3.4c-0.4,1-1.1,1.6-1.9,2.2c-0.8,0.5-1.8,0.8-2.9,0.8s-2-0.2-2.9-0.8
			c-0.9-0.5-1.4-1.2-1.9-2.2c-0.4-1-0.7-2.1-0.7-3.3v-0.8c0-1.3,0.2-2.4,0.7-3.4c0.4-1,1.1-1.8,1.9-2.2c0.8-0.4,1.8-0.8,2.9-0.8
			s2,0.2,2.9,0.8c0.8,0.5,1.4,1.2,1.9,2.2c0.4,1,0.7,2.1,0.7,3.3V422z M276.8,421.3c0-1.4-0.2-2.5-0.8-3.3c-0.5-0.8-1.3-1.1-2.3-1.1
			c-1,0-1.8,0.3-2.3,1.1c-0.5,0.8-0.9,1.9-0.9,3.3v0.8c0,1.4,0.3,2.5,0.9,3.3c0.5,0.8,1.3,1.2,2.3,1.2c1,0,1.8-0.3,2.3-1.1
			c0.5-0.8,0.8-1.9,0.8-3.3V421.3z"/>
		<path class="st0" d="M288.7,422.6h-5.3v5.5h-2.3v-13h8.2v1.9h-6v3.8h5.3v1.8H288.7z"/>
		<path class="st0" d="M300.1,421.3l3-6.2h2.5l-4.4,8.2v4.8H299v-4.8l-4.4-8.2h2.5L300.1,421.3z"/>
		<path class="st0" d="M317.1,422c0,1.3-0.2,2.4-0.7,3.4c-0.4,1-1.1,1.6-1.9,2.2c-0.8,0.5-1.8,0.8-2.9,0.8s-2-0.2-2.9-0.8
			c-0.9-0.5-1.4-1.2-1.9-2.2c-0.4-1-0.7-2.1-0.7-3.3v-0.8c0-1.3,0.2-2.4,0.7-3.4c0.4-1,1.1-1.8,1.9-2.2c0.8-0.4,1.8-0.8,2.9-0.8
			s2,0.2,2.9,0.8c0.8,0.5,1.4,1.2,1.9,2.2c0.4,1,0.7,2.1,0.7,3.3V422z M314.9,421.3c0-1.4-0.2-2.5-0.8-3.3c-0.5-0.8-1.3-1.1-2.3-1.1
			c-1,0-1.8,0.3-2.3,1.1c-0.5,0.8-0.9,1.9-0.9,3.3v0.8c0,1.4,0.3,2.5,0.9,3.3c0.5,0.8,1.3,1.2,2.3,1.2c1,0,1.8-0.3,2.3-1.1
			c0.5-0.8,0.8-1.9,0.8-3.3V421.3z"/>
		<path class="st0" d="M329,415.2v8.7c0,1.4-0.4,2.5-1.3,3.3c-0.9,0.8-2.1,1.2-3.5,1.2c-1.5,0-2.6-0.4-3.5-1.2
			c-0.9-0.8-1.3-1.9-1.3-3.3v-8.7h2.2v8.7c0,0.9,0.2,1.5,0.7,2s1.1,0.7,2,0.7c1.8,0,2.6-0.9,2.6-2.7V415h2.2V415.2z"/>
		<path class="st0" d="M336.1,423.2h-2.5v5.1h-2.3v-13h4.6c1.5,0,2.6,0.3,3.5,1c0.9,0.7,1.2,1.6,1.2,3c0,0.9-0.2,1.6-0.7,2.2
			c-0.4,0.5-1,1-1.8,1.3l3,5.4v0.1h-2.4L336.1,423.2z M333.6,421.3h2.3c0.8,0,1.3-0.2,1.8-0.5c0.4-0.3,0.7-0.9,0.7-1.5
			s-0.2-1.2-0.5-1.6c-0.4-0.3-1-0.5-1.8-0.5h-2.4V421.3z"/>
		<path class="st0" d="M349.5,424.8c0-0.5-0.2-1-0.5-1.3c-0.4-0.3-1.1-0.7-2.2-1s-1.9-0.7-2.5-1.1c-1.2-0.8-1.8-1.8-1.8-3
			c0-1.1,0.4-1.9,1.3-2.6c0.9-0.7,2-1,3.3-1c0.9,0,1.8,0.2,2.4,0.5c0.7,0.3,1.3,0.8,1.6,1.4c0.4,0.7,0.7,1.3,0.7,2.1h-2.2
			c0-0.7-0.2-1.2-0.7-1.6c-0.4-0.3-1-0.5-1.9-0.5c-0.8,0-1.3,0.1-1.8,0.4c-0.4,0.3-0.7,0.8-0.7,1.3c0,0.4,0.2,0.9,0.7,1.2
			c0.4,0.3,1.2,0.7,2.2,0.9c1,0.3,1.9,0.7,2.4,1c0.5,0.3,1.1,0.9,1.3,1.3c0.3,0.5,0.4,1.1,0.4,1.8c0,1.1-0.4,2-1.2,2.6
			c-0.8,0.7-2,1-3.4,1c-1,0-1.8-0.2-2.6-0.5c-0.8-0.3-1.4-0.9-1.9-1.4c-0.4-0.7-0.7-1.3-0.7-2.2h2.3c0,0.8,0.2,1.3,0.8,1.8
			c0.4,0.4,1.2,0.7,2.1,0.7c0.8,0,1.4-0.1,1.8-0.4C349.4,425.7,349.5,425.3,349.5,424.8z"/>
		<path class="st0" d="M361.4,422.3h-5.3v4h6.3v1.8h-8.5v-13h8.5v1.9h-6.3v3.6h5.4v1.8H361.4z"/>
		<path class="st0" d="M366.5,426.4h5.9v1.8h-8.1v-13h2.3v11.2H366.5z"/>
		<path class="st0" d="M381.6,422.6h-5.3v5.5H374v-13h8.2v1.9h-6v3.8h5.3v1.8H381.6z"/>
	</g>
</g>
</svg>
