<?xml version="1.0" encoding="utf-8"?>
<!-- Generator: Adobe Illustrator 21.1.0, SVG Export Plug-In . SVG Version: 6.00 Build 0)  -->
<svg version="1.1" id="Layer_1" xmlns="http://www.w3.org/2000/svg" xmlns:xlink="http://www.w3.org/1999/xlink" x="0px" y="0px"
	 viewBox="0 0 486.8 122.5" style="enable-background:new 0 0 486.8 122.5;" xml:space="preserve">
<style type="text/css">
	.st0{fill:#1BADB4;}
	.st1{fill:#FFFFFF;}
	.st2{fill:#393E46;stroke:#FFFFFF;stroke-width:3;stroke-miterlimit:10;}
	.st3{fill:#EF4047;stroke:#FFFFFF;stroke-width:3;stroke-miterlimit:10;}
	.st4{fill:#393E46;}
</style>
<g>
	<g>
		<path class="st0" d="M83,70.4c-1.4,5.2-4.4,9.2-8.7,12.4c-2.4,1.8-4.8,3.4-7.7,4.3c-2.4,0.7-4.9,1.1-7.1-0.6
			c-1.3-0.9-1.7-1.9-1.2-3.5c0.5-1.4,1.3-2.7,1.7-4.1c1.1-3.6-1.5-7.5-5.3-7.6c-1.9-0.1-3.6,0.5-4.9,1.9L38.9,84.1L-2,43.1L38.9,2.2
			l11.2,11.2c0,0,0,0,0,0c1,1.3,1.5,2.8,1.4,4.5c-0.2,3.8-4,6.3-7.6,5.3c-1.4-0.4-2.7-1.2-4.1-1.7c-1.6-0.5-2.5-0.1-3.5,1.2
			c-1.7,2.3-1.3,4.7-0.6,7.1c0.9,2.9,2.5,5.3,4.3,7.7c3.2,4.2,7.2,7.3,12.4,8.7c2,0.5,4,0.7,5.8-0.5c2-1.3,2.4-2.3,1.4-4.5
			c-0.5-1.1-1.1-2.2-1.5-3.4c-1.3-4.3,2.3-8.4,6.7-7.5c1.4,0.3,2.6,0.9,3.6,1.7l11.2,11.2L69,54c-0.9,1.1-1.6,2.4-1.9,3.9
			c-0.9,4.4,3.2,8,7.5,6.7c1.2-0.4,2.3-1,3.4-1.5c2.2-1,3.2-0.6,4.5,1.4C83.7,66.5,83.5,68.5,83,70.4z"/>
		<path class="st1" d="M63.2,89.2c-1.5,0-3-0.4-4.5-1.5c-1.9-1.4-2.5-3.1-1.7-5.2c0.2-0.7,0.6-1.4,0.8-2c0.3-0.7,0.6-1.3,0.8-2
			c0.4-1.3,0.1-2.7-0.7-3.9c-0.8-1.1-2-1.7-3.2-1.8c-1.5-0.1-2.8,0.4-3.8,1.4L38.9,86.2L-4.1,43.1L38.9,0.1l12.4,12.4
			c1.3,1.5,1.9,3.4,1.8,5.5c-0.1,2.2-1.2,4.2-3.1,5.5c-1.9,1.4-4.3,1.8-6.5,1.1c-0.9-0.3-1.7-0.6-2.5-1c-0.6-0.3-1.1-0.5-1.7-0.7
			c-0.8-0.3-1.1-0.2-1.8,0.7c-1.2,1.7-1,3.5-0.3,5.8c0.8,2.5,2.2,4.7,4,7.2c3.2,4.2,7,6.9,11.6,8.1c2,0.6,3.4,0.5,4.6-0.3
			c1.4-0.9,1.5-1.1,0.8-2.6c-0.2-0.4-0.3-0.7-0.5-1.1c-0.4-0.8-0.8-1.6-1-2.5c-0.8-2.5-0.2-5.2,1.6-7.2c1.7-1.9,4.3-2.8,6.9-2.3
			c1.5,0.3,2.9,0.9,4.2,1.9l0.2,0.1L82,43.1L70.1,55c-0.8,1-1.3,2-1.5,3.2c-0.3,1.5,0.2,3.1,1.3,4.1c1.2,1,2.8,1.4,4.3,0.9
			c0.7-0.2,1.4-0.5,2.1-0.9c0.4-0.2,0.7-0.3,1.1-0.5c2.9-1.2,4.6-0.7,6.3,2c1.6,2.5,1.2,5.1,0.7,7C83,76,79.9,80.5,75.2,84
			c-2.4,1.8-5,3.6-8.2,4.5C65.8,88.9,64.5,89.2,63.2,89.2z M54.4,69.9c0.1,0,0.3,0,0.4,0c2.2,0.1,4.2,1.2,5.5,3.1
			c1.4,1.9,1.8,4.3,1.1,6.5c-0.3,0.9-0.6,1.7-1,2.4c-0.3,0.6-0.5,1.2-0.7,1.7c-0.3,0.8-0.2,1.1,0.6,1.8c1.7,1.2,3.5,1,5.8,0.3
			c2.7-0.8,5.1-2.4,7.2-4c4.2-3.2,6.9-7,8.1-11.6v0c0.6-2.1,0.5-3.4-0.3-4.6c-0.9-1.4-1.1-1.5-2.6-0.8c-0.4,0.2-0.7,0.3-1,0.5
			c-0.8,0.4-1.6,0.8-2.5,1c-2.5,0.8-5.2,0.2-7.2-1.6c-1.9-1.7-2.8-4.3-2.3-6.9c0.3-1.7,1-3.2,2.2-4.6l0.1-0.1l9.8-9.8l-10-10
			c-0.9-0.7-1.9-1.1-2.9-1.3c-1.5-0.3-3.1,0.2-4.1,1.3c-1,1.2-1.4,2.7-0.9,4.3c0.2,0.7,0.5,1.4,0.9,2.1c0.2,0.4,0.4,0.8,0.5,1.1
			c1.2,2.9,0.7,4.6-2,6.3c-2.6,1.6-5.2,1.2-7,0.7c-5.2-1.4-9.6-4.5-13.2-9.2c-1.8-2.4-3.6-5-4.5-8.2c-0.8-2.6-1.3-5.6,0.8-8.4
			c1.4-1.9,3.1-2.4,5.2-1.7c0.7,0.2,1.4,0.5,2,0.8c0.7,0.3,1.4,0.6,2,0.8c1.3,0.4,2.8,0.1,3.9-0.7c1.1-0.8,1.8-2,1.8-3.2
			c0.1-1.3-0.3-2.4-1-3.4L38.9,4.3L0.1,43.1L38.9,82l9.8-9.8C50.2,70.7,52.2,69.9,54.4,69.9z"/>
	</g>
	<path class="st2" d="M122.8,64.5c-0.9,1.3-1.9,1.7-3.5,1.2c-1.4-0.5-2.7-1.3-4.1-1.7c-3.6-1.1-7.5,1.5-7.6,5.3c0,0.6,0,1.2,0.1,1.8
		l13.1,13.1L79.9,125L38.9,84.1l10.9-10.8c1.4-1.4,3.1-2,4.9-1.9c3.8,0.2,6.4,4,5.3,7.6c-0.4,1.4-1.2,2.7-1.7,4.1
		c-0.5,1.5-0.1,2.5,1.2,3.5c2.3,1.7,4.7,1.3,7.1,0.6c2.9-0.9,5.3-2.5,7.7-4.3c4.2-3.2,7.3-7.2,8.7-12.4c0.5-2,0.7-4-0.5-5.8
		c-1.3-2-2.2-2.4-4.5-1.4c-1.1,0.5-2.2,1.1-3.4,1.5c-4.3,1.3-8.4-2.3-7.5-6.7c0.3-1.5,1-2.8,1.9-3.9l10.9-10.9l13.5,13.5
		c0.2,0.1,0.5,0.2,0.8,0.2c4.4,0.9,8-3.2,6.7-7.5c-0.4-1.2-1-2.3-1.5-3.4c-0.9-2.2-0.6-3.2,1.4-4.5c1.9-1.2,3.9-1,5.8-0.5
		c5.2,1.4,9.2,4.4,12.4,8.7c1.8,2.4,3.4,4.8,4.3,7.7C124.1,59.8,124.4,62.2,122.8,64.5z"/>
	<path class="st3" d="M161.7,43.1l-40.9,40.9L107.7,71c-0.1-0.6-0.2-1.2-0.1-1.8c0.2-3.8,4-6.4,7.6-5.3c1.4,0.4,2.7,1.2,4.1,1.7
		c1.6,0.5,2.5,0.1,3.5-1.2c1.7-2.3,1.3-4.7,0.6-7.1c-0.8-2.9-2.5-5.3-4.3-7.7c-3.2-4.2-7.2-7.3-12.4-8.7c-2-0.5-4-0.7-5.8,0.5
		c-2,1.3-2.4,2.2-1.4,4.5c0.5,1.1,1.1,2.2,1.5,3.4c1.3,4.3-2.3,8.4-6.7,7.5c-0.3,0-0.5-0.1-0.8-0.2L79.9,43.1l13.2-13.2c0,0,0,0,0,0
		c0.1-0.4,0.2-0.8,0.3-1.1c0.8-4.4-3.2-8.1-7.5-6.7c-1.2,0.4-2.3,1-3.4,1.5c-2.2,1-3.2,0.6-4.5-1.4c-1.2-1.9-1-3.9-0.5-5.8
		c1.4-5.1,4.4-9.2,8.7-12.4c2.4-1.8,4.8-3.4,7.7-4.3c2.4-0.7,4.8-1.1,7.1,0.6c1.3,1,1.7,1.9,1.2,3.5c-0.5,1.4-1.3,2.7-1.7,4.1
		c-1.1,3.6,1.5,7.5,5.3,7.6c0.7,0,1.4,0,2.1-0.2l12.9-12.9L161.7,43.1z"/>
	<g>
		<path class="st4" d="M180.7,72.5c-1.5-1.8-2.3-4.6-2.3-8.2V51.9c0-3.6,0.8-6.3,2.3-8.1c1.5-1.8,4.1-2.7,7.7-2.7
			c3.6,0,6.2,0.9,7.7,2.7c1.5,1.8,2.3,4.5,2.3,8.1v12.3c0,3.6-0.8,6.3-2.3,8.2c-1.5,1.8-4.1,2.8-7.7,2.8
			C184.7,75.2,182.2,74.3,180.7,72.5z M190.4,69c0.3-0.7,0.5-1.6,0.5-2.8v-16c0-1.2-0.2-2.2-0.5-2.9c-0.3-0.7-1-1-2-1
			c-1,0-1.6,0.3-2,1c-0.3,0.7-0.5,1.6-0.5,2.8v16c0,1.2,0.1,2.2,0.5,2.8c0.3,0.7,1,1,2,1C189.4,70,190,69.7,190.4,69z"/>
		<path class="st4" d="M202.8,41.5h5.2l6.8,16v-16h6.1v33.2h-5l-6.8-17.2v17.2h-6.3V41.5z"/>
		<path class="st4" d="M228.8,47h-5v-5.5h17.3V47h-5v27.8h-7.4V47z"/>
		<path class="st4" d="M247.3,41.5h8.4l6.2,33.2h-6.8l-1.1-7h-4.9l-1.1,7H241L247.3,41.5z M253.3,63.3l-1.8-13l-1.8,13H253.3z"/>
		<path class="st4" d="M265.2,41.5h9.1c3.6,0,6.4,0.6,8.2,1.9c1.9,1.3,2.8,3.6,2.8,6.8c0,2.2-0.3,4-0.9,5.3s-1.6,2.3-3.2,3.1
			l4.6,16.1h-7.6l-3.6-14.9h-2.1v14.9h-7.3V41.5z M274.6,55.6c1.5,0,2.5-0.4,3.1-1.2c0.6-0.8,0.9-1.9,0.9-3.5c0-1.5-0.3-2.6-0.8-3.4
			c-0.5-0.8-1.5-1.1-2.8-1.1h-2.4v9.2H274.6z"/>
		<path class="st4" d="M289.8,41.5h7.3v33.2h-7.3V41.5z"/>
		<path class="st4" d="M304,72.5c-1.5-1.8-2.3-4.6-2.3-8.2V51.9c0-3.6,0.8-6.3,2.3-8.1c1.5-1.8,4.1-2.7,7.7-2.7
			c3.6,0,6.2,0.9,7.7,2.7c1.5,1.8,2.3,4.5,2.3,8.1v12.3c0,3.6-0.8,6.3-2.3,8.2c-1.5,1.8-4.1,2.8-7.7,2.8
			C308.1,75.2,305.5,74.3,304,72.5z M313.7,69c0.3-0.7,0.5-1.6,0.5-2.8v-16c0-1.2-0.2-2.2-0.5-2.9c-0.3-0.7-1-1-2-1
			c-1,0-1.6,0.3-2,1c-0.3,0.7-0.5,1.6-0.5,2.8v16c0,1.2,0.2,2.2,0.5,2.8c0.3,0.7,1,1,2,1C312.7,70,313.4,69.7,313.7,69z"/>
		<path class="st4" d="M338.5,72.4c-1.5-1.9-2.3-4.6-2.3-8.2v-12c0-3.7,0.8-6.4,2.3-8.3c1.5-1.9,4.1-2.8,7.7-2.8
			c3.5,0,5.9,0.8,7.4,2.5c1.4,1.7,2.2,4,2.2,7.1v2.9h-7.2v-3.3c0-1.3-0.1-2.3-0.4-3c-0.3-0.7-0.9-1-2-1c-1,0-1.7,0.4-2.1,1.1
			c-0.3,0.7-0.5,1.7-0.5,3V66c0,1.3,0.2,2.3,0.5,3c0.3,0.7,1,1,2,1c1,0,1.7-0.3,1.9-1c0.3-0.7,0.4-1.7,0.4-3v-3.5h7.2v2.9
			c0,3.1-0.7,5.5-2.2,7.3c-1.4,1.7-3.9,2.6-7.4,2.6C342.6,75.2,340,74.3,338.5,72.4z"/>
		<path class="st4" d="M361.6,72.5c-1.5-1.8-2.3-4.6-2.3-8.2V51.9c0-3.6,0.8-6.3,2.3-8.1c1.5-1.8,4.1-2.7,7.7-2.7
			c3.6,0,6.2,0.9,7.7,2.7c1.5,1.8,2.3,4.5,2.3,8.1v12.3c0,3.6-0.8,6.3-2.3,8.2c-1.5,1.8-4.1,2.8-7.7,2.8
			C365.7,75.2,363.1,74.3,361.6,72.5z M371.3,69c0.3-0.7,0.5-1.6,0.5-2.8v-16c0-1.2-0.2-2.2-0.5-2.9c-0.3-0.7-1-1-2-1
			c-1,0-1.6,0.3-2,1c-0.3,0.7-0.5,1.6-0.5,2.8v16c0,1.2,0.2,2.2,0.5,2.8c0.3,0.7,1,1,2,1C370.3,70,371,69.7,371.3,69z"/>
		<path class="st4" d="M383.8,41.5h5.2l6.8,16v-16h6.1v33.2h-5L390,57.5v17.2h-6.3V41.5z"/>
		<path class="st4" d="M406.8,41.5h5.2l6.8,16v-16h6.1v33.2h-5L413,57.5v17.2h-6.3V41.5z"/>
		<path class="st4" d="M429.8,41.5h14.9v5h-7.6v8.2h5.8v5.1h-5.8v9.9h7.7v5h-15V41.5z"/>
		<path class="st4" d="M449.9,72.4c-1.5-1.9-2.3-4.6-2.3-8.2v-12c0-3.7,0.8-6.4,2.3-8.3c1.5-1.9,4.1-2.8,7.7-2.8
			c3.5,0,5.9,0.8,7.4,2.5c1.4,1.7,2.2,4,2.2,7.1v2.9H460v-3.3c0-1.3-0.1-2.3-0.4-3c-0.3-0.7-0.9-1-2-1c-1,0-1.7,0.4-2,1.1
			c-0.3,0.7-0.5,1.7-0.5,3V66c0,1.3,0.2,2.3,0.5,3c0.3,0.7,1,1,2,1c1,0,1.7-0.3,1.9-1c0.3-0.7,0.4-1.7,0.4-3v-3.5h7.2v2.9
			c0,3.1-0.7,5.5-2.2,7.3c-1.4,1.7-3.9,2.6-7.4,2.6C454,75.2,451.4,74.3,449.9,72.4z"/>
		<path class="st4" d="M474.2,47h-5v-5.5h17.3V47h-5v27.8h-7.4V47z"/>
	</g>
</g>
</svg>
