<?xml version="1.0" encoding="utf-8"?>
<!-- Generator: Adobe Illustrator 19.0.0, SVG Export Plug-In . SVG Version: 6.00 Build 0)  -->
<svg version="1.1" id="Layer_1" xmlns="http://www.w3.org/2000/svg" xmlns:xlink="http://www.w3.org/1999/xlink" x="0px" y="0px"
	 viewBox="-235 332.1 139.4 128.9" style="enable-background:new -235 332.1 139.4 128.9;" xml:space="preserve">
<style type="text/css">
	.st0{fill:#EC424C;}
	.st1{opacity:0.1;fill:#EC424C;enable-background:new    ;}
	.st2{opacity:0.5;fill:#EC424C;enable-background:new    ;}
</style>
<g>
	<path class="st0" d="M-161.9,359.5c-0.9-7.2,0.4-19,0.4-19h-4h-1.3h-4c0,0,0.7,11.8-0.2,19c-0.9,7.2-12,9.5-12,9.5v10.3
		c9.7-0.2,15.4-7.2,16.3-8.7c0.9,1.4,6.3,8.5,16,8.7V369C-150.5,369-161,366.7-161.9,359.5z"/>
	<path class="st0" d="M-153.8,358.3c0,0,3.2,44.5,0,50.8c-3.2,6.4-10.3,35.8,12.4,35.4c0,0,34,9,35.4-15.7
		c1.4-24.7-0.4-45.5-13.4-56.8C-132.5,360.7-154.6,344.2-153.8,358.3z"/>
	<path class="st0" d="M-178.5,358.3c0,0-3.2,44.5,0,50.8c3.2,6.4,10.3,35.8-12.4,35.4c0,0-34,9-35.4-15.7
		c-1.4-24.7,0.3-45.4,13.4-56.8C-199.8,360.7-177.7,344.2-178.5,358.3z"/>
	<path class="st1" d="M-119.4,372c-7.2-6.2-17-14-24.3-17.4c2.8,2.2,5.7,4.4,7.8,6.6c4.9,4.9,9.5,10.3,13,16.2
		c6.3,10.7,11.5,22.7,12.9,34.9c1,9,0.3,22.9-5.9,31.6c5.3-2.3,9.5-6.8,10-15.1C-104.6,404.1-106.3,383.4-119.4,372z"/>
	<path class="st1" d="M-178.5,409.1c-3.2-6.4,0-50.8,0-50.8c0.1-0.9,0-1.7-0.1-2.3c-1.4,7-3.6,13.9-5.4,20.7
		c-2.8,10.6-3,21.1-0.7,31.8c2.4,11.6,5.6,22.5,3.7,33.5C-170.8,434.7-175.9,414.3-178.5,409.1z"/>
	<path class="st2" d="M-193.7,363.5c-8.6,7-16.7,13-21.4,23c-5,10.4-6.9,21.6-6.7,32.9c0.1,3.9,6.2,4.1,6.4,0.2
		c0.5-9.8,1.6-19.2,4.8-28.6c3.7-10.4,11.6-17.7,18.2-26.4C-191.8,363.8-193,362.9-193.7,363.5z"/>
	<path class="st2" d="M-167.4,345.6c0-0.4-0.8-0.7-0.9-0.1c-0.9,4.4-0.7,9-1.1,13.4c-0.1,1.4,2.1,1.4,2.3,0.1
		C-166.4,354.6-166.9,349.9-167.4,345.6z"/>
	<path class="st2" d="M-170.7,363.9c-2.2,1.8-4,3.8-6.4,5.3c-0.6,0.4-0.3,1.4,0.5,1.2c2.9-1,6.6-2.5,7.5-5.6
		C-169,364-170,363.3-170.7,363.9z"/>
</g>
</svg>
