<?xml version="1.0" encoding="utf-8"?>
<!-- Generator: Adobe Illustrator 21.1.0, SVG Export Plug-In . SVG Version: 6.00 Build 0)  -->
<svg version="1.1" id="Layer_1" xmlns="http://www.w3.org/2000/svg" xmlns:xlink="http://www.w3.org/1999/xlink" x="0px" y="0px"
	 viewBox="0 0 139.4 128.9" style="enable-background:new 0 0 139.4 128.9;" xml:space="preserve">
<style type="text/css">
	.st0{fill:#F93D44;}
	.st1{opacity:0.1;fill:#F93D44;}
	.st2{opacity:0.3;clip-path:url(#XMLID_2_);fill:#F93D44;}
	.st3{opacity:0.5;fill:#F93D44;}
	.st4{opacity:0.2;}
	.st5{opacity:0.1;}
	.st6{opacity:0.3;clip-path:url(#XMLID_4_);fill:#F93D44;}
	.st7{opacity:0.3;clip-path:url(#XMLID_5_);fill:#F93D44;}
</style>
<g>
	<path class="st0" d="M73.1,27.4c-0.9-7.2,0.4-19,0.4-19h-4h-1.3h-4c0,0,0.7,11.8-0.2,19c-0.9,7.2-12,9.5-12,9.5v10.3
		c9.7-0.2,15.4-7.2,16.3-8.7c0.9,1.4,6.3,8.5,16,8.7V36.9C84.5,36.9,74,34.6,73.1,27.4z"/>
	<path class="st0" d="M81.2,26.2c0,0,3.2,44.5,0,50.8c-3.2,6.4-10.3,35.8,12.4,35.4c0,0,34,9,35.4-15.7c1.4-24.7-0.4-45.5-13.4-56.8
		C102.5,28.6,80.4,12.1,81.2,26.2z"/>
	<path class="st0" d="M56.5,26.2c0,0-3.2,44.5,0,50.8c3.2,6.4,10.3,35.8-12.4,35.4c0,0-34,9-35.4-15.7C7.3,72,9,51.3,22.1,39.9
		C35.2,28.6,57.3,12.1,56.5,26.2z"/>
	<path class="st1" d="M115.6,39.9c-7.2-6.2-17-14-24.3-17.4c2.8,2.2,5.7,4.4,7.8,6.6c4.9,4.9,9.5,10.3,13,16.2
		c6.3,10.7,11.5,22.7,12.9,34.9c1,9,0.3,22.9-5.9,31.6c5.3-2.3,9.5-6.8,10-15.1C130.4,72,128.7,51.3,115.6,39.9z"/>
	<path class="st1" d="M56.5,77c-3.2-6.4,0-50.8,0-50.8c0.1-0.9,0-1.7-0.1-2.3c-1.4,7-3.6,13.9-5.4,20.7c-2.8,10.6-3,21.1-0.7,31.8
		c2.4,11.6,5.6,22.5,3.7,33.5C64.2,102.6,59.1,82.2,56.5,77z"/>
	<path class="st3" d="M41.3,31.4c-8.6,7-16.7,13-21.4,23C14.9,64.8,13,76,13.2,87.3c0.1,3.9,6.2,4.1,6.4,0.2
		c0.5-9.8,1.6-19.2,4.8-28.6C28.1,48.5,36,41.2,42.6,32.5C43.2,31.7,42,30.8,41.3,31.4z"/>
	<path class="st3" d="M67.6,13.5c0-0.4-0.8-0.7-0.9-0.1c-0.9,4.4-0.7,9-1.1,13.4c-0.1,1.4,2.1,1.4,2.3,0.1
		C68.6,22.5,68.1,17.8,67.6,13.5z"/>
	<path class="st3" d="M64.3,31.8c-2.2,1.8-4,3.8-6.4,5.3c-0.6,0.4-0.3,1.4,0.5,1.2c2.9-1,6.6-2.5,7.5-5.6C66,31.9,65,31.2,64.3,31.8
		z"/>
</g>
</svg>
