<?xml version="1.0" encoding="utf-8"?>
<!-- Generator: Adobe Illustrator 21.1.0, SVG Export Plug-In . SVG Version: 6.00 Build 0)  -->
<svg version="1.1" id="Layer_1" xmlns="http://www.w3.org/2000/svg" xmlns:xlink="http://www.w3.org/1999/xlink" x="0px" y="0px"
	 viewBox="0 0 139.4 128.9" style="enable-background:new 0 0 139.4 128.9;" xml:space="preserve">
<style type="text/css">
	.st0{fill:#F93D44;}
	.st1{opacity:0.1;fill:#F93D44;}
	.st2{opacity:0.3;clip-path:url(#XMLID_2_);fill:#F93D44;}
	.st3{opacity:0.5;fill:#F93D44;}
	.st4{opacity:0.2;}
	.st5{opacity:0.1;}
	.st6{opacity:0.3;clip-path:url(#XMLID_4_);fill:#F93D44;}
	.st7{opacity:0.3;clip-path:url(#XMLID_5_);fill:#F93D44;}
</style>
<g>
	<g>
		<defs>
			<path id="XMLID_20_" d="M60.8,124.1c0,0-0.2-0.4-0.5-1c-5.6-10.8-10.4-22.8-10.2-35.2c0.1-5.8,1.6-12,6.8-15.3
				c4.8-3,11-2.6,16.4-2c5.4,0.6,10.7,2,16.1,2.6c2.3,0.3,5.3,0.9,7.5-0.1c3.5-1.5,8.7-6.4,9.6-9.7c1.1-3.7,1.5-7.5,1.9-11.4
				c0.6-6,3.1-13.7-0.1-19.3c-2.7-4.7-9.6,0.6-12.3,2.7C76.4,50.3,43.9,44,33.4,34.7c-5.7-5-7-0.4-6.6,5c0.5,7.4,0.8,14.6,2.6,21.7
				c1.4,5.3,4,18.5-3,21.2c-6.3,2.4-11.4,3.3-18,0.1c-7-3.4-6.8-11-5.8-17.8C3.8,57.1,5.1,49.3,7,41.6c2.3-9.6,2.4-21.5,8.1-29.9
				C20.2,4.3,29,5.1,36.4,8.8c14.7,7.5,28.8,24,46.4,14.9c5.8-3,10.6-7.9,15.9-11.5c5.8-3.9,16.1-10.5,21.4-2.2
				c3.5,5.5,4.2,12.9,5.1,19.2c1,7.4,1.4,14.9,1.4,22.4c0,6.5-0.1,13.1-0.5,19.6c-0.3,5.5-0.9,12.2-5,16.3
				c-5.8,5.8-14.5,7.9-22.5,7.4c-4-0.2-8.1-0.9-11.9-2.5c-3.9-1.6-8-4.5-12.2-5.1c-6.3-0.9-8,8.8-8.7,13.1c-0.9,5.6,0.8,11.3,0.6,17
				C66.4,120,64.8,127.5,60.8,124.1z"/>
		</defs>
		<use xlink:href="#XMLID_20_"  style="overflow:visible;fill:#F93D44;"/>
		<clipPath id="XMLID_2_">
			<use xlink:href="#XMLID_20_"  style="overflow:visible;"/>
		</clipPath>
		<path class="st2" d="M35.9,67.8c-5.4,5.4-11.5,5.8-17.8,1.5c-0.2-0.2-0.5-0.1-0.7,0.1c-3,2.9-6.4,4.9-10.6,4.1
			c-4.5-0.8-8-6.6-7.5-10.8c0-0.2-0.3-0.2-0.3-0.1c-1.2,3.4,0.8,6.6,3,9.1c2.8,3.2,7,3.6,10.9,2.3c1.7-0.6,3.2-1.7,4.5-2.9
			c0.9-0.7,5.6,2.1,6.9,2.3c5.1,0.8,9.1-1.1,12.7-4.6C37.6,68.2,36.6,67.2,35.9,67.8z"/>
		<path class="st2" d="M39.1,58.1c-2.8-2.7-6.3-3.9-10.1-4.4c-1.8-0.2-3.7,0-5.5,0.4c-3.2,0.7-4.4,2.8-7.8,1
			c-3.2-1.7-5.3-3.1-9.1-2.1c-2.6,0.7-5.2,2.6-5.9,5.2c-0.1,0.5,0.6,0.7,0.7,0.2c1.8-5.5,8.7-5.2,12.5-2.7c1.2,0.7,3.3,2.4,4.8,2.1
			c3.1-0.6,5.4-2.4,8.8-2.5c4-0.1,7.3,1.9,10.5,3.9C38.9,59.6,39.7,58.7,39.1,58.1z"/>
		<path class="st2" d="M31.5,45.3c-1.1-3.8-5.3-6.1-9.1-6.6c-1.4-0.2-2.5,0-3.9,0.2c-3.1,0.5-4.3-1.7-6-3.4C10.7,33.7,8.4,34,6,33.8
			c-0.5,0-0.5,0.7,0,0.8c3.9,0.6,5.5,1.6,7.9,4.3c0.5,0.6,1.4,1.4,2.2,1.5c2.4,0.3,4.7-0.5,7.1,0.1c3,0.7,5.7,2.5,6.9,5.4
			C30.4,46.6,31.8,46.1,31.5,45.3z"/>
		<path class="st2" d="M28,28.5c-1.7-2.9-5.2-2.3-4.5-7c1.2-7.5-1.6-12.9-4.3-19.6c-0.4-0.9-1.8-0.2-1.4,0.7c1.4,3.2,2.9,6.3,4,9.6
			c1.3,4.1-0.1,6.8,0,10.7c0,1.3-0.2,2,0.9,2.8c3.2,2.6,5.7,4.5,6.2,8.9c0,0.4,0.7,0.3,0.7-0.1C29.6,32.4,29.1,30.5,28,28.5z"/>
		<path class="st2" d="M50.1,1.6c0.1-0.5-0.6-0.8-0.8-0.3c-2.7,7.4-2.3,15.5-6.5,22.5c-0.9,1.5-1.9,2.4-1.5,4.2c0.1,0.5,1,1.6,1.4,2
			c2.5,3.2,0.8,7.6-1.5,10.2c-0.1,0.1,0,0.3,0.2,0.2c1.6-1.7,2.9-4,3.1-6.4c0.2-3.3-3.1-5.9-1.2-9C47.7,18,48.3,9.6,50.1,1.6z"/>
		<path class="st2" d="M64.3,14.3c-4.2,5.8-3.3,12.6-3.2,19.3c0,3.2-1.6,5.8-1.2,9.1c0.3,2.8,2.2,4.9,4.2,6.6
			c0.2,0.2,0.5-0.2,0.3-0.4c-2.4-2.6-3.7-5.1-3.5-8.7c0.1-2.7,1.5-5,1.5-7.7c0-2.3-0.4-4.5-0.3-6.8c0.2-3.8,1.4-7.2,3.1-10.6
			C65.6,14.2,64.8,13.6,64.3,14.3z"/>
		<path class="st2" d="M85.9,35.3c-1.7-2.5-5.3-3.9-5.6-7.1c-0.2-2.9-1.4-4.7-2.2-7.4c-0.1-0.4-0.8-0.4-0.8,0.1
			c0.2,2.2,1.5,3.9,1.6,6.1c0.1,1.1-0.3,2.9,0.4,3.9c1.7,2.3,4.2,3.8,5.9,6.2c2.1,3.1,3.1,7.8,2.2,11.4c-0.2,0.6,0.7,1,1,0.5
			C90.8,44.7,88.4,38.9,85.9,35.3z"/>
		<path class="st2" d="M89.9,12.9c-0.7-0.7-1.7,0.3-1.1,1C95.3,20.6,99,27,100.6,36.2c0,0.2,0.4,0.2,0.4,0
			C102.1,27.2,96,18.8,89.9,12.9z"/>
		<path class="st2" d="M124.4,2.5c-2.2,6.2-2.3,22.6-11.7,22.5c-1.4,0-2,1-2.5,2.2c-0.5,1.2-0.6,2.8-0.9,4.1
			c-0.4,1.9-1.7,3.7-2.5,5.4c-0.1,0.2,0.1,0.4,0.3,0.2c1.7-1.9,3-3.8,3.7-6.3c0.5-1.8,0.5-3.8,3.2-4.1c1.3-0.1,2.6-0.5,3.5-1.4
			c6.1-5.4,6.7-14.8,8.6-22.2C126.4,1.9,124.8,1.4,124.4,2.5z"/>
		<path class="st2" d="M138.8,44.7c-6.2,1.5-11.2,0.1-17.2-1c-1.2-0.2-2.5,0.1-3.7,0.3c-3.7,0.8-6.6,1.3-10.2-0.6
			c-0.3-0.2-0.6,0.3-0.3,0.5c5.1,3.6,9.3,0.2,14.8,1.4c5.8,1.2,11.1,3,17,1C140.2,45.9,139.9,44.4,138.8,44.7z"/>
		<path class="st2" d="M135.7,68c-6.1,3-11.6,0.7-17.9,0.2c-2.8-0.2-5.2-0.3-7.8-1.8c-2-1.1-3.7-2.6-5.7-3.8c-0.6-0.4-1.2,0.5-0.6,1
			c4.9,3.4,7.9,6.1,14,6.5c6.5,0.4,12.7,3.6,18.7-0.6C137.2,68.8,136.6,67.6,135.7,68z"/>
		<path class="st2" d="M123.6,99.4c-6.8-3.6-12.4-8.9-15.6-16c-1.2-2.6-0.7-4.4-2.9-6.3c-2.6-2.2-6.4-3.3-7.3-7
			c-0.1-0.3-0.5-0.2-0.5,0c0,2.2,1.3,3.7,3,5c1.5,1.1,3,2.2,4.4,3.4c1.1,1.1,1.3,4,1.9,5.6c2.6,6.8,9.4,14.3,16.6,16.3
			C123.7,100.7,124.2,99.7,123.6,99.4z"/>
		<path class="st2" d="M86.5,84.7c-0.2-2.5,0.9-2.7-0.4-5.1c-3.4-6.4-4.3-13.3-1.8-20.2c0.2-0.7-0.8-1.1-1.1-0.5
			c-3,5.5-1.9,12.3,0,17.9c0.4,1.2,1,2.3,1.7,3.4c0.9,1.5,0.3,2.8,0.4,4.4c0.2,3,1,6.3,2.7,8.8c0.1,0.2,0.5,0.1,0.4-0.2
			C87.6,90.3,86.8,87.7,86.5,84.7z"/>
		<path class="st2" d="M78.9,94.5c-7.3-4.4-13.5-8.2-15.6-17c-0.4-1.5-1.7-1.4-3-1.9c-3.4-1.5-7.7-2.8-7.5-7.3c0-0.3-0.4-0.3-0.5,0
			c-0.9,7.4,9,6,10,11.6c1.4,7.5,9.6,13,16.1,15.6C79,95.7,79.4,94.8,78.9,94.5z"/>
		<path class="st2" d="M76.4,103.6c-3.7,0.5-6.9,0.2-10.4-1c-2.3-0.8-4.2-2.2-6.5-2.9c-0.8-0.2-1.6,0.1-2.2,0.5
			c-2.7,1.8-6.3,1.9-9.1,0.1c0,0-0.1,0-0.1,0.1c1.5,2.4,6.4,2.8,8.8,1.5c2.8-1.7,7.3,1.6,10.2,2.6c3.2,1.1,6.4,1.2,9.6,0.3
			C77.5,104.6,77.2,103.5,76.4,103.6z"/>
	</g>
	<g>
		<defs>
			<path id="XMLID_19_" d="M60.8,124.1c0,0-0.2-0.4-0.5-1c-5.6-10.8-10.4-22.8-10.2-35.2c0.1-5.8,1.6-12,6.8-15.3
				c4.8-3,11-2.6,16.4-2c5.4,0.6,10.7,2,16.1,2.6c2.3,0.3,5.3,0.9,7.5-0.1c3.5-1.5,8.7-6.4,9.6-9.7c1.1-3.7,1.5-7.5,1.9-11.4
				c0.6-6,3.1-13.7-0.1-19.3c-2.7-4.7-9.6,0.6-12.3,2.7C76.4,50.3,43.9,44,33.4,34.7c-5.7-5-7-0.4-6.6,5c0.5,7.4,0.8,14.6,2.6,21.7
				c1.4,5.3,4,18.5-3,21.2c-6.3,2.4-11.4,3.3-18,0.1c-7-3.4-6.8-11-5.8-17.8C3.8,57.1,5.1,49.3,7,41.6c2.3-9.6,2.4-21.5,8.1-29.9
				C20.2,4.3,29,5.1,36.4,8.8c14.7,7.5,28.8,24,46.4,14.9c5.8-3,10.6-7.9,15.9-11.5c5.8-3.9,16.1-10.5,21.4-2.2
				c3.5,5.5,4.2,12.9,5.1,19.2c1,7.4,1.4,14.9,1.4,22.4c0,6.5-0.1,13.1-0.5,19.6c-0.3,5.5-0.9,12.2-5,16.3
				c-5.8,5.8-14.5,7.9-22.5,7.4c-4-0.2-8.1-0.9-11.9-2.5c-3.9-1.6-8-4.5-12.2-5.1c-6.3-0.9-8,8.8-8.7,13.1c-0.9,5.6,0.8,11.3,0.6,17
				C66.4,120,64.8,127.5,60.8,124.1z"/>
		</defs>
		<use xlink:href="#XMLID_19_"  style="overflow:visible;fill:#F93D44;"/>
		<clipPath id="XMLID_4_">
			<use xlink:href="#XMLID_19_"  style="overflow:visible;"/>
		</clipPath>
		<path class="st6" d="M35.9,67.8c-5.4,5.4-11.5,5.8-17.8,1.5c-0.2-0.2-0.5-0.1-0.7,0.1c-3,2.9-6.4,4.9-10.6,4.1
			c-4.5-0.8-8-6.6-7.5-10.8c0-0.2-0.3-0.2-0.3-0.1c-1.2,3.4,0.8,6.6,3,9.1c2.8,3.2,7,3.6,10.9,2.3c1.7-0.6,3.2-1.7,4.5-2.9
			c0.9-0.7,5.6,2.1,6.9,2.3c5.1,0.8,9.1-1.1,12.7-4.6C37.6,68.2,36.6,67.2,35.9,67.8z"/>
		<path class="st6" d="M39.1,58.1c-2.8-2.7-6.3-3.9-10.1-4.4c-1.8-0.2-3.7,0-5.5,0.4c-3.2,0.7-4.4,2.8-7.8,1
			c-3.2-1.7-5.3-3.1-9.1-2.1c-2.6,0.7-5.2,2.6-5.9,5.2c-0.1,0.5,0.6,0.7,0.7,0.2c1.8-5.5,8.7-5.2,12.5-2.7c1.2,0.7,3.3,2.4,4.8,2.1
			c3.1-0.6,5.4-2.4,8.8-2.5c4-0.1,7.3,1.9,10.5,3.9C38.9,59.6,39.7,58.7,39.1,58.1z"/>
		<path class="st6" d="M31.5,45.3c-1.1-3.8-5.3-6.1-9.1-6.6c-1.4-0.2-2.5,0-3.9,0.2c-3.1,0.5-4.3-1.7-6-3.4C10.7,33.7,8.4,34,6,33.8
			c-0.5,0-0.5,0.7,0,0.8c3.9,0.6,5.5,1.6,7.9,4.3c0.5,0.6,1.4,1.4,2.2,1.5c2.4,0.3,4.7-0.5,7.1,0.1c3,0.7,5.7,2.5,6.9,5.4
			C30.4,46.6,31.8,46.1,31.5,45.3z"/>
		<path class="st6" d="M28,28.5c-1.7-2.9-5.2-2.3-4.5-7c1.2-7.5-1.6-12.9-4.3-19.6c-0.4-0.9-1.8-0.2-1.4,0.7c1.4,3.2,2.9,6.3,4,9.6
			c1.3,4.1-0.1,6.8,0,10.7c0,1.3-0.2,2,0.9,2.8c3.2,2.6,5.7,4.5,6.2,8.9c0,0.4,0.7,0.3,0.7-0.1C29.6,32.4,29.1,30.5,28,28.5z"/>
		<path class="st6" d="M50.1,1.6c0.1-0.5-0.6-0.8-0.8-0.3c-2.7,7.4-2.3,15.5-6.5,22.5c-0.9,1.5-1.9,2.4-1.5,4.2c0.1,0.5,1,1.6,1.4,2
			c2.5,3.2,0.8,7.6-1.5,10.2c-0.1,0.1,0,0.3,0.2,0.2c1.6-1.7,2.9-4,3.1-6.4c0.2-3.3-3.1-5.9-1.2-9C47.7,18,48.3,9.6,50.1,1.6z"/>
		<path class="st6" d="M64.3,14.3c-4.2,5.8-3.3,12.6-3.2,19.3c0,3.2-1.6,5.8-1.2,9.1c0.3,2.8,2.2,4.9,4.2,6.6
			c0.2,0.2,0.5-0.2,0.3-0.4c-2.4-2.6-3.7-5.1-3.5-8.7c0.1-2.7,1.5-5,1.5-7.7c0-2.3-0.4-4.5-0.3-6.8c0.2-3.8,1.4-7.2,3.1-10.6
			C65.6,14.2,64.8,13.6,64.3,14.3z"/>
		<path class="st6" d="M85.9,35.3c-1.7-2.5-5.3-3.9-5.6-7.1c-0.2-2.9-1.4-4.7-2.2-7.4c-0.1-0.4-0.8-0.4-0.8,0.1
			c0.2,2.2,1.5,3.9,1.6,6.1c0.1,1.1-0.3,2.9,0.4,3.9c1.7,2.3,4.2,3.8,5.9,6.2c2.1,3.1,3.1,7.8,2.2,11.4c-0.2,0.6,0.7,1,1,0.5
			C90.8,44.7,88.4,38.9,85.9,35.3z"/>
		<path class="st6" d="M89.9,12.9c-0.7-0.7-1.7,0.3-1.1,1C95.3,20.6,99,27,100.6,36.2c0,0.2,0.4,0.2,0.4,0
			C102.1,27.2,96,18.8,89.9,12.9z"/>
		<path class="st6" d="M124.4,2.5c-2.2,6.2-2.3,22.6-11.7,22.5c-1.4,0-2,1-2.5,2.2c-0.5,1.2-0.6,2.8-0.9,4.1
			c-0.4,1.9-1.7,3.7-2.5,5.4c-0.1,0.2,0.1,0.4,0.3,0.2c1.7-1.9,3-3.8,3.7-6.3c0.5-1.8,0.5-3.8,3.2-4.1c1.3-0.1,2.6-0.5,3.5-1.4
			c6.1-5.4,6.7-14.8,8.6-22.2C126.4,1.9,124.8,1.4,124.4,2.5z"/>
		<path class="st6" d="M138.8,44.7c-6.2,1.5-11.2,0.1-17.2-1c-1.2-0.2-2.5,0.1-3.7,0.3c-3.7,0.8-6.6,1.3-10.2-0.6
			c-0.3-0.2-0.6,0.3-0.3,0.5c5.1,3.6,9.3,0.2,14.8,1.4c5.8,1.2,11.1,3,17,1C140.2,45.9,139.9,44.4,138.8,44.7z"/>
		<path class="st6" d="M135.7,68c-6.1,3-11.6,0.7-17.9,0.2c-2.8-0.2-5.2-0.3-7.8-1.8c-2-1.1-3.7-2.6-5.7-3.8c-0.6-0.4-1.2,0.5-0.6,1
			c4.9,3.4,7.9,6.1,14,6.5c6.5,0.4,12.7,3.6,18.7-0.6C137.2,68.8,136.6,67.6,135.7,68z"/>
		<path class="st6" d="M123.6,99.4c-6.8-3.6-12.4-8.9-15.6-16c-1.2-2.6-0.7-4.4-2.9-6.3c-2.6-2.2-6.4-3.3-7.3-7
			c-0.1-0.3-0.5-0.2-0.5,0c0,2.2,1.3,3.7,3,5c1.5,1.1,3,2.2,4.4,3.4c1.1,1.1,1.3,4,1.9,5.6c2.6,6.8,9.4,14.3,16.6,16.3
			C123.7,100.7,124.2,99.7,123.6,99.4z"/>
		<path class="st6" d="M86.5,84.7c-0.2-2.5,0.9-2.7-0.4-5.1c-3.4-6.4-4.3-13.3-1.8-20.2c0.2-0.7-0.8-1.1-1.1-0.5
			c-3,5.5-1.9,12.3,0,17.9c0.4,1.2,1,2.3,1.7,3.4c0.9,1.5,0.3,2.8,0.4,4.4c0.2,3,1,6.3,2.7,8.8c0.1,0.2,0.5,0.1,0.4-0.2
			C87.6,90.3,86.8,87.7,86.5,84.7z"/>
		<path class="st6" d="M78.9,94.5c-7.3-4.4-13.5-8.2-15.6-17c-0.4-1.5-1.7-1.4-3-1.9c-3.4-1.5-7.7-2.8-7.5-7.3c0-0.3-0.4-0.3-0.5,0
			c-0.9,7.4,9,6,10,11.6c1.4,7.5,9.6,13,16.1,15.6C79,95.7,79.4,94.8,78.9,94.5z"/>
		<path class="st6" d="M76.4,103.6c-3.7,0.5-6.9,0.2-10.4-1c-2.3-0.8-4.2-2.2-6.5-2.9c-0.8-0.2-1.6,0.1-2.2,0.5
			c-2.7,1.8-6.3,1.9-9.1,0.1c0,0-0.1,0-0.1,0.1c1.5,2.4,6.4,2.8,8.8,1.5c2.8-1.7,7.3,1.6,10.2,2.6c3.2,1.1,6.4,1.2,9.6,0.3
			C77.5,104.6,77.2,103.5,76.4,103.6z"/>
	</g>
	<path class="st1" d="M124.9,27c-0.6,3.2-1,6.4-0.8,9.6c0.3,5.4,1.2,10.4,0.6,15.9c-0.5,4.6-0.9,9.2-1.5,13.8
		c-1,8.3-3.1,15.8-10,21.1c-4.6,3.6-10.4,5-15.9,2.9c-5.8-2.1-11-6.6-17.2-7.6c-7.9-1.2-15.4,4.3-16.7,12.1
		c-1.6,9.4,1.6,20.5-2.9,28.8c0.2,0.3,0.3,0.5,0.3,0.5c4,3.4,5.6-4.1,5.6-6.6c0.2-5.7-1.5-11.3-0.6-17c0.7-4.3,2.4-13.9,8.7-13.1
		c4.2,0.6,8.3,3.5,12.2,5.1c3.7,1.5,7.8,2.2,11.9,2.5c8,0.5,16.6-1.6,22.5-7.4c4.1-4.1,4.7-10.8,5-16.3c0.4-6.5,0.5-13.1,0.5-19.6
		c0-7.5-0.3-15-1.4-22.4C125.1,28.5,125,27.7,124.9,27z"/>
</g>
</svg>
