<?xml version="1.0" encoding="utf-8"?>
<!-- Generator: Adobe Illustrator 19.0.0, SVG Export Plug-In . SVG Version: 6.00 Build 0)  -->
<svg version="1.1" id="Layer_1" xmlns="http://www.w3.org/2000/svg" xmlns:xlink="http://www.w3.org/1999/xlink" x="0px" y="0px"
	 viewBox="-235 332.1 139.4 128.9" style="enable-background:new -235 332.1 139.4 128.9;" xml:space="preserve">
<style type="text/css">
	.st0{fill:#EC424C;}
	.st1{opacity:0.1;fill:#EC424C;enable-background:new    ;}
	.st2{opacity:0.1;}
</style>
<g>
	<g>
		<path class="st0" d="M-183.9,406.1c-1.1-8.1-6.2-13.7-14.3-14.7c-2.2-0.3-2.5,3-0.6,3.7c10.3,3.9,9.9,15,10.8,24.2
			c0.8,7.9,0.2,15.6-0.6,23.4c-0.3,3.2,4.7,3.9,5.5,0.9C-179.7,431.6-182.1,418.3-183.9,406.1z"/>
		<path class="st0" d="M-175,391.1c-7.8-4.8-17.3-7.8-26.4-8.6c-1.2-0.1-1.3,1.6-0.3,2c7.3,3.1,15.2,4.7,22.1,8.9
			c4.1,2.5,10,5.7,12.2,10.2c1.1,2.2,4.7,1.4,4.6-1.1C-163,397.3-171.3,393.4-175,391.1z"/>
		<path class="st0" d="M-165,359.4c-9.5,6.7-20.2,11.3-31.1,15.2c-1,0.4-0.7,1.9,0.4,1.6c11.8-2.5,22.4-6.8,33-12.6
			c0,0-0.1,0-0.1-0.1C-160,362.1-162.5,357.6-165,359.4z"/>
		<path class="st0" d="M-206.7,421.6c0,0,18.5-5.6,16.9-25c-1.6-19.3,0-18.5,6.4-27.4c6.4-8.9,12.1-25-5.6-30.6
			s-48.3,12.9-44.3,47.5C-229.3,420.8-214.1,425.5-206.7,421.6z"/>
	</g>
	<g>
		<path class="st0" d="M-146.7,419.6c1.1-8.1,6.2-13.7,14.3-14.7c2.2-0.3,2.5,3,0.6,3.7c-10.2,3.8-9.8,14.9-10.7,24.1
			c-0.8,7.9-0.2,15.6,0.6,23.5c0.3,3.2-4.7,3.9-5.5,0.9C-150.8,445-148.4,431.8-146.7,419.6z"/>
		<path class="st0" d="M-155.5,404.6c7.8-4.8,17.3-7.8,26.4-8.6c1.2-0.1,1.3,1.6,0.3,2c-7.3,3.1-15.2,4.6-22.1,8.8
			c-4.1,2.6-10,5.7-12.2,10.2c-1.1,2.2-4.7,1.4-4.6-1.1C-167.6,410.8-159.3,406.8-155.5,404.6z"/>
		<path class="st0" d="M-165.6,372.9c9.5,6.7,20.2,11.3,31.1,15.2c1,0.4,0.7,1.9-0.4,1.6c-11.8-2.5-22.4-6.8-33-12.6
			c0,0,0.1,0,0.1-0.1C-170.5,375.5-168.1,371.1-165.6,372.9z"/>
		<path class="st0" d="M-123.9,435.1c0,0-18.5-5.6-16.9-25c1.6-19.3,0-18.5-6.4-27.4c-6.4-8.9-12.1-25,5.6-30.6s48.3,12.9,44.3,47.5
			C-101.3,434.3-116.5,439-123.9,435.1z"/>
	</g>
	<path class="st1" d="M-165,359.4c-5.9,4.1-12.2,7.5-18.7,10.3c0.1-0.2,0.2-0.3,0.4-0.5c4.6-6.3,8.7-16.3,4.4-23.5
		c-4.5,4.2-8.3,8.9-10.6,14.8c-1.6,4.3-2.9,8.6-3.8,13l0,0l0,0c-1.3,6-2.1,12.1-2.7,18.2l0,0c-0.1,0.6-0.1,1.1-0.2,1.7
		c-0.1,0.8-0.1,1.7-0.2,2.6c0,0.1,0,0.1,0,0.2l0,0c-0.5,6.6-1.1,13.6-4.9,19.1c-2.2,3.2-5,5.5-8.2,7.2c1-0.2,1.9-0.5,2.8-0.9
		c0,0,13.6-4.1,16.5-17.5c1.6,4.6,1.7,10.2,2.2,15.2c0.8,7.9,0.2,15.6-0.6,23.4c-0.3,3.2,4.7,3.9,5.5,0.9c3.4-12.1,1-25.4-0.8-37.6
		c-0.7-4.8-2.8-8.8-6.1-11.4c-0.2-2.4-0.3-4.4-0.4-6.1c3.7,1.3,7.3,2.7,10.6,4.8c4.1,2.5,10,5.7,12.2,10.2c1.1,2.2,4.7,1.4,4.6-1.1
		c0-5.1-8.3-9-12-11.3c-4.7-2.9-9.9-5.1-15.3-6.6c0.2-5.3,1.2-7.5,3.5-10.6c8.4-2.5,16.3-6,24.2-10.3c0,0-0.1,0-0.1-0.1
		C-160,362.1-162.5,357.6-165,359.4z"/>
	<g class="st2">
		<path class="st0" d="M-132.9,351.1c2.4,1.3,4.7,3,7.1,4.3c5.2,2.9,10.6,6.8,13.9,11.9c6.3,9.8,5.8,22.3,5.5,33.5
			c-0.3,11.3-2.6,25.4-9.6,35c7.4-2,16-11.4,18.8-36.2C-93.8,370.2-115.4,352.4-132.9,351.1z"/>
	</g>
</g>
</svg>
