<?xml version="1.0" encoding="utf-8"?>
<!-- Generator: Adobe Illustrator 19.0.0, SVG Export Plug-In . SVG Version: 6.00 Build 0)  -->
<svg version="1.1" id="Layer_1" xmlns="http://www.w3.org/2000/svg" xmlns:xlink="http://www.w3.org/1999/xlink" x="0px" y="0px"
	 viewBox="-235 332.1 139.4 128.9" style="enable-background:new -235 332.1 139.4 128.9;" xml:space="preserve">
<style type="text/css">
	.st0{fill:#EC424C;}
</style>
<g>
	<path class="st0" d="M-216.9,388.6c0,0-2.6-9.7,8.5-21.2c0,0-19.4-0.8-24.7,20.2c-5.3,21-1.8,61.1,41.9,59.3c0,0,22.7,0,33.2-29.5
		c0,0,11.1-19.2,17.2,3l4,26.6c0,0,12.9-1.5,13.1-11.6c0.2-10.1-7.7-33.5-10.7-35.1c-1-0.5-3.7,0.3-4.7,0.4c-4.1,0.6-8.1,1.6-12,3.1
		c-5.5,2.1-10.7,4.9-15.4,8.5c-5.5,4.2-9,9.5-13.7,14.4c-2.5,2.6-5.4,4.9-8.9,6.1c-8.5,2.8-18.3-2.5-23.6-8.9
		c-6.6-7.9-7.5-18.8-6.1-28.7C-218.6,393.8-216.6,389.7-216.9,388.6z"/>
	<path class="st0" d="M-212.5,389c0,0-2.2-10.3,8.7-20.6c0.7-0.7,6.3,0.5,7.2,0.6c4.6,0.4,9.1,0.4,13.7,0.8
		c9.9,0.7,19.9,1.7,29.7-0.4c8.3-1.8,16-5.8,23.3-9.9c7.6-4.3,15.5-8.1,23.1-12.4c1.9-1.1,3.9-2.2,6-2.3c5-0.2,5.7,4.6,4.8,8.5
		c-0.9,4-2.6,7.8-4.4,11.5c-2.4,5-5,10-8.4,14.5c-6.1,8.2-15.2,14.8-25.2,17.7c-5.6,1.6-11.5,2.5-17.1,4.1
		c-8.9,2.5-17.3,6.8-23.9,13.2c-6.3,6.2-10.3,15.8-20.7,15.4c-6.7-0.2-12.4-5.1-15.2-10.9c-2.2-4.6-3.1-9.9-3.5-15
		c-0.2-2.5-0.1-5.1,0.2-7.7C-213.9,394.4-212.1,390.6-212.5,389z"/>
</g>
</svg>
