<?xml version="1.0" encoding="utf-8"?>
<!-- Generator: Adobe Illustrator 19.0.0, SVG Export Plug-In . SVG Version: 6.00 Build 0)  -->
<svg version="1.1" id="Layer_1" xmlns="http://www.w3.org/2000/svg" xmlns:xlink="http://www.w3.org/1999/xlink" x="0px" y="0px"
	 viewBox="-235 332.1 139.4 128.9" style="enable-background:new -235 332.1 139.4 128.9;" xml:space="preserve">
<style type="text/css">
	.st0{fill:#EC424C;}
	.st1{opacity:0.2;}
	.st2{opacity:0.1;fill:#EC424C;enable-background:new    ;}
</style>
<g>
	<path class="st0" d="M-159.3,366.7c0,0-4.2-8.6-0.4-17.4c3.8-8.8,1.8-11.8,1.8-11.8l7.7-2.8c0,0,3.6,7.7,3.5,13.1
		C-146.8,353.2-142.5,382.1-159.3,366.7z"/>
	<path class="st0" d="M-132.6,366.1c0,0,3.4-8.9-1.2-17.3c-4.6-8.4-2.9-11.6-2.9-11.6l-7.9-2c0,0-2.8,8-2.3,13.3
		C-146.4,353.8-147.9,383.1-132.6,366.1z"/>
	<g>
		<path class="st0" d="M-210.1,449.5c0,0-9.8,9-13.1-16.5c-3.5-25.5-1.6-58.5,8.2-69.8c9.7-11.3,28.1-23.3,69.8-6.4
			c0,0,1.8,1.9,16.1-8.4c16.7-11.9,23.6,3.1,22.9,10.3c-0.8,7.1-8.6,51.8-27,53.3s-13.5,10.9-24,12.8
			C-167.8,426.6-200.4,437.1-210.1,449.5z"/>
		<path class="st0" d="M-129.1,348.5c-4.9,3.8-8.4,5.5-10.8,6.8c-0.3,8.2,0.2,17.1,0.8,25.7c0.8,10.4,1.1,21.5,5.3,31
			c0.2,0,0.4,0,0.5-0.1c18.4-1.5,26.3-46.1,27-53.3C-105.5,351.6-113,335.9-129.1,348.5z"/>
		<path class="st0" d="M-146,416.1c-0.1-8-0.9-16.1-0.9-24.1c0-9.2,0.8-19-0.9-28.1c-0.6-3-1.3-5.9-2-8.8
			c-38.5-14.2-55.8-2.7-65.2,8.1c-9.8,11.2-11.6,44.3-8.3,69.8c3.4,25.5,13.1,16.5,13.1,16.5c9.7-12.4,42.4-22.9,52.9-24.7
			C-150.6,423.6-150.1,419.4-146,416.1z"/>
	</g>
	<g class="st1">
		<path class="st2" d="M-112.6,378.7c-5.7,14-17.5,24.8-31.2,30.8c-14.4,6.3-30.6,6.8-45.1,12.8c-8.6,3.6-16.9,8.6-22.1,16.5
			c-2.4,3.6-4.3,7.4-5.8,11.4c3.4,2.3,6.6-0.7,6.6-0.7c9.7-12.4,42.4-22.9,52.9-24.7c10.5-1.9,5.6-11.3,24-12.8s26.3-46.1,27-53.3
			c0.1-0.8,0.1-1.6-0.1-2.6C-108,363.8-109.6,371.4-112.6,378.7z"/>
		<path class="st0" d="M-112.6,378.7c-4.6,11.3-13.2,20.5-23.5,26.8c0.6,2.2,1.3,4.4,2.3,6.6c0.2,0,0.4,0,0.5-0.1
			c18.4-1.5,26.3-46.1,27-53.3c0.1-0.8,0.1-1.6-0.1-2.6C-108,363.8-109.6,371.4-112.6,378.7z"/>
		<path class="st0" d="M-188.9,422.3c-8.6,3.6-16.9,8.6-22.1,16.5c-2.4,3.6-4.3,7.4-5.8,11.4c3.4,2.3,6.6-0.7,6.6-0.7
			c9.7-12.4,42.4-22.9,52.9-24.7c6.6-1.2,7.1-5.3,11.2-8.6c0-1.9-0.1-3.7-0.2-5.6C-160,415.9-175.2,416.6-188.9,422.3z"/>
	</g>
</g>
</svg>
