<?xml version="1.0" encoding="utf-8"?>
<!-- Generator: Adobe Illustrator 21.1.0, SVG Export Plug-In . SVG Version: 6.00 Build 0)  -->
<svg version="1.1" id="Layer_1" xmlns="http://www.w3.org/2000/svg" xmlns:xlink="http://www.w3.org/1999/xlink" x="0px" y="0px"
	 viewBox="0 0 139.4 128.9" style="enable-background:new 0 0 139.4 128.9;" xml:space="preserve">
<style type="text/css">
	.st0{fill:#F93D44;}
	.st1{opacity:0.1;fill:#F93D44;}
	.st2{opacity:0.3;clip-path:url(#XMLID_2_);fill:#F93D44;}
	.st3{opacity:0.5;fill:#F93D44;}
	.st4{opacity:0.2;}
	.st5{opacity:0.1;}
	.st6{opacity:0.3;clip-path:url(#XMLID_4_);fill:#F93D44;}
	.st7{opacity:0.3;clip-path:url(#XMLID_5_);fill:#F93D44;}
</style>
<g>
	<g>
		<path class="st0" d="M51.1,74c-1.1-8.1-6.2-13.7-14.3-14.7c-2.2-0.3-2.5,3-0.6,3.7C46.5,66.9,46.1,78,47,87.2
			c0.8,7.9,0.2,15.6-0.6,23.4c-0.3,3.2,4.7,3.9,5.5,0.9C55.3,99.5,52.9,86.2,51.1,74z"/>
		<path class="st0" d="M60,59c-7.8-4.8-17.3-7.8-26.4-8.6c-1.2-0.1-1.3,1.6-0.3,2c7.3,3.1,15.2,4.7,22.1,8.9
			c4.1,2.5,10,5.7,12.2,10.2c1.1,2.2,4.7,1.4,4.6-1.1C72,65.2,63.7,61.3,60,59z"/>
		<path class="st0" d="M70,27.3C60.5,34,49.8,38.6,38.9,42.5c-1,0.4-0.7,1.9,0.4,1.6c11.8-2.5,22.4-6.8,33-12.6c0,0-0.1,0-0.1-0.1
			C75,30,72.5,25.5,70,27.3z"/>
		<path class="st0" d="M28.3,89.5c0,0,18.5-5.6,16.9-25c-1.6-19.3,0-18.5,6.4-27.4c6.4-8.9,12.1-25-5.6-30.6
			C28.3,0.9-2.3,19.4,1.7,54C5.7,88.7,20.9,93.4,28.3,89.5z"/>
	</g>
	<g>
		<path class="st0" d="M88.3,87.5c1.1-8.1,6.2-13.7,14.3-14.7c2.2-0.3,2.5,3,0.6,3.7c-10.2,3.8-9.8,14.9-10.7,24.1
			c-0.8,7.9-0.2,15.6,0.6,23.5c0.3,3.2-4.7,3.9-5.5,0.9C84.2,112.9,86.6,99.7,88.3,87.5z"/>
		<path class="st0" d="M79.5,72.5c7.8-4.8,17.3-7.8,26.4-8.6c1.2-0.1,1.3,1.6,0.3,2C98.9,69,91,70.5,84.1,74.7
			c-4.1,2.6-10,5.7-12.2,10.2c-1.1,2.2-4.7,1.4-4.6-1.1C67.4,78.7,75.7,74.7,79.5,72.5z"/>
		<path class="st0" d="M69.4,40.8c9.5,6.7,20.2,11.3,31.1,15.2c1,0.4,0.7,1.9-0.4,1.6c-11.8-2.5-22.4-6.8-33-12.6c0,0,0.1,0,0.1-0.1
			C64.5,43.4,66.9,39,69.4,40.8z"/>
		<path class="st0" d="M111.1,103c0,0-18.5-5.6-16.9-25c1.6-19.3,0-18.5-6.4-27.4c-6.4-8.9-12.1-25,5.6-30.6
			c17.7-5.6,48.3,12.9,44.3,47.5C133.7,102.2,118.5,106.9,111.1,103z"/>
	</g>
	<path class="st1" d="M70,27.3c-5.9,4.1-12.2,7.5-18.7,10.3c0.1-0.2,0.2-0.3,0.4-0.5c4.6-6.3,8.7-16.3,4.4-23.5
		c-4.5,4.2-8.3,8.9-10.6,14.8c-1.6,4.3-2.9,8.6-3.8,13l0,0c0,0,0,0,0,0c-1.3,6-2.1,12.1-2.7,18.2l0,0c-0.1,0.6-0.1,1.1-0.2,1.7
		c-0.1,0.8-0.1,1.7-0.2,2.6c0,0.1,0,0.1,0,0.2l0,0c-0.5,6.6-1.1,13.6-4.9,19.1c-2.2,3.2-5,5.5-8.2,7.2c1-0.2,1.9-0.5,2.8-0.9
		c0,0,13.6-4.1,16.5-17.5c1.6,4.6,1.7,10.2,2.2,15.2c0.8,7.9,0.2,15.6-0.6,23.4c-0.3,3.2,4.7,3.9,5.5,0.9c3.4-12.1,1-25.4-0.8-37.6
		c-0.7-4.8-2.8-8.8-6.1-11.4c-0.2-2.4-0.3-4.4-0.4-6.1c3.7,1.3,7.3,2.7,10.6,4.8c4.1,2.5,10,5.7,12.2,10.2c1.1,2.2,4.7,1.4,4.6-1.1
		C72,65.2,63.7,61.3,60,59c-4.7-2.9-9.9-5.1-15.3-6.6c0.2-5.3,1.2-7.5,3.5-10.6c8.4-2.5,16.3-6,24.2-10.3c0,0-0.1,0-0.1-0.1
		C75,30,72.5,25.5,70,27.3z"/>
	<g class="st5">
		<path class="st0" d="M102.1,19c2.4,1.3,4.7,3,7.1,4.3c5.2,2.9,10.6,6.8,13.9,11.9c6.3,9.8,5.8,22.3,5.5,33.5
			c-0.3,11.3-2.6,25.4-9.6,35c7.4-2,16-11.4,18.8-36.2C141.2,38.1,119.6,20.3,102.1,19z"/>
	</g>
</g>
</svg>
