<?xml version="1.0" encoding="utf-8"?>
<!-- Generator: Adobe Illustrator 19.0.0, SVG Export Plug-In . SVG Version: 6.00 Build 0)  -->
<svg version="1.1" id="Layer_1" xmlns="http://www.w3.org/2000/svg" xmlns:xlink="http://www.w3.org/1999/xlink" x="0px" y="0px"
	 viewBox="-235 332.1 139.4 128.9" style="enable-background:new -235 332.1 139.4 128.9;" xml:space="preserve">
<style type="text/css">
	.st0{fill:#EC424C;}
	.st1{opacity:0.1;fill:#F93D44;enable-background:new    ;}
	.st2{opacity:0.1;fill:#EC424C;enable-background:new    ;}
	.st3{opacity:0.3;clip-path:url(#SVGID_2_);fill:#EC424C;enable-background:new    ;}
	.st4{opacity:0.3;clip-path:url(#SVGID_4_);fill:#F93D44;enable-background:new    ;}
	.st5{opacity:0.3;clip-path:url(#SVGID_6_);fill:#F93D44;enable-background:new    ;}
	.st6{opacity:0.3;clip-path:url(#SVGID_8_);fill:#F93D44;enable-background:new    ;}
	.st7{opacity:0.5;fill:#F93D44;enable-background:new    ;}
</style>
<g>
	<g>
		<path class="st0" d="M-176.6,395.3c0,0,3-18.7,3.8-21.4c0.9-2.6,7.7-9,7.7-9s0.6-6.2-4.4-10.1s-5.8,2.5-7.9,0.9
			c-2.2-1.6-15-17.1-18.1-19.8c-3.1-2.7-13.1,5.4-9.9,8.9c3,3.6,17.4,26.5,14.7,40.3C-193.4,399-176.6,395.3-176.6,395.3z"/>
		<path class="st0" d="M-178,393.1c0,0-14.8-22.5,0-38.4c14.8-16,14.8-20.7,15.5-22.5c0,0,7.9-1.3,8.8,1.8s1.7,9,4.7,11.7
			c3,2.7,13.8,16.4,2.1,28.1C-158.7,385.5-168.6,405.9-178,393.1z"/>
		<path class="st0" d="M-181.7,393.7c0,0,7.3-17.5,7.9-20.2c0.6-2.7-1.8-11.7-1.8-11.7s2.7-5.6,9-6.3c6.3-0.7,3.6,5.2,6.3,4.9
			c2.7-0.2,21.8-6.7,25.8-7.4s8.3,11.5,3.8,12.8c-4.5,1.4-28.7,13.3-33.7,26.6C-169.3,405.6-181.7,393.7-181.7,393.7z"/>
		<path class="st1" d="M-150.6,348.8c0.9,1.3,2.1,2.9,3.6,3.7c1.1,0.6,2.3,1,3.5,1.4c-1.8-4-4.3-7-5.6-8.1c-3-2.7-3.8-8.5-4.7-11.7
			c-0.3-1.1-1.5-1.7-3-1.9C-155.5,337.9-154,343.9-150.6,348.8z"/>
		<path class="st2" d="M-134.5,353.1c-1.1,0.2-3.4,0.8-6.1,1.6c1.6,0.6,3.1,1.4,3.9,2.9c2.2,4-0.7,8.2-3.5,11.1
			c-1.9,1.9-4.1,3.6-6.3,5.1c-0.1,0.1-0.1,0.3-0.2,0.4c7-4.6,13.9-7.7,16.1-8.4C-126.2,364.5-130.5,352.4-134.5,353.1z"/>
		<g>
			<g>
				<path id="XMLID_3_" class="st0" d="M-153,377.4c0,0-14.4-15-29-11s-42.2,21.8-31.9,49c10.3,27.2,55.5,57.5,80.6,40.9
					c25.2-16.6,13.3-68.3,7.2-76.6C-132.2,371.4-140.2,367.1-153,377.4z"/>
			</g>
			<g>
				<defs>
					<path id="SVGID_1_" d="M-153,377.4c0,0-14.4-15-29-11s-42.2,21.8-31.9,49c10.3,27.2,55.5,57.5,80.6,40.9
						c25.2-16.6,13.3-68.3,7.2-76.6C-132.2,371.4-140.2,367.1-153,377.4z"/>
				</defs>
				<clipPath id="SVGID_2_">
					<use xlink:href="#SVGID_1_"  style="overflow:visible;"/>
				</clipPath>
				<path class="st3" d="M-141.4,433.3c-11.8,4.1-24.1,3.3-36.4,2.1c3.5-2.3,7.6-3.8,11.1-6.1c4-2.6,7.1-6.3,9.6-10.3
					c0.8-1.2-1.1-2.4-1.9-1.2c-2.9,4.6-6.4,8.6-11.2,11.2c-3.9,2.1-7.9,4.1-11.2,7c0.2-4.6-1-9.1-0.5-13.7
					c0.6-5.1,2.3-10.1,3.1-15.1c0.2-1-1.3-1.6-1.6-0.5c-1.6,4.8-2.8,9.7-3.4,14.8c-0.6,5,0.5,10.3,1.5,15.2v0.1
					c-0.6,0.5-1.1,1.1-1.6,1.6c-6.6,7.4-11.1,16.5-10.9,26.5c0,0.6,1,0.7,1,0c0-10.4,5.4-20.5,13.1-27.4c0.5-0.5,1.1-0.9,1.7-1.3
					c12.7,2.3,25.9,3.9,38.2-0.9C-139.6,434.7-140.3,432.9-141.4,433.3z"/>
			</g>
			<g>
				<defs>
					<path id="SVGID_3_" d="M-153,377.4c0,0-14.4-15-29-11s-42.2,21.8-31.9,49c10.3,27.2,55.5,57.5,80.6,40.9
						c25.2-16.6,13.3-68.3,7.2-76.6C-132.2,371.4-140.2,367.1-153,377.4z"/>
				</defs>
				<clipPath id="SVGID_4_">
					<use xlink:href="#SVGID_3_"  style="overflow:visible;"/>
				</clipPath>
				<path class="st4" d="M-133.2,395.6c-1.7-0.4-3.4-0.3-5.1-0.8c-1.8-0.5-3.5-1.5-5.1-2.5c-3.3-2.1-6.3-4.7-9.6-6.9
					c-6.3-4.3-13.3-7.6-20.7-9.4c-6.2-1.6-12.6-2.5-19-2.5c-6,0-12.3,1.1-17.1,4.9c-0.3,0.3,0.1,0.9,0.4,0.6
					c5.3-3.7,12.2-4.2,18.5-3.9c0.8,0,1.6,0.1,2.3,0.1c-2.9,2-3.5,5.8-3.7,9.2c-0.1,2.3,0,4.6-0.2,6.9c-0.2,2.1-1.2,4-1.4,6.1
					c-0.1,0.6,0.7,1.1,1.3,0.8c3.1-1.9,2.6-7.4,2.5-10.5c-0.1-4.6-0.1-8.8,3.2-12.3c4.9,0.5,9.8,1.5,14.5,2.9
					c1.2,0.3,2.3,0.7,3.4,1.1c-0.1,3.4-1,6.5-0.3,10c0.9,4.5,2.4,8.9,3.4,13.5c0.3,1.3,2.4,1.1,2.3-0.2c-0.3-4.5-2.3-8.7-3.6-13
					c-0.7-2.3-0.8-4.2-0.6-6.6c0.1-1.1,0.2-2.2,0-3.2c5.9,2.4,11.3,5.8,16.4,9.6c2.9,2.2,5.7,4.5,8.9,6.2c2.6,1.4,6.3,2.9,9.2,1.8
					C-132.5,397.2-132.2,395.8-133.2,395.6z"/>
			</g>
			<g>
				<defs>
					<path id="SVGID_5_" d="M-153,377.4c0,0-14.4-15-29-11s-42.2,21.8-31.9,49c10.3,27.2,55.5,57.5,80.6,40.9
						c25.2-16.6,13.3-68.3,7.2-76.6C-132.2,371.4-140.2,367.1-153,377.4z"/>
				</defs>
				<clipPath id="SVGID_6_">
					<use xlink:href="#SVGID_5_"  style="overflow:visible;"/>
				</clipPath>
				<path class="st5" d="M-108.2,420.6c-3-1.5-6.3-2.3-9.5-3.2c-4.4-1.3-8.9-2.5-13.2-4.1c-4-1.4-8-3.2-11.4-5.8
					c-3.2-2.4-4.7-5.5-4.8-9.4c0-1.1-1.7-1.4-1.9-0.3c-2,8.8,8.2,14,14.9,16.6c1.7,0.7,3.5,1.2,5.2,1.7c0.1,1.8,0.6,3.6,0.7,5.4
					c0.1,2-0.2,4.1-0.6,6.1c-1,4.1-3.4,7.7-6.7,10.2c-0.8,0.6,0.1,1.8,1,1.3c4.1-2.1,6.5-6,7.7-10.4c1-3.5,1.4-8.8-0.4-12.3
					c6.2,1.7,12.6,2.9,18.5,5.3C-108,422.2-107.4,421-108.2,420.6z"/>
			</g>
			<g>
				<defs>
					<path id="SVGID_7_" d="M-153,377.4c0,0-14.4-15-29-11s-42.2,21.8-31.9,49c10.3,27.2,55.5,57.5,80.6,40.9
						c25.2-16.6,13.3-68.3,7.2-76.6C-132.2,371.4-140.2,367.1-153,377.4z"/>
				</defs>
				<clipPath id="SVGID_8_">
					<use xlink:href="#SVGID_7_"  style="overflow:visible;"/>
				</clipPath>
				<path class="st6" d="M-195.7,421.4c-3.5-1.2-6.3-2.9-8.9-5.5c3.3-3.9,7.3-7.7,8.7-12.6c0.2-0.8-1-1.5-1.4-0.7
					c-2.8,5.3-6.7,9.7-10.2,14.5c-3.5,4.7-5.6,10-4.3,15.9c0.1,0.5,0.9,0.3,0.8-0.2c-1.1-6.2,1.9-11.3,5.6-15.9
					c1.9,3.1,5.9,4.9,9.3,6C-195.2,423.1-194.8,421.7-195.7,421.4z"/>
			</g>
		</g>
		<path class="st2" d="M-126.1,379.7c-3.8-5.2-8.4-8.8-14.4-8.3c10,13.4,14.2,30.8,13.2,47.3c-0.5,9.4-2.9,18.2-8.3,26.1
			c-4.3,6.1-9.6,11.3-15.3,16.2c6.4,0.1,12.4-1.3,17.6-4.7C-108.1,439.6-120,388-126.1,379.7z"/>
	</g>
	<path class="st7" d="M-208.8,409.6c-2.6-3.5-2.4-7.4-1.1-11.4c0.5-1.4-1.7-2.1-2.2-0.7c-1.7,4.9-1.6,9.5,1.5,13.7
		C-209.6,412.5-207.8,410.8-208.8,409.6z"/>
	<path class="st7" d="M-192.6,433.2c-2.3-2.1-4.5-4.2-6.1-6.9c-0.7-1.1-2.5-0.2-1.8,1c1.7,3,4,5.4,6.7,7.4
		C-193,435.3-191.8,433.9-192.6,433.2z"/>
	<path class="st7" d="M-190.9,357.1c-1.8-4.2-4.4-7.9-6.9-11.6c-0.7-1.1-2.5-0.2-1.8,1c2.4,3.8,4.8,7.6,6.5,11.8
		C-192.6,359.8-190.3,358.6-190.9,357.1z"/>
</g>
</svg>
