<?xml version="1.0" encoding="utf-8"?>
<!-- Generator: Adobe Illustrator 19.0.0, SVG Export Plug-In . SVG Version: 6.00 Build 0)  -->
<svg version="1.1" id="Layer_1" xmlns="http://www.w3.org/2000/svg" xmlns:xlink="http://www.w3.org/1999/xlink" x="0px" y="0px"
	 viewBox="-235 332.1 139.4 128.9" style="enable-background:new -235 332.1 139.4 128.9;" xml:space="preserve">
<style type="text/css">
	.st0{fill:#F93D44;}
	.st1{opacity:0.3;clip-path:url(#SVGID_2_);fill:#F93D44;enable-background:new    ;}
	.st2{opacity:0.3;clip-path:url(#SVGID_4_);fill:#F93D44;enable-background:new    ;}
	.st3{opacity:0.3;clip-path:url(#SVGID_6_);fill:#F93D44;enable-background:new    ;}
	.st4{opacity:0.3;clip-path:url(#SVGID_8_);fill:#F93D44;enable-background:new    ;}
	.st5{opacity:0.3;clip-path:url(#SVGID_10_);fill:#F93D44;enable-background:new    ;}
	.st6{opacity:0.3;clip-path:url(#SVGID_12_);fill:#F93D44;enable-background:new    ;}
	.st7{opacity:0.3;clip-path:url(#SVGID_14_);fill:#F93D44;enable-background:new    ;}
	.st8{opacity:0.3;clip-path:url(#SVGID_16_);fill:#F93D44;enable-background:new    ;}
	.st9{opacity:0.3;clip-path:url(#SVGID_18_);fill:#F93D44;enable-background:new    ;}
	.st10{opacity:0.3;clip-path:url(#SVGID_20_);fill:#F93D44;enable-background:new    ;}
	.st11{opacity:0.3;clip-path:url(#SVGID_22_);fill:#F93D44;enable-background:new    ;}
	.st12{opacity:0.3;clip-path:url(#SVGID_24_);fill:#F93D44;enable-background:new    ;}
	.st13{opacity:0.3;clip-path:url(#SVGID_26_);fill:#F93D44;enable-background:new    ;}
	.st14{opacity:0.3;clip-path:url(#SVGID_28_);fill:#F93D44;enable-background:new    ;}
	.st15{opacity:0.3;clip-path:url(#SVGID_30_);fill:#F93D44;enable-background:new    ;}
	.st16{fill:#EC424C;}
	.st17{opacity:0.3;clip-path:url(#SVGID_32_);fill:#F93D44;enable-background:new    ;}
	.st18{opacity:0.3;clip-path:url(#SVGID_34_);fill:#F93D44;enable-background:new    ;}
	.st19{opacity:0.3;clip-path:url(#SVGID_36_);fill:#F93D44;enable-background:new    ;}
	.st20{opacity:0.3;clip-path:url(#SVGID_38_);fill:#F93D44;enable-background:new    ;}
	.st21{opacity:0.3;clip-path:url(#SVGID_40_);fill:#F93D44;enable-background:new    ;}
	.st22{opacity:0.3;clip-path:url(#SVGID_42_);fill:#F93D44;enable-background:new    ;}
	.st23{opacity:0.3;clip-path:url(#SVGID_44_);fill:#F93D44;enable-background:new    ;}
	.st24{opacity:0.3;clip-path:url(#SVGID_46_);fill:#F93D44;enable-background:new    ;}
	.st25{opacity:0.3;clip-path:url(#SVGID_48_);fill:#F93D44;enable-background:new    ;}
	.st26{opacity:0.3;clip-path:url(#SVGID_50_);fill:#F93D44;enable-background:new    ;}
	.st27{opacity:0.3;clip-path:url(#SVGID_52_);fill:#F93D44;enable-background:new    ;}
	.st28{opacity:0.3;clip-path:url(#SVGID_54_);fill:#F93D44;enable-background:new    ;}
	.st29{opacity:0.3;clip-path:url(#SVGID_56_);fill:#F93D44;enable-background:new    ;}
	.st30{opacity:0.3;clip-path:url(#SVGID_58_);fill:#F93D44;enable-background:new    ;}
	.st31{opacity:0.3;clip-path:url(#SVGID_60_);fill:#F93D44;enable-background:new    ;}
	.st32{opacity:0.1;fill:#F93D44;enable-background:new    ;}
</style>
<g>
	<g>
		<g>
			<path id="XMLID_20_" class="st0" d="M-174.2,456.2c0,0-0.2-0.4-0.5-1c-5.6-10.8-10.4-22.8-10.2-35.2c0.1-5.8,1.6-12,6.8-15.3
				c4.8-3,11-2.6,16.4-2c5.4,0.6,10.7,2,16.1,2.6c2.3,0.3,5.3,0.9,7.5-0.1c3.5-1.5,8.7-6.4,9.6-9.7c1.1-3.7,1.5-7.5,1.9-11.4
				c0.6-6,3.1-13.7-0.1-19.3c-2.7-4.7-9.6,0.6-12.3,2.7c-19.6,14.9-52.1,8.6-62.6-0.7c-5.7-5-7-0.4-6.6,5c0.5,7.4,0.8,14.6,2.6,21.7
				c1.4,5.3,4,18.5-3,21.2c-6.3,2.4-11.4,3.3-18,0.1c-7-3.4-6.8-11-5.8-17.8c1.2-7.8,2.5-15.6,4.4-23.3c2.3-9.6,2.4-21.5,8.1-29.9
				c5.1-7.4,13.9-6.6,21.3-2.9c14.7,7.5,28.8,24,46.4,14.9c5.8-3,10.6-7.9,15.9-11.5c5.8-3.9,16.1-10.5,21.4-2.2
				c3.5,5.5,4.2,12.9,5.1,19.2c1,7.4,1.4,14.9,1.4,22.4c0,6.5-0.1,13.1-0.5,19.6c-0.3,5.5-0.9,12.2-5,16.3
				c-5.8,5.8-14.5,7.9-22.5,7.4c-4-0.2-8.1-0.9-11.9-2.5c-3.9-1.6-8-4.5-12.2-5.1c-6.3-0.9-8,8.8-8.7,13.1c-0.9,5.6,0.8,11.3,0.6,17
				C-168.6,452.1-170.2,459.6-174.2,456.2z"/>
		</g>
		<g>
			<defs>
				<path id="SVGID_1_" d="M-174.2,456.2c0,0-0.2-0.4-0.5-1c-5.6-10.8-10.4-22.8-10.2-35.2c0.1-5.8,1.6-12,6.8-15.3
					c4.8-3,11-2.6,16.4-2c5.4,0.6,10.7,2,16.1,2.6c2.3,0.3,5.3,0.9,7.5-0.1c3.5-1.5,8.7-6.4,9.6-9.7c1.1-3.7,1.5-7.5,1.9-11.4
					c0.6-6,3.1-13.7-0.1-19.3c-2.7-4.7-9.6,0.6-12.3,2.7c-19.6,14.9-52.1,8.6-62.6-0.7c-5.7-5-7-0.4-6.6,5
					c0.5,7.4,0.8,14.6,2.6,21.7c1.4,5.3,4,18.5-3,21.2c-6.3,2.4-11.4,3.3-18,0.1c-7-3.4-6.8-11-5.8-17.8c1.2-7.8,2.5-15.6,4.4-23.3
					c2.3-9.6,2.4-21.5,8.1-29.9c5.1-7.4,13.9-6.6,21.3-2.9c14.7,7.5,28.8,24,46.4,14.9c5.8-3,10.6-7.9,15.9-11.5
					c5.8-3.9,16.1-10.5,21.4-2.2c3.5,5.5,4.2,12.9,5.1,19.2c1,7.4,1.4,14.9,1.4,22.4c0,6.5-0.1,13.1-0.5,19.6
					c-0.3,5.5-0.9,12.2-5,16.3c-5.8,5.8-14.5,7.9-22.5,7.4c-4-0.2-8.1-0.9-11.9-2.5c-3.9-1.6-8-4.5-12.2-5.1
					c-6.3-0.9-8,8.8-8.7,13.1c-0.9,5.6,0.8,11.3,0.6,17C-168.6,452.1-170.2,459.6-174.2,456.2z"/>
			</defs>
			<clipPath id="SVGID_2_">
				<use xlink:href="#SVGID_1_"  style="overflow:visible;"/>
			</clipPath>
			<path class="st1" d="M-199.1,399.9c-5.4,5.4-11.5,5.8-17.8,1.5c-0.2-0.2-0.5-0.1-0.7,0.1c-3,2.9-6.4,4.9-10.6,4.1
				c-4.5-0.8-8-6.6-7.5-10.8c0-0.2-0.3-0.2-0.3-0.1c-1.2,3.4,0.8,6.6,3,9.1c2.8,3.2,7,3.6,10.9,2.3c1.7-0.6,3.2-1.7,4.5-2.9
				c0.9-0.7,5.6,2.1,6.9,2.3c5.1,0.8,9.1-1.1,12.7-4.6C-197.4,400.3-198.4,399.3-199.1,399.9z"/>
		</g>
		<g>
			<defs>
				<path id="SVGID_3_" d="M-174.2,456.2c0,0-0.2-0.4-0.5-1c-5.6-10.8-10.4-22.8-10.2-35.2c0.1-5.8,1.6-12,6.8-15.3
					c4.8-3,11-2.6,16.4-2c5.4,0.6,10.7,2,16.1,2.6c2.3,0.3,5.3,0.9,7.5-0.1c3.5-1.5,8.7-6.4,9.6-9.7c1.1-3.7,1.5-7.5,1.9-11.4
					c0.6-6,3.1-13.7-0.1-19.3c-2.7-4.7-9.6,0.6-12.3,2.7c-19.6,14.9-52.1,8.6-62.6-0.7c-5.7-5-7-0.4-6.6,5
					c0.5,7.4,0.8,14.6,2.6,21.7c1.4,5.3,4,18.5-3,21.2c-6.3,2.4-11.4,3.3-18,0.1c-7-3.4-6.8-11-5.8-17.8c1.2-7.8,2.5-15.6,4.4-23.3
					c2.3-9.6,2.4-21.5,8.1-29.9c5.1-7.4,13.9-6.6,21.3-2.9c14.7,7.5,28.8,24,46.4,14.9c5.8-3,10.6-7.9,15.9-11.5
					c5.8-3.9,16.1-10.5,21.4-2.2c3.5,5.5,4.2,12.9,5.1,19.2c1,7.4,1.4,14.9,1.4,22.4c0,6.5-0.1,13.1-0.5,19.6
					c-0.3,5.5-0.9,12.2-5,16.3c-5.8,5.8-14.5,7.9-22.5,7.4c-4-0.2-8.1-0.9-11.9-2.5c-3.9-1.6-8-4.5-12.2-5.1
					c-6.3-0.9-8,8.8-8.7,13.1c-0.9,5.6,0.8,11.3,0.6,17C-168.6,452.1-170.2,459.6-174.2,456.2z"/>
			</defs>
			<clipPath id="SVGID_4_">
				<use xlink:href="#SVGID_3_"  style="overflow:visible;"/>
			</clipPath>
			<path class="st2" d="M-195.9,390.2c-2.8-2.7-6.3-3.9-10.1-4.4c-1.8-0.2-3.7,0-5.5,0.4c-3.2,0.7-4.4,2.8-7.8,1
				c-3.2-1.7-5.3-3.1-9.1-2.1c-2.6,0.7-5.2,2.6-5.9,5.2c-0.1,0.5,0.6,0.7,0.7,0.2c1.8-5.5,8.7-5.2,12.5-2.7c1.2,0.7,3.3,2.4,4.8,2.1
				c3.1-0.6,5.4-2.4,8.8-2.5c4-0.1,7.3,1.9,10.5,3.9C-196.1,391.7-195.3,390.8-195.9,390.2z"/>
		</g>
		<g>
			<defs>
				<path id="SVGID_5_" d="M-174.2,456.2c0,0-0.2-0.4-0.5-1c-5.6-10.8-10.4-22.8-10.2-35.2c0.1-5.8,1.6-12,6.8-15.3
					c4.8-3,11-2.6,16.4-2c5.4,0.6,10.7,2,16.1,2.6c2.3,0.3,5.3,0.9,7.5-0.1c3.5-1.5,8.7-6.4,9.6-9.7c1.1-3.7,1.5-7.5,1.9-11.4
					c0.6-6,3.1-13.7-0.1-19.3c-2.7-4.7-9.6,0.6-12.3,2.7c-19.6,14.9-52.1,8.6-62.6-0.7c-5.7-5-7-0.4-6.6,5
					c0.5,7.4,0.8,14.6,2.6,21.7c1.4,5.3,4,18.5-3,21.2c-6.3,2.4-11.4,3.3-18,0.1c-7-3.4-6.8-11-5.8-17.8c1.2-7.8,2.5-15.6,4.4-23.3
					c2.3-9.6,2.4-21.5,8.1-29.9c5.1-7.4,13.9-6.6,21.3-2.9c14.7,7.5,28.8,24,46.4,14.9c5.8-3,10.6-7.9,15.9-11.5
					c5.8-3.9,16.1-10.5,21.4-2.2c3.5,5.5,4.2,12.9,5.1,19.2c1,7.4,1.4,14.9,1.4,22.4c0,6.5-0.1,13.1-0.5,19.6
					c-0.3,5.5-0.9,12.2-5,16.3c-5.8,5.8-14.5,7.9-22.5,7.4c-4-0.2-8.1-0.9-11.9-2.5c-3.9-1.6-8-4.5-12.2-5.1
					c-6.3-0.9-8,8.8-8.7,13.1c-0.9,5.6,0.8,11.3,0.6,17C-168.6,452.1-170.2,459.6-174.2,456.2z"/>
			</defs>
			<clipPath id="SVGID_6_">
				<use xlink:href="#SVGID_5_"  style="overflow:visible;"/>
			</clipPath>
			<path class="st3" d="M-203.5,377.4c-1.1-3.8-5.3-6.1-9.1-6.6c-1.4-0.2-2.5,0-3.9,0.2c-3.1,0.5-4.3-1.7-6-3.4
				c-1.8-1.8-4.1-1.5-6.5-1.7c-0.5,0-0.5,0.7,0,0.8c3.9,0.6,5.5,1.6,7.9,4.3c0.5,0.6,1.4,1.4,2.2,1.5c2.4,0.3,4.7-0.5,7.1,0.1
				c3,0.7,5.7,2.5,6.9,5.4C-204.6,378.7-203.2,378.2-203.5,377.4z"/>
		</g>
		<g>
			<defs>
				<path id="SVGID_7_" d="M-174.2,456.2c0,0-0.2-0.4-0.5-1c-5.6-10.8-10.4-22.8-10.2-35.2c0.1-5.8,1.6-12,6.8-15.3
					c4.8-3,11-2.6,16.4-2c5.4,0.6,10.7,2,16.1,2.6c2.3,0.3,5.3,0.9,7.5-0.1c3.5-1.5,8.7-6.4,9.6-9.7c1.1-3.7,1.5-7.5,1.9-11.4
					c0.6-6,3.1-13.7-0.1-19.3c-2.7-4.7-9.6,0.6-12.3,2.7c-19.6,14.9-52.1,8.6-62.6-0.7c-5.7-5-7-0.4-6.6,5
					c0.5,7.4,0.8,14.6,2.6,21.7c1.4,5.3,4,18.5-3,21.2c-6.3,2.4-11.4,3.3-18,0.1c-7-3.4-6.8-11-5.8-17.8c1.2-7.8,2.5-15.6,4.4-23.3
					c2.3-9.6,2.4-21.5,8.1-29.9c5.1-7.4,13.9-6.6,21.3-2.9c14.7,7.5,28.8,24,46.4,14.9c5.8-3,10.6-7.9,15.9-11.5
					c5.8-3.9,16.1-10.5,21.4-2.2c3.5,5.5,4.2,12.9,5.1,19.2c1,7.4,1.4,14.9,1.4,22.4c0,6.5-0.1,13.1-0.5,19.6
					c-0.3,5.5-0.9,12.2-5,16.3c-5.8,5.8-14.5,7.9-22.5,7.4c-4-0.2-8.1-0.9-11.9-2.5c-3.9-1.6-8-4.5-12.2-5.1
					c-6.3-0.9-8,8.8-8.7,13.1c-0.9,5.6,0.8,11.3,0.6,17C-168.6,452.1-170.2,459.6-174.2,456.2z"/>
			</defs>
			<clipPath id="SVGID_8_">
				<use xlink:href="#SVGID_7_"  style="overflow:visible;"/>
			</clipPath>
			<path class="st4" d="M-207,360.6c-1.7-2.9-5.2-2.3-4.5-7c1.2-7.5-1.6-12.9-4.3-19.6c-0.4-0.9-1.8-0.2-1.4,0.7
				c1.4,3.2,2.9,6.3,4,9.6c1.3,4.1-0.1,6.8,0,10.7c0,1.3-0.2,2,0.9,2.8c3.2,2.6,5.7,4.5,6.2,8.9c0,0.4,0.7,0.3,0.7-0.1
				C-205.4,364.5-205.9,362.6-207,360.6z"/>
		</g>
		<g>
			<defs>
				<path id="SVGID_9_" d="M-174.2,456.2c0,0-0.2-0.4-0.5-1c-5.6-10.8-10.4-22.8-10.2-35.2c0.1-5.8,1.6-12,6.8-15.3
					c4.8-3,11-2.6,16.4-2c5.4,0.6,10.7,2,16.1,2.6c2.3,0.3,5.3,0.9,7.5-0.1c3.5-1.5,8.7-6.4,9.6-9.7c1.1-3.7,1.5-7.5,1.9-11.4
					c0.6-6,3.1-13.7-0.1-19.3c-2.7-4.7-9.6,0.6-12.3,2.7c-19.6,14.9-52.1,8.6-62.6-0.7c-5.7-5-7-0.4-6.6,5
					c0.5,7.4,0.8,14.6,2.6,21.7c1.4,5.3,4,18.5-3,21.2c-6.3,2.4-11.4,3.3-18,0.1c-7-3.4-6.8-11-5.8-17.8c1.2-7.8,2.5-15.6,4.4-23.3
					c2.3-9.6,2.4-21.5,8.1-29.9c5.1-7.4,13.9-6.6,21.3-2.9c14.7,7.5,28.8,24,46.4,14.9c5.8-3,10.6-7.9,15.9-11.5
					c5.8-3.9,16.1-10.5,21.4-2.2c3.5,5.5,4.2,12.9,5.1,19.2c1,7.4,1.4,14.9,1.4,22.4c0,6.5-0.1,13.1-0.5,19.6
					c-0.3,5.5-0.9,12.2-5,16.3c-5.8,5.8-14.5,7.9-22.5,7.4c-4-0.2-8.1-0.9-11.9-2.5c-3.9-1.6-8-4.5-12.2-5.1
					c-6.3-0.9-8,8.8-8.7,13.1c-0.9,5.6,0.8,11.3,0.6,17C-168.6,452.1-170.2,459.6-174.2,456.2z"/>
			</defs>
			<clipPath id="SVGID_10_">
				<use xlink:href="#SVGID_9_"  style="overflow:visible;"/>
			</clipPath>
			<path class="st5" d="M-184.9,333.7c0.1-0.5-0.6-0.8-0.8-0.3c-2.7,7.4-2.3,15.5-6.5,22.5c-0.9,1.5-1.9,2.4-1.5,4.2
				c0.1,0.5,1,1.6,1.4,2c2.5,3.2,0.8,7.6-1.5,10.2c-0.1,0.1,0,0.3,0.2,0.2c1.6-1.7,2.9-4,3.1-6.4c0.2-3.3-3.1-5.9-1.2-9
				C-187.3,350.1-186.7,341.7-184.9,333.7z"/>
		</g>
		<g>
			<defs>
				<path id="SVGID_11_" d="M-174.2,456.2c0,0-0.2-0.4-0.5-1c-5.6-10.8-10.4-22.8-10.2-35.2c0.1-5.8,1.6-12,6.8-15.3
					c4.8-3,11-2.6,16.4-2c5.4,0.6,10.7,2,16.1,2.6c2.3,0.3,5.3,0.9,7.5-0.1c3.5-1.5,8.7-6.4,9.6-9.7c1.1-3.7,1.5-7.5,1.9-11.4
					c0.6-6,3.1-13.7-0.1-19.3c-2.7-4.7-9.6,0.6-12.3,2.7c-19.6,14.9-52.1,8.6-62.6-0.7c-5.7-5-7-0.4-6.6,5
					c0.5,7.4,0.8,14.6,2.6,21.7c1.4,5.3,4,18.5-3,21.2c-6.3,2.4-11.4,3.3-18,0.1c-7-3.4-6.8-11-5.8-17.8c1.2-7.8,2.5-15.6,4.4-23.3
					c2.3-9.6,2.4-21.5,8.1-29.9c5.1-7.4,13.9-6.6,21.3-2.9c14.7,7.5,28.8,24,46.4,14.9c5.8-3,10.6-7.9,15.9-11.5
					c5.8-3.9,16.1-10.5,21.4-2.2c3.5,5.5,4.2,12.9,5.1,19.2c1,7.4,1.4,14.9,1.4,22.4c0,6.5-0.1,13.1-0.5,19.6
					c-0.3,5.5-0.9,12.2-5,16.3c-5.8,5.8-14.5,7.9-22.5,7.4c-4-0.2-8.1-0.9-11.9-2.5c-3.9-1.6-8-4.5-12.2-5.1
					c-6.3-0.9-8,8.8-8.7,13.1c-0.9,5.6,0.8,11.3,0.6,17C-168.6,452.1-170.2,459.6-174.2,456.2z"/>
			</defs>
			<clipPath id="SVGID_12_">
				<use xlink:href="#SVGID_11_"  style="overflow:visible;"/>
			</clipPath>
			<path class="st6" d="M-170.7,346.4c-4.2,5.8-3.3,12.6-3.2,19.3c0,3.2-1.6,5.8-1.2,9.1c0.3,2.8,2.2,4.9,4.2,6.6
				c0.2,0.2,0.5-0.2,0.3-0.4c-2.4-2.6-3.7-5.1-3.5-8.7c0.1-2.7,1.5-5,1.5-7.7c0-2.3-0.4-4.5-0.3-6.8c0.2-3.8,1.4-7.2,3.1-10.6
				C-169.4,346.3-170.2,345.7-170.7,346.4z"/>
		</g>
		<g>
			<defs>
				<path id="SVGID_13_" d="M-174.2,456.2c0,0-0.2-0.4-0.5-1c-5.6-10.8-10.4-22.8-10.2-35.2c0.1-5.8,1.6-12,6.8-15.3
					c4.8-3,11-2.6,16.4-2c5.4,0.6,10.7,2,16.1,2.6c2.3,0.3,5.3,0.9,7.5-0.1c3.5-1.5,8.7-6.4,9.6-9.7c1.1-3.7,1.5-7.5,1.9-11.4
					c0.6-6,3.1-13.7-0.1-19.3c-2.7-4.7-9.6,0.6-12.3,2.7c-19.6,14.9-52.1,8.6-62.6-0.7c-5.7-5-7-0.4-6.6,5
					c0.5,7.4,0.8,14.6,2.6,21.7c1.4,5.3,4,18.5-3,21.2c-6.3,2.4-11.4,3.3-18,0.1c-7-3.4-6.8-11-5.8-17.8c1.2-7.8,2.5-15.6,4.4-23.3
					c2.3-9.6,2.4-21.5,8.1-29.9c5.1-7.4,13.9-6.6,21.3-2.9c14.7,7.5,28.8,24,46.4,14.9c5.8-3,10.6-7.9,15.9-11.5
					c5.8-3.9,16.1-10.5,21.4-2.2c3.5,5.5,4.2,12.9,5.1,19.2c1,7.4,1.4,14.9,1.4,22.4c0,6.5-0.1,13.1-0.5,19.6
					c-0.3,5.5-0.9,12.2-5,16.3c-5.8,5.8-14.5,7.9-22.5,7.4c-4-0.2-8.1-0.9-11.9-2.5c-3.9-1.6-8-4.5-12.2-5.1
					c-6.3-0.9-8,8.8-8.7,13.1c-0.9,5.6,0.8,11.3,0.6,17C-168.6,452.1-170.2,459.6-174.2,456.2z"/>
			</defs>
			<clipPath id="SVGID_14_">
				<use xlink:href="#SVGID_13_"  style="overflow:visible;"/>
			</clipPath>
			<path class="st7" d="M-149.1,367.4c-1.7-2.5-5.3-3.9-5.6-7.1c-0.2-2.9-1.4-4.7-2.2-7.4c-0.1-0.4-0.8-0.4-0.8,0.1
				c0.2,2.2,1.5,3.9,1.6,6.1c0.1,1.1-0.3,2.9,0.4,3.9c1.7,2.3,4.2,3.8,5.9,6.2c2.1,3.1,3.1,7.8,2.2,11.4c-0.2,0.6,0.7,1,1,0.5
				C-144.2,376.8-146.6,371-149.1,367.4z"/>
		</g>
		<g>
			<defs>
				<path id="SVGID_15_" d="M-174.2,456.2c0,0-0.2-0.4-0.5-1c-5.6-10.8-10.4-22.8-10.2-35.2c0.1-5.8,1.6-12,6.8-15.3
					c4.8-3,11-2.6,16.4-2c5.4,0.6,10.7,2,16.1,2.6c2.3,0.3,5.3,0.9,7.5-0.1c3.5-1.5,8.7-6.4,9.6-9.7c1.1-3.7,1.5-7.5,1.9-11.4
					c0.6-6,3.1-13.7-0.1-19.3c-2.7-4.7-9.6,0.6-12.3,2.7c-19.6,14.9-52.1,8.6-62.6-0.7c-5.7-5-7-0.4-6.6,5
					c0.5,7.4,0.8,14.6,2.6,21.7c1.4,5.3,4,18.5-3,21.2c-6.3,2.4-11.4,3.3-18,0.1c-7-3.4-6.8-11-5.8-17.8c1.2-7.8,2.5-15.6,4.4-23.3
					c2.3-9.6,2.4-21.5,8.1-29.9c5.1-7.4,13.9-6.6,21.3-2.9c14.7,7.5,28.8,24,46.4,14.9c5.8-3,10.6-7.9,15.9-11.5
					c5.8-3.9,16.1-10.5,21.4-2.2c3.5,5.5,4.2,12.9,5.1,19.2c1,7.4,1.4,14.9,1.4,22.4c0,6.5-0.1,13.1-0.5,19.6
					c-0.3,5.5-0.9,12.2-5,16.3c-5.8,5.8-14.5,7.9-22.5,7.4c-4-0.2-8.1-0.9-11.9-2.5c-3.9-1.6-8-4.5-12.2-5.1
					c-6.3-0.9-8,8.8-8.7,13.1c-0.9,5.6,0.8,11.3,0.6,17C-168.6,452.1-170.2,459.6-174.2,456.2z"/>
			</defs>
			<clipPath id="SVGID_16_">
				<use xlink:href="#SVGID_15_"  style="overflow:visible;"/>
			</clipPath>
			<path class="st8" d="M-145.1,345c-0.7-0.7-1.7,0.3-1.1,1c6.5,6.7,10.2,13.1,11.8,22.3c0,0.2,0.4,0.2,0.4,0
				C-132.9,359.3-139,350.9-145.1,345z"/>
		</g>
		<g>
			<defs>
				<path id="SVGID_17_" d="M-174.2,456.2c0,0-0.2-0.4-0.5-1c-5.6-10.8-10.4-22.8-10.2-35.2c0.1-5.8,1.6-12,6.8-15.3
					c4.8-3,11-2.6,16.4-2c5.4,0.6,10.7,2,16.1,2.6c2.3,0.3,5.3,0.9,7.5-0.1c3.5-1.5,8.7-6.4,9.6-9.7c1.1-3.7,1.5-7.5,1.9-11.4
					c0.6-6,3.1-13.7-0.1-19.3c-2.7-4.7-9.6,0.6-12.3,2.7c-19.6,14.9-52.1,8.6-62.6-0.7c-5.7-5-7-0.4-6.6,5
					c0.5,7.4,0.8,14.6,2.6,21.7c1.4,5.3,4,18.5-3,21.2c-6.3,2.4-11.4,3.3-18,0.1c-7-3.4-6.8-11-5.8-17.8c1.2-7.8,2.5-15.6,4.4-23.3
					c2.3-9.6,2.4-21.5,8.1-29.9c5.1-7.4,13.9-6.6,21.3-2.9c14.7,7.5,28.8,24,46.4,14.9c5.8-3,10.6-7.9,15.9-11.5
					c5.8-3.9,16.1-10.5,21.4-2.2c3.5,5.5,4.2,12.9,5.1,19.2c1,7.4,1.4,14.9,1.4,22.4c0,6.5-0.1,13.1-0.5,19.6
					c-0.3,5.5-0.9,12.2-5,16.3c-5.8,5.8-14.5,7.9-22.5,7.4c-4-0.2-8.1-0.9-11.9-2.5c-3.9-1.6-8-4.5-12.2-5.1
					c-6.3-0.9-8,8.8-8.7,13.1c-0.9,5.6,0.8,11.3,0.6,17C-168.6,452.1-170.2,459.6-174.2,456.2z"/>
			</defs>
			<clipPath id="SVGID_18_">
				<use xlink:href="#SVGID_17_"  style="overflow:visible;"/>
			</clipPath>
			<path class="st9" d="M-110.6,334.6c-2.2,6.2-2.3,22.6-11.7,22.5c-1.4,0-2,1-2.5,2.2c-0.5,1.2-0.6,2.8-0.9,4.1
				c-0.4,1.9-1.7,3.7-2.5,5.4c-0.1,0.2,0.1,0.4,0.3,0.2c1.7-1.9,3-3.8,3.7-6.3c0.5-1.8,0.5-3.8,3.2-4.1c1.3-0.1,2.6-0.5,3.5-1.4
				c6.1-5.4,6.7-14.8,8.6-22.2C-108.6,334-110.2,333.5-110.6,334.6z"/>
		</g>
		<g>
			<defs>
				<path id="SVGID_19_" d="M-174.2,456.2c0,0-0.2-0.4-0.5-1c-5.6-10.8-10.4-22.8-10.2-35.2c0.1-5.8,1.6-12,6.8-15.3
					c4.8-3,11-2.6,16.4-2c5.4,0.6,10.7,2,16.1,2.6c2.3,0.3,5.3,0.9,7.5-0.1c3.5-1.5,8.7-6.4,9.6-9.7c1.1-3.7,1.5-7.5,1.9-11.4
					c0.6-6,3.1-13.7-0.1-19.3c-2.7-4.7-9.6,0.6-12.3,2.7c-19.6,14.9-52.1,8.6-62.6-0.7c-5.7-5-7-0.4-6.6,5
					c0.5,7.4,0.8,14.6,2.6,21.7c1.4,5.3,4,18.5-3,21.2c-6.3,2.4-11.4,3.3-18,0.1c-7-3.4-6.8-11-5.8-17.8c1.2-7.8,2.5-15.6,4.4-23.3
					c2.3-9.6,2.4-21.5,8.1-29.9c5.1-7.4,13.9-6.6,21.3-2.9c14.7,7.5,28.8,24,46.4,14.9c5.8-3,10.6-7.9,15.9-11.5
					c5.8-3.9,16.1-10.5,21.4-2.2c3.5,5.5,4.2,12.9,5.1,19.2c1,7.4,1.4,14.9,1.4,22.4c0,6.5-0.1,13.1-0.5,19.6
					c-0.3,5.5-0.9,12.2-5,16.3c-5.8,5.8-14.5,7.9-22.5,7.4c-4-0.2-8.1-0.9-11.9-2.5c-3.9-1.6-8-4.5-12.2-5.1
					c-6.3-0.9-8,8.8-8.7,13.1c-0.9,5.6,0.8,11.3,0.6,17C-168.6,452.1-170.2,459.6-174.2,456.2z"/>
			</defs>
			<clipPath id="SVGID_20_">
				<use xlink:href="#SVGID_19_"  style="overflow:visible;"/>
			</clipPath>
			<path class="st10" d="M-96.2,376.8c-6.2,1.5-11.2,0.1-17.2-1c-1.2-0.2-2.5,0.1-3.7,0.3c-3.7,0.8-6.6,1.3-10.2-0.6
				c-0.3-0.2-0.6,0.3-0.3,0.5c5.1,3.6,9.3,0.2,14.8,1.4c5.8,1.2,11.1,3,17,1C-94.8,378-95.1,376.5-96.2,376.8z"/>
		</g>
		<g>
			<defs>
				<path id="SVGID_21_" d="M-174.2,456.2c0,0-0.2-0.4-0.5-1c-5.6-10.8-10.4-22.8-10.2-35.2c0.1-5.8,1.6-12,6.8-15.3
					c4.8-3,11-2.6,16.4-2c5.4,0.6,10.7,2,16.1,2.6c2.3,0.3,5.3,0.9,7.5-0.1c3.5-1.5,8.7-6.4,9.6-9.7c1.1-3.7,1.5-7.5,1.9-11.4
					c0.6-6,3.1-13.7-0.1-19.3c-2.7-4.7-9.6,0.6-12.3,2.7c-19.6,14.9-52.1,8.6-62.6-0.7c-5.7-5-7-0.4-6.6,5
					c0.5,7.4,0.8,14.6,2.6,21.7c1.4,5.3,4,18.5-3,21.2c-6.3,2.4-11.4,3.3-18,0.1c-7-3.4-6.8-11-5.8-17.8c1.2-7.8,2.5-15.6,4.4-23.3
					c2.3-9.6,2.4-21.5,8.1-29.9c5.1-7.4,13.9-6.6,21.3-2.9c14.7,7.5,28.8,24,46.4,14.9c5.8-3,10.6-7.9,15.9-11.5
					c5.8-3.9,16.1-10.5,21.4-2.2c3.5,5.5,4.2,12.9,5.1,19.2c1,7.4,1.4,14.9,1.4,22.4c0,6.5-0.1,13.1-0.5,19.6
					c-0.3,5.5-0.9,12.2-5,16.3c-5.8,5.8-14.5,7.9-22.5,7.4c-4-0.2-8.1-0.9-11.9-2.5c-3.9-1.6-8-4.5-12.2-5.1
					c-6.3-0.9-8,8.8-8.7,13.1c-0.9,5.6,0.8,11.3,0.6,17C-168.6,452.1-170.2,459.6-174.2,456.2z"/>
			</defs>
			<clipPath id="SVGID_22_">
				<use xlink:href="#SVGID_21_"  style="overflow:visible;"/>
			</clipPath>
			<path class="st11" d="M-99.3,400.1c-6.1,3-11.6,0.7-17.9,0.2c-2.8-0.2-5.2-0.3-7.8-1.8c-2-1.1-3.7-2.6-5.7-3.8
				c-0.6-0.4-1.2,0.5-0.6,1c4.9,3.4,7.9,6.1,14,6.5c6.5,0.4,12.7,3.6,18.7-0.6C-97.8,400.9-98.4,399.7-99.3,400.1z"/>
		</g>
		<g>
			<defs>
				<path id="SVGID_23_" d="M-174.2,456.2c0,0-0.2-0.4-0.5-1c-5.6-10.8-10.4-22.8-10.2-35.2c0.1-5.8,1.6-12,6.8-15.3
					c4.8-3,11-2.6,16.4-2c5.4,0.6,10.7,2,16.1,2.6c2.3,0.3,5.3,0.9,7.5-0.1c3.5-1.5,8.7-6.4,9.6-9.7c1.1-3.7,1.5-7.5,1.9-11.4
					c0.6-6,3.1-13.7-0.1-19.3c-2.7-4.7-9.6,0.6-12.3,2.7c-19.6,14.9-52.1,8.6-62.6-0.7c-5.7-5-7-0.4-6.6,5
					c0.5,7.4,0.8,14.6,2.6,21.7c1.4,5.3,4,18.5-3,21.2c-6.3,2.4-11.4,3.3-18,0.1c-7-3.4-6.8-11-5.8-17.8c1.2-7.8,2.5-15.6,4.4-23.3
					c2.3-9.6,2.4-21.5,8.1-29.9c5.1-7.4,13.9-6.6,21.3-2.9c14.7,7.5,28.8,24,46.4,14.9c5.8-3,10.6-7.9,15.9-11.5
					c5.8-3.9,16.1-10.5,21.4-2.2c3.5,5.5,4.2,12.9,5.1,19.2c1,7.4,1.4,14.9,1.4,22.4c0,6.5-0.1,13.1-0.5,19.6
					c-0.3,5.5-0.9,12.2-5,16.3c-5.8,5.8-14.5,7.9-22.5,7.4c-4-0.2-8.1-0.9-11.9-2.5c-3.9-1.6-8-4.5-12.2-5.1
					c-6.3-0.9-8,8.8-8.7,13.1c-0.9,5.6,0.8,11.3,0.6,17C-168.6,452.1-170.2,459.6-174.2,456.2z"/>
			</defs>
			<clipPath id="SVGID_24_">
				<use xlink:href="#SVGID_23_"  style="overflow:visible;"/>
			</clipPath>
			<path class="st12" d="M-111.4,431.5c-6.8-3.6-12.4-8.9-15.6-16c-1.2-2.6-0.7-4.4-2.9-6.3c-2.6-2.2-6.4-3.3-7.3-7
				c-0.1-0.3-0.5-0.2-0.5,0c0,2.2,1.3,3.7,3,5c1.5,1.1,3,2.2,4.4,3.4c1.1,1.1,1.3,4,1.9,5.6c2.6,6.8,9.4,14.3,16.6,16.3
				C-111.3,432.8-110.8,431.8-111.4,431.5z"/>
		</g>
		<g>
			<defs>
				<path id="SVGID_25_" d="M-174.2,456.2c0,0-0.2-0.4-0.5-1c-5.6-10.8-10.4-22.8-10.2-35.2c0.1-5.8,1.6-12,6.8-15.3
					c4.8-3,11-2.6,16.4-2c5.4,0.6,10.7,2,16.1,2.6c2.3,0.3,5.3,0.9,7.5-0.1c3.5-1.5,8.7-6.4,9.6-9.7c1.1-3.7,1.5-7.5,1.9-11.4
					c0.6-6,3.1-13.7-0.1-19.3c-2.7-4.7-9.6,0.6-12.3,2.7c-19.6,14.9-52.1,8.6-62.6-0.7c-5.7-5-7-0.4-6.6,5
					c0.5,7.4,0.8,14.6,2.6,21.7c1.4,5.3,4,18.5-3,21.2c-6.3,2.4-11.4,3.3-18,0.1c-7-3.4-6.8-11-5.8-17.8c1.2-7.8,2.5-15.6,4.4-23.3
					c2.3-9.6,2.4-21.5,8.1-29.9c5.1-7.4,13.9-6.6,21.3-2.9c14.7,7.5,28.8,24,46.4,14.9c5.8-3,10.6-7.9,15.9-11.5
					c5.8-3.9,16.1-10.5,21.4-2.2c3.5,5.5,4.2,12.9,5.1,19.2c1,7.4,1.4,14.9,1.4,22.4c0,6.5-0.1,13.1-0.5,19.6
					c-0.3,5.5-0.9,12.2-5,16.3c-5.8,5.8-14.5,7.9-22.5,7.4c-4-0.2-8.1-0.9-11.9-2.5c-3.9-1.6-8-4.5-12.2-5.1
					c-6.3-0.9-8,8.8-8.7,13.1c-0.9,5.6,0.8,11.3,0.6,17C-168.6,452.1-170.2,459.6-174.2,456.2z"/>
			</defs>
			<clipPath id="SVGID_26_">
				<use xlink:href="#SVGID_25_"  style="overflow:visible;"/>
			</clipPath>
			<path class="st13" d="M-148.5,416.8c-0.2-2.5,0.9-2.7-0.4-5.1c-3.4-6.4-4.3-13.3-1.8-20.2c0.2-0.7-0.8-1.1-1.1-0.5
				c-3,5.5-1.9,12.3,0,17.9c0.4,1.2,1,2.3,1.7,3.4c0.9,1.5,0.3,2.8,0.4,4.4c0.2,3,1,6.3,2.7,8.8c0.1,0.2,0.5,0.1,0.4-0.2
				C-147.4,422.4-148.2,419.8-148.5,416.8z"/>
		</g>
		<g>
			<defs>
				<path id="SVGID_27_" d="M-174.2,456.2c0,0-0.2-0.4-0.5-1c-5.6-10.8-10.4-22.8-10.2-35.2c0.1-5.8,1.6-12,6.8-15.3
					c4.8-3,11-2.6,16.4-2c5.4,0.6,10.7,2,16.1,2.6c2.3,0.3,5.3,0.9,7.5-0.1c3.5-1.5,8.7-6.4,9.6-9.7c1.1-3.7,1.5-7.5,1.9-11.4
					c0.6-6,3.1-13.7-0.1-19.3c-2.7-4.7-9.6,0.6-12.3,2.7c-19.6,14.9-52.1,8.6-62.6-0.7c-5.7-5-7-0.4-6.6,5
					c0.5,7.4,0.8,14.6,2.6,21.7c1.4,5.3,4,18.5-3,21.2c-6.3,2.4-11.4,3.3-18,0.1c-7-3.4-6.8-11-5.8-17.8c1.2-7.8,2.5-15.6,4.4-23.3
					c2.3-9.6,2.4-21.5,8.1-29.9c5.1-7.4,13.9-6.6,21.3-2.9c14.7,7.5,28.8,24,46.4,14.9c5.8-3,10.6-7.9,15.9-11.5
					c5.8-3.9,16.1-10.5,21.4-2.2c3.5,5.5,4.2,12.9,5.1,19.2c1,7.4,1.4,14.9,1.4,22.4c0,6.5-0.1,13.1-0.5,19.6
					c-0.3,5.5-0.9,12.2-5,16.3c-5.8,5.8-14.5,7.9-22.5,7.4c-4-0.2-8.1-0.9-11.9-2.5c-3.9-1.6-8-4.5-12.2-5.1
					c-6.3-0.9-8,8.8-8.7,13.1c-0.9,5.6,0.8,11.3,0.6,17C-168.6,452.1-170.2,459.6-174.2,456.2z"/>
			</defs>
			<clipPath id="SVGID_28_">
				<use xlink:href="#SVGID_27_"  style="overflow:visible;"/>
			</clipPath>
			<path class="st14" d="M-156.1,426.6c-7.3-4.4-13.5-8.2-15.6-17c-0.4-1.5-1.7-1.4-3-1.9c-3.4-1.5-7.7-2.8-7.5-7.3
				c0-0.3-0.4-0.3-0.5,0c-0.9,7.4,9,6,10,11.6c1.4,7.5,9.6,13,16.1,15.6C-156,427.8-155.6,426.9-156.1,426.6z"/>
		</g>
		<g>
			<defs>
				<path id="SVGID_29_" d="M-174.2,456.2c0,0-0.2-0.4-0.5-1c-5.6-10.8-10.4-22.8-10.2-35.2c0.1-5.8,1.6-12,6.8-15.3
					c4.8-3,11-2.6,16.4-2c5.4,0.6,10.7,2,16.1,2.6c2.3,0.3,5.3,0.9,7.5-0.1c3.5-1.5,8.7-6.4,9.6-9.7c1.1-3.7,1.5-7.5,1.9-11.4
					c0.6-6,3.1-13.7-0.1-19.3c-2.7-4.7-9.6,0.6-12.3,2.7c-19.6,14.9-52.1,8.6-62.6-0.7c-5.7-5-7-0.4-6.6,5
					c0.5,7.4,0.8,14.6,2.6,21.7c1.4,5.3,4,18.5-3,21.2c-6.3,2.4-11.4,3.3-18,0.1c-7-3.4-6.8-11-5.8-17.8c1.2-7.8,2.5-15.6,4.4-23.3
					c2.3-9.6,2.4-21.5,8.1-29.9c5.1-7.4,13.9-6.6,21.3-2.9c14.7,7.5,28.8,24,46.4,14.9c5.8-3,10.6-7.9,15.9-11.5
					c5.8-3.9,16.1-10.5,21.4-2.2c3.5,5.5,4.2,12.9,5.1,19.2c1,7.4,1.4,14.9,1.4,22.4c0,6.5-0.1,13.1-0.5,19.6
					c-0.3,5.5-0.9,12.2-5,16.3c-5.8,5.8-14.5,7.9-22.5,7.4c-4-0.2-8.1-0.9-11.9-2.5c-3.9-1.6-8-4.5-12.2-5.1
					c-6.3-0.9-8,8.8-8.7,13.1c-0.9,5.6,0.8,11.3,0.6,17C-168.6,452.1-170.2,459.6-174.2,456.2z"/>
			</defs>
			<clipPath id="SVGID_30_">
				<use xlink:href="#SVGID_29_"  style="overflow:visible;"/>
			</clipPath>
			<path class="st15" d="M-158.6,435.7c-3.7,0.5-6.9,0.2-10.4-1c-2.3-0.8-4.2-2.2-6.5-2.9c-0.8-0.2-1.6,0.1-2.2,0.5
				c-2.7,1.8-6.3,1.9-9.1,0.1c0,0-0.1,0-0.1,0.1c1.5,2.4,6.4,2.8,8.8,1.5c2.8-1.7,7.3,1.6,10.2,2.6c3.2,1.1,6.4,1.2,9.6,0.3
				C-157.5,436.7-157.8,435.6-158.6,435.7z"/>
		</g>
	</g>
	<g>
		<g>
			<path id="XMLID_19_" class="st16" d="M-174.2,456.2c0,0-0.2-0.4-0.5-1c-5.6-10.8-10.4-22.8-10.2-35.2c0.1-5.8,1.6-12,6.8-15.3
				c4.8-3,11-2.6,16.4-2c5.4,0.6,10.7,2,16.1,2.6c2.3,0.3,5.3,0.9,7.5-0.1c3.5-1.5,8.7-6.4,9.6-9.7c1.1-3.7,1.5-7.5,1.9-11.4
				c0.6-6,3.1-13.7-0.1-19.3c-2.7-4.7-9.6,0.6-12.3,2.7c-19.6,14.9-52.1,8.6-62.6-0.7c-5.7-5-7-0.4-6.6,5c0.5,7.4,0.8,14.6,2.6,21.7
				c1.4,5.3,4,18.5-3,21.2c-6.3,2.4-11.4,3.3-18,0.1c-7-3.4-6.8-11-5.8-17.8c1.2-7.8,2.5-15.6,4.4-23.3c2.3-9.6,2.4-21.5,8.1-29.9
				c5.1-7.4,13.9-6.6,21.3-2.9c14.7,7.5,28.8,24,46.4,14.9c5.8-3,10.6-7.9,15.9-11.5c5.8-3.9,16.1-10.5,21.4-2.2
				c3.5,5.5,4.2,12.9,5.1,19.2c1,7.4,1.4,14.9,1.4,22.4c0,6.5-0.1,13.1-0.5,19.6c-0.3,5.5-0.9,12.2-5,16.3
				c-5.8,5.8-14.5,7.9-22.5,7.4c-4-0.2-8.1-0.9-11.9-2.5c-3.9-1.6-8-4.5-12.2-5.1c-6.3-0.9-8,8.8-8.7,13.1c-0.9,5.6,0.8,11.3,0.6,17
				C-168.6,452.1-170.2,459.6-174.2,456.2z"/>
		</g>
		<g>
			<defs>
				<path id="SVGID_31_" d="M-174.2,456.2c0,0-0.2-0.4-0.5-1c-5.6-10.8-10.4-22.8-10.2-35.2c0.1-5.8,1.6-12,6.8-15.3
					c4.8-3,11-2.6,16.4-2c5.4,0.6,10.7,2,16.1,2.6c2.3,0.3,5.3,0.9,7.5-0.1c3.5-1.5,8.7-6.4,9.6-9.7c1.1-3.7,1.5-7.5,1.9-11.4
					c0.6-6,3.1-13.7-0.1-19.3c-2.7-4.7-9.6,0.6-12.3,2.7c-19.6,14.9-52.1,8.6-62.6-0.7c-5.7-5-7-0.4-6.6,5
					c0.5,7.4,0.8,14.6,2.6,21.7c1.4,5.3,4,18.5-3,21.2c-6.3,2.4-11.4,3.3-18,0.1c-7-3.4-6.8-11-5.8-17.8c1.2-7.8,2.5-15.6,4.4-23.3
					c2.3-9.6,2.4-21.5,8.1-29.9c5.1-7.4,13.9-6.6,21.3-2.9c14.7,7.5,28.8,24,46.4,14.9c5.8-3,10.6-7.9,15.9-11.5
					c5.8-3.9,16.1-10.5,21.4-2.2c3.5,5.5,4.2,12.9,5.1,19.2c1,7.4,1.4,14.9,1.4,22.4c0,6.5-0.1,13.1-0.5,19.6
					c-0.3,5.5-0.9,12.2-5,16.3c-5.8,5.8-14.5,7.9-22.5,7.4c-4-0.2-8.1-0.9-11.9-2.5c-3.9-1.6-8-4.5-12.2-5.1
					c-6.3-0.9-8,8.8-8.7,13.1c-0.9,5.6,0.8,11.3,0.6,17C-168.6,452.1-170.2,459.6-174.2,456.2z"/>
			</defs>
			<clipPath id="SVGID_32_">
				<use xlink:href="#SVGID_31_"  style="overflow:visible;"/>
			</clipPath>
			<path class="st17" d="M-199.1,399.9c-5.4,5.4-11.5,5.8-17.8,1.5c-0.2-0.2-0.5-0.1-0.7,0.1c-3,2.9-6.4,4.9-10.6,4.1
				c-4.5-0.8-8-6.6-7.5-10.8c0-0.2-0.3-0.2-0.3-0.1c-1.2,3.4,0.8,6.6,3,9.1c2.8,3.2,7,3.6,10.9,2.3c1.7-0.6,3.2-1.7,4.5-2.9
				c0.9-0.7,5.6,2.1,6.9,2.3c5.1,0.8,9.1-1.1,12.7-4.6C-197.4,400.3-198.4,399.3-199.1,399.9z"/>
		</g>
		<g>
			<defs>
				<path id="SVGID_33_" d="M-174.2,456.2c0,0-0.2-0.4-0.5-1c-5.6-10.8-10.4-22.8-10.2-35.2c0.1-5.8,1.6-12,6.8-15.3
					c4.8-3,11-2.6,16.4-2c5.4,0.6,10.7,2,16.1,2.6c2.3,0.3,5.3,0.9,7.5-0.1c3.5-1.5,8.7-6.4,9.6-9.7c1.1-3.7,1.5-7.5,1.9-11.4
					c0.6-6,3.1-13.7-0.1-19.3c-2.7-4.7-9.6,0.6-12.3,2.7c-19.6,14.9-52.1,8.6-62.6-0.7c-5.7-5-7-0.4-6.6,5
					c0.5,7.4,0.8,14.6,2.6,21.7c1.4,5.3,4,18.5-3,21.2c-6.3,2.4-11.4,3.3-18,0.1c-7-3.4-6.8-11-5.8-17.8c1.2-7.8,2.5-15.6,4.4-23.3
					c2.3-9.6,2.4-21.5,8.1-29.9c5.1-7.4,13.9-6.6,21.3-2.9c14.7,7.5,28.8,24,46.4,14.9c5.8-3,10.6-7.9,15.9-11.5
					c5.8-3.9,16.1-10.5,21.4-2.2c3.5,5.5,4.2,12.9,5.1,19.2c1,7.4,1.4,14.9,1.4,22.4c0,6.5-0.1,13.1-0.5,19.6
					c-0.3,5.5-0.9,12.2-5,16.3c-5.8,5.8-14.5,7.9-22.5,7.4c-4-0.2-8.1-0.9-11.9-2.5c-3.9-1.6-8-4.5-12.2-5.1
					c-6.3-0.9-8,8.8-8.7,13.1c-0.9,5.6,0.8,11.3,0.6,17C-168.6,452.1-170.2,459.6-174.2,456.2z"/>
			</defs>
			<clipPath id="SVGID_34_">
				<use xlink:href="#SVGID_33_"  style="overflow:visible;"/>
			</clipPath>
			<path class="st18" d="M-195.9,390.2c-2.8-2.7-6.3-3.9-10.1-4.4c-1.8-0.2-3.7,0-5.5,0.4c-3.2,0.7-4.4,2.8-7.8,1
				c-3.2-1.7-5.3-3.1-9.1-2.1c-2.6,0.7-5.2,2.6-5.9,5.2c-0.1,0.5,0.6,0.7,0.7,0.2c1.8-5.5,8.7-5.2,12.5-2.7c1.2,0.7,3.3,2.4,4.8,2.1
				c3.1-0.6,5.4-2.4,8.8-2.5c4-0.1,7.3,1.9,10.5,3.9C-196.1,391.7-195.3,390.8-195.9,390.2z"/>
		</g>
		<g>
			<defs>
				<path id="SVGID_35_" d="M-174.2,456.2c0,0-0.2-0.4-0.5-1c-5.6-10.8-10.4-22.8-10.2-35.2c0.1-5.8,1.6-12,6.8-15.3
					c4.8-3,11-2.6,16.4-2c5.4,0.6,10.7,2,16.1,2.6c2.3,0.3,5.3,0.9,7.5-0.1c3.5-1.5,8.7-6.4,9.6-9.7c1.1-3.7,1.5-7.5,1.9-11.4
					c0.6-6,3.1-13.7-0.1-19.3c-2.7-4.7-9.6,0.6-12.3,2.7c-19.6,14.9-52.1,8.6-62.6-0.7c-5.7-5-7-0.4-6.6,5
					c0.5,7.4,0.8,14.6,2.6,21.7c1.4,5.3,4,18.5-3,21.2c-6.3,2.4-11.4,3.3-18,0.1c-7-3.4-6.8-11-5.8-17.8c1.2-7.8,2.5-15.6,4.4-23.3
					c2.3-9.6,2.4-21.5,8.1-29.9c5.1-7.4,13.9-6.6,21.3-2.9c14.7,7.5,28.8,24,46.4,14.9c5.8-3,10.6-7.9,15.9-11.5
					c5.8-3.9,16.1-10.5,21.4-2.2c3.5,5.5,4.2,12.9,5.1,19.2c1,7.4,1.4,14.9,1.4,22.4c0,6.5-0.1,13.1-0.5,19.6
					c-0.3,5.5-0.9,12.2-5,16.3c-5.8,5.8-14.5,7.9-22.5,7.4c-4-0.2-8.1-0.9-11.9-2.5c-3.9-1.6-8-4.5-12.2-5.1
					c-6.3-0.9-8,8.8-8.7,13.1c-0.9,5.6,0.8,11.3,0.6,17C-168.6,452.1-170.2,459.6-174.2,456.2z"/>
			</defs>
			<clipPath id="SVGID_36_">
				<use xlink:href="#SVGID_35_"  style="overflow:visible;"/>
			</clipPath>
			<path class="st19" d="M-203.5,377.4c-1.1-3.8-5.3-6.1-9.1-6.6c-1.4-0.2-2.5,0-3.9,0.2c-3.1,0.5-4.3-1.7-6-3.4
				c-1.8-1.8-4.1-1.5-6.5-1.7c-0.5,0-0.5,0.7,0,0.8c3.9,0.6,5.5,1.6,7.9,4.3c0.5,0.6,1.4,1.4,2.2,1.5c2.4,0.3,4.7-0.5,7.1,0.1
				c3,0.7,5.7,2.5,6.9,5.4C-204.6,378.7-203.2,378.2-203.5,377.4z"/>
		</g>
		<g>
			<defs>
				<path id="SVGID_37_" d="M-174.2,456.2c0,0-0.2-0.4-0.5-1c-5.6-10.8-10.4-22.8-10.2-35.2c0.1-5.8,1.6-12,6.8-15.3
					c4.8-3,11-2.6,16.4-2c5.4,0.6,10.7,2,16.1,2.6c2.3,0.3,5.3,0.9,7.5-0.1c3.5-1.5,8.7-6.4,9.6-9.7c1.1-3.7,1.5-7.5,1.9-11.4
					c0.6-6,3.1-13.7-0.1-19.3c-2.7-4.7-9.6,0.6-12.3,2.7c-19.6,14.9-52.1,8.6-62.6-0.7c-5.7-5-7-0.4-6.6,5
					c0.5,7.4,0.8,14.6,2.6,21.7c1.4,5.3,4,18.5-3,21.2c-6.3,2.4-11.4,3.3-18,0.1c-7-3.4-6.8-11-5.8-17.8c1.2-7.8,2.5-15.6,4.4-23.3
					c2.3-9.6,2.4-21.5,8.1-29.9c5.1-7.4,13.9-6.6,21.3-2.9c14.7,7.5,28.8,24,46.4,14.9c5.8-3,10.6-7.9,15.9-11.5
					c5.8-3.9,16.1-10.5,21.4-2.2c3.5,5.5,4.2,12.9,5.1,19.2c1,7.4,1.4,14.9,1.4,22.4c0,6.5-0.1,13.1-0.5,19.6
					c-0.3,5.5-0.9,12.2-5,16.3c-5.8,5.8-14.5,7.9-22.5,7.4c-4-0.2-8.1-0.9-11.9-2.5c-3.9-1.6-8-4.5-12.2-5.1
					c-6.3-0.9-8,8.8-8.7,13.1c-0.9,5.6,0.8,11.3,0.6,17C-168.6,452.1-170.2,459.6-174.2,456.2z"/>
			</defs>
			<clipPath id="SVGID_38_">
				<use xlink:href="#SVGID_37_"  style="overflow:visible;"/>
			</clipPath>
			<path class="st20" d="M-207,360.6c-1.7-2.9-5.2-2.3-4.5-7c1.2-7.5-1.6-12.9-4.3-19.6c-0.4-0.9-1.8-0.2-1.4,0.7
				c1.4,3.2,2.9,6.3,4,9.6c1.3,4.1-0.1,6.8,0,10.7c0,1.3-0.2,2,0.9,2.8c3.2,2.6,5.7,4.5,6.2,8.9c0,0.4,0.7,0.3,0.7-0.1
				C-205.4,364.5-205.9,362.6-207,360.6z"/>
		</g>
		<g>
			<defs>
				<path id="SVGID_39_" d="M-174.2,456.2c0,0-0.2-0.4-0.5-1c-5.6-10.8-10.4-22.8-10.2-35.2c0.1-5.8,1.6-12,6.8-15.3
					c4.8-3,11-2.6,16.4-2c5.4,0.6,10.7,2,16.1,2.6c2.3,0.3,5.3,0.9,7.5-0.1c3.5-1.5,8.7-6.4,9.6-9.7c1.1-3.7,1.5-7.5,1.9-11.4
					c0.6-6,3.1-13.7-0.1-19.3c-2.7-4.7-9.6,0.6-12.3,2.7c-19.6,14.9-52.1,8.6-62.6-0.7c-5.7-5-7-0.4-6.6,5
					c0.5,7.4,0.8,14.6,2.6,21.7c1.4,5.3,4,18.5-3,21.2c-6.3,2.4-11.4,3.3-18,0.1c-7-3.4-6.8-11-5.8-17.8c1.2-7.8,2.5-15.6,4.4-23.3
					c2.3-9.6,2.4-21.5,8.1-29.9c5.1-7.4,13.9-6.6,21.3-2.9c14.7,7.5,28.8,24,46.4,14.9c5.8-3,10.6-7.9,15.9-11.5
					c5.8-3.9,16.1-10.5,21.4-2.2c3.5,5.5,4.2,12.9,5.1,19.2c1,7.4,1.4,14.9,1.4,22.4c0,6.5-0.1,13.1-0.5,19.6
					c-0.3,5.5-0.9,12.2-5,16.3c-5.8,5.8-14.5,7.9-22.5,7.4c-4-0.2-8.1-0.9-11.9-2.5c-3.9-1.6-8-4.5-12.2-5.1
					c-6.3-0.9-8,8.8-8.7,13.1c-0.9,5.6,0.8,11.3,0.6,17C-168.6,452.1-170.2,459.6-174.2,456.2z"/>
			</defs>
			<clipPath id="SVGID_40_">
				<use xlink:href="#SVGID_39_"  style="overflow:visible;"/>
			</clipPath>
			<path class="st21" d="M-184.9,333.7c0.1-0.5-0.6-0.8-0.8-0.3c-2.7,7.4-2.3,15.5-6.5,22.5c-0.9,1.5-1.9,2.4-1.5,4.2
				c0.1,0.5,1,1.6,1.4,2c2.5,3.2,0.8,7.6-1.5,10.2c-0.1,0.1,0,0.3,0.2,0.2c1.6-1.7,2.9-4,3.1-6.4c0.2-3.3-3.1-5.9-1.2-9
				C-187.3,350.1-186.7,341.7-184.9,333.7z"/>
		</g>
		<g>
			<defs>
				<path id="SVGID_41_" d="M-174.2,456.2c0,0-0.2-0.4-0.5-1c-5.6-10.8-10.4-22.8-10.2-35.2c0.1-5.8,1.6-12,6.8-15.3
					c4.8-3,11-2.6,16.4-2c5.4,0.6,10.7,2,16.1,2.6c2.3,0.3,5.3,0.9,7.5-0.1c3.5-1.5,8.7-6.4,9.6-9.7c1.1-3.7,1.5-7.5,1.9-11.4
					c0.6-6,3.1-13.7-0.1-19.3c-2.7-4.7-9.6,0.6-12.3,2.7c-19.6,14.9-52.1,8.6-62.6-0.7c-5.7-5-7-0.4-6.6,5
					c0.5,7.4,0.8,14.6,2.6,21.7c1.4,5.3,4,18.5-3,21.2c-6.3,2.4-11.4,3.3-18,0.1c-7-3.4-6.8-11-5.8-17.8c1.2-7.8,2.5-15.6,4.4-23.3
					c2.3-9.6,2.4-21.5,8.1-29.9c5.1-7.4,13.9-6.6,21.3-2.9c14.7,7.5,28.8,24,46.4,14.9c5.8-3,10.6-7.9,15.9-11.5
					c5.8-3.9,16.1-10.5,21.4-2.2c3.5,5.5,4.2,12.9,5.1,19.2c1,7.4,1.4,14.9,1.4,22.4c0,6.5-0.1,13.1-0.5,19.6
					c-0.3,5.5-0.9,12.2-5,16.3c-5.8,5.8-14.5,7.9-22.5,7.4c-4-0.2-8.1-0.9-11.9-2.5c-3.9-1.6-8-4.5-12.2-5.1
					c-6.3-0.9-8,8.8-8.7,13.1c-0.9,5.6,0.8,11.3,0.6,17C-168.6,452.1-170.2,459.6-174.2,456.2z"/>
			</defs>
			<clipPath id="SVGID_42_">
				<use xlink:href="#SVGID_41_"  style="overflow:visible;"/>
			</clipPath>
			<path class="st22" d="M-170.7,346.4c-4.2,5.8-3.3,12.6-3.2,19.3c0,3.2-1.6,5.8-1.2,9.1c0.3,2.8,2.2,4.9,4.2,6.6
				c0.2,0.2,0.5-0.2,0.3-0.4c-2.4-2.6-3.7-5.1-3.5-8.7c0.1-2.7,1.5-5,1.5-7.7c0-2.3-0.4-4.5-0.3-6.8c0.2-3.8,1.4-7.2,3.1-10.6
				C-169.4,346.3-170.2,345.7-170.7,346.4z"/>
		</g>
		<g>
			<defs>
				<path id="SVGID_43_" d="M-174.2,456.2c0,0-0.2-0.4-0.5-1c-5.6-10.8-10.4-22.8-10.2-35.2c0.1-5.8,1.6-12,6.8-15.3
					c4.8-3,11-2.6,16.4-2c5.4,0.6,10.7,2,16.1,2.6c2.3,0.3,5.3,0.9,7.5-0.1c3.5-1.5,8.7-6.4,9.6-9.7c1.1-3.7,1.5-7.5,1.9-11.4
					c0.6-6,3.1-13.7-0.1-19.3c-2.7-4.7-9.6,0.6-12.3,2.7c-19.6,14.9-52.1,8.6-62.6-0.7c-5.7-5-7-0.4-6.6,5
					c0.5,7.4,0.8,14.6,2.6,21.7c1.4,5.3,4,18.5-3,21.2c-6.3,2.4-11.4,3.3-18,0.1c-7-3.4-6.8-11-5.8-17.8c1.2-7.8,2.5-15.6,4.4-23.3
					c2.3-9.6,2.4-21.5,8.1-29.9c5.1-7.4,13.9-6.6,21.3-2.9c14.7,7.5,28.8,24,46.4,14.9c5.8-3,10.6-7.9,15.9-11.5
					c5.8-3.9,16.1-10.5,21.4-2.2c3.5,5.5,4.2,12.9,5.1,19.2c1,7.4,1.4,14.9,1.4,22.4c0,6.5-0.1,13.1-0.5,19.6
					c-0.3,5.5-0.9,12.2-5,16.3c-5.8,5.8-14.5,7.9-22.5,7.4c-4-0.2-8.1-0.9-11.9-2.5c-3.9-1.6-8-4.5-12.2-5.1
					c-6.3-0.9-8,8.8-8.7,13.1c-0.9,5.6,0.8,11.3,0.6,17C-168.6,452.1-170.2,459.6-174.2,456.2z"/>
			</defs>
			<clipPath id="SVGID_44_">
				<use xlink:href="#SVGID_43_"  style="overflow:visible;"/>
			</clipPath>
			<path class="st23" d="M-149.1,367.4c-1.7-2.5-5.3-3.9-5.6-7.1c-0.2-2.9-1.4-4.7-2.2-7.4c-0.1-0.4-0.8-0.4-0.8,0.1
				c0.2,2.2,1.5,3.9,1.6,6.1c0.1,1.1-0.3,2.9,0.4,3.9c1.7,2.3,4.2,3.8,5.9,6.2c2.1,3.1,3.1,7.8,2.2,11.4c-0.2,0.6,0.7,1,1,0.5
				C-144.2,376.8-146.6,371-149.1,367.4z"/>
		</g>
		<g>
			<defs>
				<path id="SVGID_45_" d="M-174.2,456.2c0,0-0.2-0.4-0.5-1c-5.6-10.8-10.4-22.8-10.2-35.2c0.1-5.8,1.6-12,6.8-15.3
					c4.8-3,11-2.6,16.4-2c5.4,0.6,10.7,2,16.1,2.6c2.3,0.3,5.3,0.9,7.5-0.1c3.5-1.5,8.7-6.4,9.6-9.7c1.1-3.7,1.5-7.5,1.9-11.4
					c0.6-6,3.1-13.7-0.1-19.3c-2.7-4.7-9.6,0.6-12.3,2.7c-19.6,14.9-52.1,8.6-62.6-0.7c-5.7-5-7-0.4-6.6,5
					c0.5,7.4,0.8,14.6,2.6,21.7c1.4,5.3,4,18.5-3,21.2c-6.3,2.4-11.4,3.3-18,0.1c-7-3.4-6.8-11-5.8-17.8c1.2-7.8,2.5-15.6,4.4-23.3
					c2.3-9.6,2.4-21.5,8.1-29.9c5.1-7.4,13.9-6.6,21.3-2.9c14.7,7.5,28.8,24,46.4,14.9c5.8-3,10.6-7.9,15.9-11.5
					c5.8-3.9,16.1-10.5,21.4-2.2c3.5,5.5,4.2,12.9,5.1,19.2c1,7.4,1.4,14.9,1.4,22.4c0,6.5-0.1,13.1-0.5,19.6
					c-0.3,5.5-0.9,12.2-5,16.3c-5.8,5.8-14.5,7.9-22.5,7.4c-4-0.2-8.1-0.9-11.9-2.5c-3.9-1.6-8-4.5-12.2-5.1
					c-6.3-0.9-8,8.8-8.7,13.1c-0.9,5.6,0.8,11.3,0.6,17C-168.6,452.1-170.2,459.6-174.2,456.2z"/>
			</defs>
			<clipPath id="SVGID_46_">
				<use xlink:href="#SVGID_45_"  style="overflow:visible;"/>
			</clipPath>
			<path class="st24" d="M-145.1,345c-0.7-0.7-1.7,0.3-1.1,1c6.5,6.7,10.2,13.1,11.8,22.3c0,0.2,0.4,0.2,0.4,0
				C-132.9,359.3-139,350.9-145.1,345z"/>
		</g>
		<g>
			<defs>
				<path id="SVGID_47_" d="M-174.2,456.2c0,0-0.2-0.4-0.5-1c-5.6-10.8-10.4-22.8-10.2-35.2c0.1-5.8,1.6-12,6.8-15.3
					c4.8-3,11-2.6,16.4-2c5.4,0.6,10.7,2,16.1,2.6c2.3,0.3,5.3,0.9,7.5-0.1c3.5-1.5,8.7-6.4,9.6-9.7c1.1-3.7,1.5-7.5,1.9-11.4
					c0.6-6,3.1-13.7-0.1-19.3c-2.7-4.7-9.6,0.6-12.3,2.7c-19.6,14.9-52.1,8.6-62.6-0.7c-5.7-5-7-0.4-6.6,5
					c0.5,7.4,0.8,14.6,2.6,21.7c1.4,5.3,4,18.5-3,21.2c-6.3,2.4-11.4,3.3-18,0.1c-7-3.4-6.8-11-5.8-17.8c1.2-7.8,2.5-15.6,4.4-23.3
					c2.3-9.6,2.4-21.5,8.1-29.9c5.1-7.4,13.9-6.6,21.3-2.9c14.7,7.5,28.8,24,46.4,14.9c5.8-3,10.6-7.9,15.9-11.5
					c5.8-3.9,16.1-10.5,21.4-2.2c3.5,5.5,4.2,12.9,5.1,19.2c1,7.4,1.4,14.9,1.4,22.4c0,6.5-0.1,13.1-0.5,19.6
					c-0.3,5.5-0.9,12.2-5,16.3c-5.8,5.8-14.5,7.9-22.5,7.4c-4-0.2-8.1-0.9-11.9-2.5c-3.9-1.6-8-4.5-12.2-5.1
					c-6.3-0.9-8,8.8-8.7,13.1c-0.9,5.6,0.8,11.3,0.6,17C-168.6,452.1-170.2,459.6-174.2,456.2z"/>
			</defs>
			<clipPath id="SVGID_48_">
				<use xlink:href="#SVGID_47_"  style="overflow:visible;"/>
			</clipPath>
			<path class="st25" d="M-110.6,334.6c-2.2,6.2-2.3,22.6-11.7,22.5c-1.4,0-2,1-2.5,2.2c-0.5,1.2-0.6,2.8-0.9,4.1
				c-0.4,1.9-1.7,3.7-2.5,5.4c-0.1,0.2,0.1,0.4,0.3,0.2c1.7-1.9,3-3.8,3.7-6.3c0.5-1.8,0.5-3.8,3.2-4.1c1.3-0.1,2.6-0.5,3.5-1.4
				c6.1-5.4,6.7-14.8,8.6-22.2C-108.6,334-110.2,333.5-110.6,334.6z"/>
		</g>
		<g>
			<defs>
				<path id="SVGID_49_" d="M-174.2,456.2c0,0-0.2-0.4-0.5-1c-5.6-10.8-10.4-22.8-10.2-35.2c0.1-5.8,1.6-12,6.8-15.3
					c4.8-3,11-2.6,16.4-2c5.4,0.6,10.7,2,16.1,2.6c2.3,0.3,5.3,0.9,7.5-0.1c3.5-1.5,8.7-6.4,9.6-9.7c1.1-3.7,1.5-7.5,1.9-11.4
					c0.6-6,3.1-13.7-0.1-19.3c-2.7-4.7-9.6,0.6-12.3,2.7c-19.6,14.9-52.1,8.6-62.6-0.7c-5.7-5-7-0.4-6.6,5
					c0.5,7.4,0.8,14.6,2.6,21.7c1.4,5.3,4,18.5-3,21.2c-6.3,2.4-11.4,3.3-18,0.1c-7-3.4-6.8-11-5.8-17.8c1.2-7.8,2.5-15.6,4.4-23.3
					c2.3-9.6,2.4-21.5,8.1-29.9c5.1-7.4,13.9-6.6,21.3-2.9c14.7,7.5,28.8,24,46.4,14.9c5.8-3,10.6-7.9,15.9-11.5
					c5.8-3.9,16.1-10.5,21.4-2.2c3.5,5.5,4.2,12.9,5.1,19.2c1,7.4,1.4,14.9,1.4,22.4c0,6.5-0.1,13.1-0.5,19.6
					c-0.3,5.5-0.9,12.2-5,16.3c-5.8,5.8-14.5,7.9-22.5,7.4c-4-0.2-8.1-0.9-11.9-2.5c-3.9-1.6-8-4.5-12.2-5.1
					c-6.3-0.9-8,8.8-8.7,13.1c-0.9,5.6,0.8,11.3,0.6,17C-168.6,452.1-170.2,459.6-174.2,456.2z"/>
			</defs>
			<clipPath id="SVGID_50_">
				<use xlink:href="#SVGID_49_"  style="overflow:visible;"/>
			</clipPath>
			<path class="st26" d="M-96.2,376.8c-6.2,1.5-11.2,0.1-17.2-1c-1.2-0.2-2.5,0.1-3.7,0.3c-3.7,0.8-6.6,1.3-10.2-0.6
				c-0.3-0.2-0.6,0.3-0.3,0.5c5.1,3.6,9.3,0.2,14.8,1.4c5.8,1.2,11.1,3,17,1C-94.8,378-95.1,376.5-96.2,376.8z"/>
		</g>
		<g>
			<defs>
				<path id="SVGID_51_" d="M-174.2,456.2c0,0-0.2-0.4-0.5-1c-5.6-10.8-10.4-22.8-10.2-35.2c0.1-5.8,1.6-12,6.8-15.3
					c4.8-3,11-2.6,16.4-2c5.4,0.6,10.7,2,16.1,2.6c2.3,0.3,5.3,0.9,7.5-0.1c3.5-1.5,8.7-6.4,9.6-9.7c1.1-3.7,1.5-7.5,1.9-11.4
					c0.6-6,3.1-13.7-0.1-19.3c-2.7-4.7-9.6,0.6-12.3,2.7c-19.6,14.9-52.1,8.6-62.6-0.7c-5.7-5-7-0.4-6.6,5
					c0.5,7.4,0.8,14.6,2.6,21.7c1.4,5.3,4,18.5-3,21.2c-6.3,2.4-11.4,3.3-18,0.1c-7-3.4-6.8-11-5.8-17.8c1.2-7.8,2.5-15.6,4.4-23.3
					c2.3-9.6,2.4-21.5,8.1-29.9c5.1-7.4,13.9-6.6,21.3-2.9c14.7,7.5,28.8,24,46.4,14.9c5.8-3,10.6-7.9,15.9-11.5
					c5.8-3.9,16.1-10.5,21.4-2.2c3.5,5.5,4.2,12.9,5.1,19.2c1,7.4,1.4,14.9,1.4,22.4c0,6.5-0.1,13.1-0.5,19.6
					c-0.3,5.5-0.9,12.2-5,16.3c-5.8,5.8-14.5,7.9-22.5,7.4c-4-0.2-8.1-0.9-11.9-2.5c-3.9-1.6-8-4.5-12.2-5.1
					c-6.3-0.9-8,8.8-8.7,13.1c-0.9,5.6,0.8,11.3,0.6,17C-168.6,452.1-170.2,459.6-174.2,456.2z"/>
			</defs>
			<clipPath id="SVGID_52_">
				<use xlink:href="#SVGID_51_"  style="overflow:visible;"/>
			</clipPath>
			<path class="st27" d="M-99.3,400.1c-6.1,3-11.6,0.7-17.9,0.2c-2.8-0.2-5.2-0.3-7.8-1.8c-2-1.1-3.7-2.6-5.7-3.8
				c-0.6-0.4-1.2,0.5-0.6,1c4.9,3.4,7.9,6.1,14,6.5c6.5,0.4,12.7,3.6,18.7-0.6C-97.8,400.9-98.4,399.7-99.3,400.1z"/>
		</g>
		<g>
			<defs>
				<path id="SVGID_53_" d="M-174.2,456.2c0,0-0.2-0.4-0.5-1c-5.6-10.8-10.4-22.8-10.2-35.2c0.1-5.8,1.6-12,6.8-15.3
					c4.8-3,11-2.6,16.4-2c5.4,0.6,10.7,2,16.1,2.6c2.3,0.3,5.3,0.9,7.5-0.1c3.5-1.5,8.7-6.4,9.6-9.7c1.1-3.7,1.5-7.5,1.9-11.4
					c0.6-6,3.1-13.7-0.1-19.3c-2.7-4.7-9.6,0.6-12.3,2.7c-19.6,14.9-52.1,8.6-62.6-0.7c-5.7-5-7-0.4-6.6,5
					c0.5,7.4,0.8,14.6,2.6,21.7c1.4,5.3,4,18.5-3,21.2c-6.3,2.4-11.4,3.3-18,0.1c-7-3.4-6.8-11-5.8-17.8c1.2-7.8,2.5-15.6,4.4-23.3
					c2.3-9.6,2.4-21.5,8.1-29.9c5.1-7.4,13.9-6.6,21.3-2.9c14.7,7.5,28.8,24,46.4,14.9c5.8-3,10.6-7.9,15.9-11.5
					c5.8-3.9,16.1-10.5,21.4-2.2c3.5,5.5,4.2,12.9,5.1,19.2c1,7.4,1.4,14.9,1.4,22.4c0,6.5-0.1,13.1-0.5,19.6
					c-0.3,5.5-0.9,12.2-5,16.3c-5.8,5.8-14.5,7.9-22.5,7.4c-4-0.2-8.1-0.9-11.9-2.5c-3.9-1.6-8-4.5-12.2-5.1
					c-6.3-0.9-8,8.8-8.7,13.1c-0.9,5.6,0.8,11.3,0.6,17C-168.6,452.1-170.2,459.6-174.2,456.2z"/>
			</defs>
			<clipPath id="SVGID_54_">
				<use xlink:href="#SVGID_53_"  style="overflow:visible;"/>
			</clipPath>
			<path class="st28" d="M-111.4,431.5c-6.8-3.6-12.4-8.9-15.6-16c-1.2-2.6-0.7-4.4-2.9-6.3c-2.6-2.2-6.4-3.3-7.3-7
				c-0.1-0.3-0.5-0.2-0.5,0c0,2.2,1.3,3.7,3,5c1.5,1.1,3,2.2,4.4,3.4c1.1,1.1,1.3,4,1.9,5.6c2.6,6.8,9.4,14.3,16.6,16.3
				C-111.3,432.8-110.8,431.8-111.4,431.5z"/>
		</g>
		<g>
			<defs>
				<path id="SVGID_55_" d="M-174.2,456.2c0,0-0.2-0.4-0.5-1c-5.6-10.8-10.4-22.8-10.2-35.2c0.1-5.8,1.6-12,6.8-15.3
					c4.8-3,11-2.6,16.4-2c5.4,0.6,10.7,2,16.1,2.6c2.3,0.3,5.3,0.9,7.5-0.1c3.5-1.5,8.7-6.4,9.6-9.7c1.1-3.7,1.5-7.5,1.9-11.4
					c0.6-6,3.1-13.7-0.1-19.3c-2.7-4.7-9.6,0.6-12.3,2.7c-19.6,14.9-52.1,8.6-62.6-0.7c-5.7-5-7-0.4-6.6,5
					c0.5,7.4,0.8,14.6,2.6,21.7c1.4,5.3,4,18.5-3,21.2c-6.3,2.4-11.4,3.3-18,0.1c-7-3.4-6.8-11-5.8-17.8c1.2-7.8,2.5-15.6,4.4-23.3
					c2.3-9.6,2.4-21.5,8.1-29.9c5.1-7.4,13.9-6.6,21.3-2.9c14.7,7.5,28.8,24,46.4,14.9c5.8-3,10.6-7.9,15.9-11.5
					c5.8-3.9,16.1-10.5,21.4-2.2c3.5,5.5,4.2,12.9,5.1,19.2c1,7.4,1.4,14.9,1.4,22.4c0,6.5-0.1,13.1-0.5,19.6
					c-0.3,5.5-0.9,12.2-5,16.3c-5.8,5.8-14.5,7.9-22.5,7.4c-4-0.2-8.1-0.9-11.9-2.5c-3.9-1.6-8-4.5-12.2-5.1
					c-6.3-0.9-8,8.8-8.7,13.1c-0.9,5.6,0.8,11.3,0.6,17C-168.6,452.1-170.2,459.6-174.2,456.2z"/>
			</defs>
			<clipPath id="SVGID_56_">
				<use xlink:href="#SVGID_55_"  style="overflow:visible;"/>
			</clipPath>
			<path class="st29" d="M-148.5,416.8c-0.2-2.5,0.9-2.7-0.4-5.1c-3.4-6.4-4.3-13.3-1.8-20.2c0.2-0.7-0.8-1.1-1.1-0.5
				c-3,5.5-1.9,12.3,0,17.9c0.4,1.2,1,2.3,1.7,3.4c0.9,1.5,0.3,2.8,0.4,4.4c0.2,3,1,6.3,2.7,8.8c0.1,0.2,0.5,0.1,0.4-0.2
				C-147.4,422.4-148.2,419.8-148.5,416.8z"/>
		</g>
		<g>
			<defs>
				<path id="SVGID_57_" d="M-174.2,456.2c0,0-0.2-0.4-0.5-1c-5.6-10.8-10.4-22.8-10.2-35.2c0.1-5.8,1.6-12,6.8-15.3
					c4.8-3,11-2.6,16.4-2c5.4,0.6,10.7,2,16.1,2.6c2.3,0.3,5.3,0.9,7.5-0.1c3.5-1.5,8.7-6.4,9.6-9.7c1.1-3.7,1.5-7.5,1.9-11.4
					c0.6-6,3.1-13.7-0.1-19.3c-2.7-4.7-9.6,0.6-12.3,2.7c-19.6,14.9-52.1,8.6-62.6-0.7c-5.7-5-7-0.4-6.6,5
					c0.5,7.4,0.8,14.6,2.6,21.7c1.4,5.3,4,18.5-3,21.2c-6.3,2.4-11.4,3.3-18,0.1c-7-3.4-6.8-11-5.8-17.8c1.2-7.8,2.5-15.6,4.4-23.3
					c2.3-9.6,2.4-21.5,8.1-29.9c5.1-7.4,13.9-6.6,21.3-2.9c14.7,7.5,28.8,24,46.4,14.9c5.8-3,10.6-7.9,15.9-11.5
					c5.8-3.9,16.1-10.5,21.4-2.2c3.5,5.5,4.2,12.9,5.1,19.2c1,7.4,1.4,14.9,1.4,22.4c0,6.5-0.1,13.1-0.5,19.6
					c-0.3,5.5-0.9,12.2-5,16.3c-5.8,5.8-14.5,7.9-22.5,7.4c-4-0.2-8.1-0.9-11.9-2.5c-3.9-1.6-8-4.5-12.2-5.1
					c-6.3-0.9-8,8.8-8.7,13.1c-0.9,5.6,0.8,11.3,0.6,17C-168.6,452.1-170.2,459.6-174.2,456.2z"/>
			</defs>
			<clipPath id="SVGID_58_">
				<use xlink:href="#SVGID_57_"  style="overflow:visible;"/>
			</clipPath>
			<path class="st30" d="M-156.1,426.6c-7.3-4.4-13.5-8.2-15.6-17c-0.4-1.5-1.7-1.4-3-1.9c-3.4-1.5-7.7-2.8-7.5-7.3
				c0-0.3-0.4-0.3-0.5,0c-0.9,7.4,9,6,10,11.6c1.4,7.5,9.6,13,16.1,15.6C-156,427.8-155.6,426.9-156.1,426.6z"/>
		</g>
		<g>
			<defs>
				<path id="SVGID_59_" d="M-174.2,456.2c0,0-0.2-0.4-0.5-1c-5.6-10.8-10.4-22.8-10.2-35.2c0.1-5.8,1.6-12,6.8-15.3
					c4.8-3,11-2.6,16.4-2c5.4,0.6,10.7,2,16.1,2.6c2.3,0.3,5.3,0.9,7.5-0.1c3.5-1.5,8.7-6.4,9.6-9.7c1.1-3.7,1.5-7.5,1.9-11.4
					c0.6-6,3.1-13.7-0.1-19.3c-2.7-4.7-9.6,0.6-12.3,2.7c-19.6,14.9-52.1,8.6-62.6-0.7c-5.7-5-7-0.4-6.6,5
					c0.5,7.4,0.8,14.6,2.6,21.7c1.4,5.3,4,18.5-3,21.2c-6.3,2.4-11.4,3.3-18,0.1c-7-3.4-6.8-11-5.8-17.8c1.2-7.8,2.5-15.6,4.4-23.3
					c2.3-9.6,2.4-21.5,8.1-29.9c5.1-7.4,13.9-6.6,21.3-2.9c14.7,7.5,28.8,24,46.4,14.9c5.8-3,10.6-7.9,15.9-11.5
					c5.8-3.9,16.1-10.5,21.4-2.2c3.5,5.5,4.2,12.9,5.1,19.2c1,7.4,1.4,14.9,1.4,22.4c0,6.5-0.1,13.1-0.5,19.6
					c-0.3,5.5-0.9,12.2-5,16.3c-5.8,5.8-14.5,7.9-22.5,7.4c-4-0.2-8.1-0.9-11.9-2.5c-3.9-1.6-8-4.5-12.2-5.1
					c-6.3-0.9-8,8.8-8.7,13.1c-0.9,5.6,0.8,11.3,0.6,17C-168.6,452.1-170.2,459.6-174.2,456.2z"/>
			</defs>
			<clipPath id="SVGID_60_">
				<use xlink:href="#SVGID_59_"  style="overflow:visible;"/>
			</clipPath>
			<path class="st31" d="M-158.6,435.7c-3.7,0.5-6.9,0.2-10.4-1c-2.3-0.8-4.2-2.2-6.5-2.9c-0.8-0.2-1.6,0.1-2.2,0.5
				c-2.7,1.8-6.3,1.9-9.1,0.1c0,0-0.1,0-0.1,0.1c1.5,2.4,6.4,2.8,8.8,1.5c2.8-1.7,7.3,1.6,10.2,2.6c3.2,1.1,6.4,1.2,9.6,0.3
				C-157.5,436.7-157.8,435.6-158.6,435.7z"/>
		</g>
	</g>
	<path class="st32" d="M-110.1,359.1c-0.6,3.2-1,6.4-0.8,9.6c0.3,5.4,1.2,10.4,0.6,15.9c-0.5,4.6-0.9,9.2-1.5,13.8
		c-1,8.3-3.1,15.8-10,21.1c-4.6,3.6-10.4,5-15.9,2.9c-5.8-2.1-11-6.6-17.2-7.6c-7.9-1.2-15.4,4.3-16.7,12.1
		c-1.6,9.4,1.6,20.5-2.9,28.8c0.2,0.3,0.3,0.5,0.3,0.5c4,3.4,5.6-4.1,5.6-6.6c0.2-5.7-1.5-11.3-0.6-17c0.7-4.3,2.4-13.9,8.7-13.1
		c4.2,0.6,8.3,3.5,12.2,5.1c3.7,1.5,7.8,2.2,11.9,2.5c8,0.5,16.6-1.6,22.5-7.4c4.1-4.1,4.7-10.8,5-16.3c0.4-6.5,0.5-13.1,0.5-19.6
		c0-7.5-0.3-15-1.4-22.4C-109.9,360.6-110,359.8-110.1,359.1z"/>
</g>
</svg>
