<?xml version="1.0" encoding="utf-8"?>
<!-- Generator: Adobe Illustrator 21.1.0, SVG Export Plug-In . SVG Version: 6.00 Build 0)  -->
<svg version="1.1" id="Layer_1" xmlns="http://www.w3.org/2000/svg" xmlns:xlink="http://www.w3.org/1999/xlink" x="0px" y="0px"
	 viewBox="0 0 44.4 44.4" style="enable-background:new 0 0 44.4 44.4;" xml:space="preserve">
<style type="text/css">
	.st0{fill:#FFFFFF;}
</style>
<path class="st0" d="M34,16.1c0.1,4-1,7.3-2.5,9.8c-1.5,2.5-3.5,4.5-5.9,5.9c-2.4,1.5-5.6,2.5-9.4,2.4c-3.5-0.1-6.3-1.1-8.6-2.5
	c-0.1-0.1-0.3-0.2-0.4-0.3c3.9,0.4,6.9-0.8,9-2.5c-1.6,0-2.8-0.6-3.6-1.3c-0.9-0.7-1.6-1.7-2-2.9c0.8,0.2,2,0.1,2.7-0.1
	c-1.5-0.3-2.5-1.1-3.4-2.1c-0.8-0.9-1.4-2.2-1.4-4c0-0.1,0.2,0,0.3,0.1c0.7,0.3,1.5,0.6,2.4,0.6c-1.5-1.1-3-3.1-2.6-6
	c0.1-0.8,0.4-1.6,0.8-2.2c0.4,0.4,0.8,0.8,1.2,1.2c2.7,2.8,6.3,4.7,11.4,5.1c-0.7-3.1,0.9-5.5,2.9-6.7c1.1-0.6,2.7-0.9,4.2-0.6
	c1.4,0.3,2.4,1,3.2,1.8c1.5-0.3,2.7-0.8,3.9-1.5c-0.5,1.5-1.4,2.6-2.7,3.3c1.2-0.1,2.4-0.5,3.5-0.9C36.2,14.2,35.2,15.2,34,16.1z
	 M22.2,0C9.9,0,0,9.9,0,22.2s9.9,22.2,22.2,22.2c12.2,0,22.2-9.9,22.2-22.2S34.4,0,22.2,0z"/>
</svg>
